<?xml version="1.0" encoding="UTF-8"?>
<svg xmlns="http://www.w3.org/2000/svg" xmlns:xlink="http://www.w3.org/1999/xlink" viewBox="0 0 423.45 496.66">
  <defs>
    <style>
      .cls-1 {
        isolation: isolate;
      }

      .cls-2 {
        mix-blend-mode: overlay;
      }

      .cls-3 {
        stroke: #ffdbfc;
      }

      .cls-3, .cls-4 {
        fill: none;
        stroke-width: 1.82px;
      }

      .cls-4 {
        stroke: #c800ffff;
      }
    </style>
  </defs>
  <g class="cls-1">
    <g id="Capa_2" data-name="Capa 2">
      <g id="effects">
        <g>
          <g>
            <path d="M260.39,306.26c-.85,16.14-6.05,31.96-14.82,44.76,10.71,0,27.23-1.16,36.93-1.86-8.69-12.33-14.51-27.07-16.99-42.28-1.78-.39-3.49-.62-5.12-.62h0Z"/>
            <path d="M271.17,209.91c-3.34-2.48-6.44-3.65-9.62-3.65-8.3,0-16.83,8.07-29.4,22.81l-2.56,3.03c-8.61,10.01-14.74,18.77-19.39,27.77-3.26,6.28-5.82,12.72-7.91,19.7-2.72,9.15-3.26,16.14-1.78,21.95,1.01,3.96,2.95,9,6.21,10.32,6.21,2.56,18.93-5.35,28.16-11.09,3.88-2.4,7.6-4.73,11.09-6.44,1.24-2.33,3.49-4.11,6.36-4.27,1.4-.08,2.64.31,3.8.93,14.82-1.86,32.27,7.45,45.38,14.43,1.78.93,3.49,1.86,5.04,2.64,3.49,1.78,8.46,3.65,12.18,2.25,2.64-1.01,5.2-3.96,6.75-7.91,4.03-10.08-1.47-28.78-14.82-50.19-9.77-15.75-23.43-30.41-39.49-42.28h0Z"/>
            <path d="M103.76,259.09c-1.71-15.2-3.34-30.33-4.89-45.54-.78-8.07-1.86-16.29-2.95-24.51-2.64-20.4-5.35-41.43-4.27-62.06.85-15.44,6.52-28.86,16.45-38.63,11.56-11.48,24.59-12.57,37.24-13.58,2.25-.16,4.5-.39,6.75-.62,13.58-1.47,27.23-3.18,40.88-4.89,29.32-3.72,59.66-7.52,89.6-8.84,8.15-.39,17.3-1.55,27-2.72,1.71-.23,3.49-.47,5.2-.62-.78-8.61-2.56-19.16-8.22-22.26-5.82-3.26-18-1.94-26.07-1.09l-4.34.31c-18.62,1.63-37.55,2.95-55.85,4.19-33.9,2.25-68.89,4.65-102.79,9.54-3.72.54-7.84.93-12.1,1.32-11.71,1.09-25.06,2.33-33.05,7.76-22.73,15.59-21.1,46.31-19.55,75.95.16,3.03.31,5.97.47,8.92,1.4,32.35,5.04,65.16,8.61,96.89,1.55,13.73,2.95,27.07,4.34,40.42,2.79,26.14,5.66,53.22,9.08,79.67.93,6.98,1.32,14.58,1.71,22.65,1.01,20.87,2.25,44.53,13.81,57.64,8.61,9.77,22.11,10.32,32.35,7.68-4.5-40.49-8.92-84.17-14.27-139.4-1.55-16.14-3.34-32.12-5.12-48.17h0Z"/>
            <path d="M191.58,441.78c1.47,3.88,2.64,5.74,3.34,6.59.08-.16.23-.31.31-.54.85-1.78,1.24-4.34,1.71-7.06,1.01-6.52,2.17-12.96,3.49-19.39-5.66,0-11.33.23-16.91.7,2.79,6.52,5.59,13.11,8.07,19.7h0Z"/>
            <path d="M59.93,360.8c-3.49-26.61-6.36-53.76-9.15-80.06-1.4-13.34-2.79-26.61-4.34-39.87-3.65-32.43-7.37-65.55-8.77-98.44-.16-2.87-.31-5.82-.47-8.77-1.63-30.8-3.57-69.12,26.3-89.6,11.33-7.76,26.76-9.15,40.42-10.47,3.96-.39,7.76-.7,11.25-1.24,34.52-5.04,69.82-7.37,104.03-9.7,11.02-.78,22.26-1.55,33.59-2.4-.7-11.56-1.09-13.96-7.99-18.08-5.51-3.26-17.14-2.09-24.82-1.24l-4.34.47c-18,1.63-36.23,2.79-53.92,3.96-32.66,2.09-66.48,4.34-99.14,9.15-3.57.54-7.52.93-11.71,1.32-11.25,1.01-23.97,2.17-31.57,7.68C-2.59,39.4-.73,72.52.9,101.69c.16,3.1.31,6.13.47,9.15,1.55,33.28,5.28,67.03,8.92,99.68,1.55,14.12,3.03,27.93,4.5,41.66,2.87,26.84,5.82,54.69,9.23,81.84.93,7.21,1.32,14.97,1.78,23.2,1.16,21.57,2.4,46,13.81,59.66,7.37,8.77,18.23,10.32,27.38,8.77-3.96-13.81-4.81-29.25-5.51-43.6-.39-7.6-.78-14.89-1.55-21.26h0Z"/>
            <path d="M395.37,162.82c-2.17-23.82-7.99-87.04-29.94-91.54-5.12-1.09-10.71-1.47-16.6-1.47-11.64,0-24.51,1.63-37.08,3.26-10.01,1.24-19.47,2.48-28.24,2.87-29.25,1.32-59.27,5.12-88.28,8.77-13.73,1.71-27.46,3.49-41.19,4.96-2.4.23-4.81.47-7.14.62-11.25.93-20.09,1.63-27.62,9.15-7.14,7.06-11.25,16.91-11.95,28.47-1.09,19.16,1.55,39.49,4.11,59.19,1.09,8.38,2.17,16.76,2.95,24.98,1.47,15.13,3.18,30.25,4.81,45.3,1.78,16.14,3.57,32.19,5.12,48.33,5.97,61.67,10.86,108.99,15.83,153.44,2.87,25.44,22.11,38.24,57.64,37.47,43.6-.7,86.73-6.98,128.47-13.03,25.21-3.65,51.28-7.45,77.42-10.01,5.74-.54,11.02-3.65,14.66-8.69,3.88-5.28,5.66-12.02,4.96-19.01l-27.93-283.07ZM225.09,385.7c-5.51,18.62-9.85,37.86-12.88,57.25-.62,3.8-1.24,7.91-3.1,11.79-2.87,5.82-8.15,9.54-13.73,9.7h-.47c-11.4,0-16.29-12.88-17.92-17.22-6.59-17.45-14.43-34.52-23.43-50.58-2.09-3.72-.78-8.46,3.03-10.55,3.72-2.09,8.46-.78,10.55,3.03,3.34,5.97,6.52,12.18,9.54,18.39.62-.23,1.16-.54,1.86-.62,8.38-.93,16.83-1.16,25.21-1.01,1.94-8.3,4.11-16.52,6.52-24.67,1.24-4.11,5.51-6.44,9.62-5.2s6.44,5.59,5.2,9.7h0ZM339.9,308.12c-3.26,7.99-8.92,14.04-15.59,16.6-7.29,2.79-15.59,1.78-24.82-2.95-1.63-.85-3.34-1.78-5.2-2.72-3.34-1.78-7.37-3.88-11.64-5.9,3.88,14.2,11.17,27.38,21.1,37.24,2.25,2.17,2.87,5.51,1.71,8.38s-3.96,4.81-7.14,4.81c-1.4,0-5.28.31-10.47.7-19.47,1.4-32.74,2.17-41.81,2.17-16.21,0-19.32-2.33-20.95-7.21-.85-2.56-1.09-6.52,2.87-10.94,8.46-9.39,14.04-21.88,16.14-35.14-.39.23-.78.47-1.09.7-10.16,6.28-22.34,13.89-33.75,13.89-2.87,0-5.66-.47-8.38-1.55-7.45-3.03-12.64-10.01-15.44-20.87-2.95-11.33-.31-22.65,1.94-30.18,2.33-7.91,5.28-15.28,9-22.42,5.2-10.08,12.02-19.86,21.41-30.72l2.56-2.95c12.88-15.2,34.52-40.57,60.04-21.57,17.61,13.03,32.58,29.17,43.44,46.47,11.64,18.62,23.82,44.84,16.06,64.16h0ZM362.63,182.91c-.85.31-1.71.39-2.48.39-3.26,0-6.21-2.02-7.37-5.28-1.47-4.42-3.18-8.77-4.73-13.19l-21.49.54c-.31,2.17-.78,4.34-1.09,6.52-.62,4.27-4.58,7.21-8.77,6.59-4.27-.54-7.21-4.5-6.59-8.77,3.1-22.73,7.99-45.3,14.51-67.03.93-3.1,3.65-5.28,6.9-5.51,3.18-.16,6.28,1.55,7.6,4.5,10.55,23.12,20.01,47.09,28.32,71.21,1.4,4.19-.78,8.61-4.81,10.01Z"/>
            <path d="M329.12,149.87l13.19-.31c-2.72-7.14-5.59-14.2-8.53-21.26-1.71,7.14-3.26,14.27-4.65,21.57h0Z"/>
          </g>
          <g>
            <g>
              <path class="cls-4" d="M245.57,351.89c-.32,0-.62-.18-.77-.46-.15-.28-.13-.63.05-.89,8.61-12.57,13.82-28.31,14.67-44.32.02-.46.4-.82.87-.82,1.59,0,3.32.21,5.3.64.35.08.61.36.67.71,2.5,15.34,8.33,29.83,16.84,41.92.18.25.21.59.07.87s-.41.47-.72.49c-8.4.6-25.89,1.86-36.99,1.86Z"/>
              <path class="cls-4" d="M209.5,313.21c-1.17,0-2.22-.19-3.13-.56-3.63-1.47-5.65-6.74-6.71-10.9-1.53-6.02-.96-13.15,1.79-22.41,2.15-7.15,4.75-13.65,7.97-19.86,4.66-9.01,10.86-17.89,19.51-27.94l2.55-3.02c12.78-14.99,21.36-23.11,30.06-23.11,3.37,0,6.69,1.25,10.14,3.82,16.09,11.9,29.82,26.6,39.71,42.52,13.45,21.59,19.02,40.64,14.88,50.97-1.62,4.15-4.33,7.29-7.24,8.4-.97.36-2.05.55-3.23.55h0c-2.73,0-5.98-.95-9.65-2.83-.99-.49-2.05-1.06-3.15-1.64-.62-.33-1.25-.66-1.9-1-12.22-6.51-27.36-14.57-41.01-14.57-1.32,0-2.62.08-3.86.23-.04,0-.07,0-.11,0-.14,0-.28-.03-.41-.1-1.07-.57-2.04-.84-3.04-.84-.1,0-.2,0-.31,0-2.37.13-4.42,1.52-5.64,3.81-.09.16-.22.29-.38.37-3.32,1.62-6.85,3.81-10.58,6.13l-.44.27c-8.4,5.22-18.84,11.72-25.82,11.72Z"/>
              <path class="cls-4" d="M112.65,448.89c-6.51,0-15.7-1.62-22.5-9.33-11.86-13.45-13.01-37.21-14.02-58.17-.35-7.21-.74-15.37-1.7-22.58-3.3-25.58-6.09-51.74-8.8-77.05l-.28-2.64c-1.37-13.11-2.79-26.67-4.34-40.41-3.37-29.97-7.19-63.94-8.62-96.95l-.46-8.91c-1.57-29.95-3.19-60.85,19.92-76.71,8.19-5.56,21.61-6.81,33.46-7.91,4.43-.4,8.39-.78,12.06-1.31,35-5.05,71.05-7.44,102.86-9.55,17.94-1.22,37.02-2.54,55.84-4.19l4.36-.31.16-.02c4.15-.44,9.31-.98,14.18-.98,5.58,0,9.57.72,12.21,2.2,6.22,3.41,7.92,14.73,8.66,22.94.04.48-.31.9-.78.94-1.7.15-3.48.39-5.16.62l-2.64.32c-8.74,1.05-16.99,2.05-24.43,2.4-30.52,1.34-61.87,5.33-89.53,8.84-13.43,1.68-27.31,3.41-40.9,4.89-2.26.23-4.54.47-6.78.62-12.43.99-25.3,2.02-36.69,13.33-9.75,9.6-15.35,22.76-16.19,38.07-1.08,20.57,1.63,41.58,4.26,61.9,1.07,8.1,2.17,16.46,2.95,24.54,1.5,14.66,3.09,29.56,4.88,45.52l.18,1.62c1.69,15.23,3.44,30.97,4.94,46.57,5.81,59.98,10.08,101.67,14.27,139.39.05.43-.23.83-.64.93-3.57.92-7.17,1.38-10.72,1.38h0Z"/>
              <path class="cls-4" d="M194.91,449.21c-.25,0-.51-.09-.67-.28-.75-.92-1.96-2.84-3.47-6.83-2.51-6.66-5.35-13.37-8.05-19.67-.11-.26-.09-.55.05-.79s.39-.39.67-.42c5.58-.47,11.29-.7,16.98-.7.26,0,.51.12.67.32.17.2.23.47.18.72-1.32,6.46-2.5,12.97-3.48,19.35l-.11.66c-.42,2.49-.82,4.85-1.65,6.6-.09.23-.21.41-.29.53-.13.26-.41.48-.71.51-.04,0-.08,0-.12,0Z"/>
              <path class="cls-4" d="M60.8,427.04c-6.29,0-15.19-1.67-21.86-9.6-11.51-13.78-12.82-38.18-13.98-59.71l-.14-2.49c-.42-7.46-.81-14.51-1.67-21.1-3.23-25.66-6.04-51.96-8.76-77.4l-1.17-10.89c-1.25-11.61-2.5-23.31-3.81-35.23C5.98,179.81,2.08,144.87.5,110.89c-.16-3.02-.31-6.05-.47-9.15-1.64-29.44-3.5-62.77,18.74-78.94,7.83-5.68,20.67-6.83,32-7.84,4.09-.38,8.06-.77,11.66-1.31,33.66-4.96,68.49-7.19,99.22-9.16l3.67-.24c16.46-1.08,33.48-2.2,50.22-3.71l4.33-.46c4.03-.45,8.71-.93,13.19-.93,5.59,0,9.57.75,12.17,2.28,7.27,4.33,7.72,7.22,8.41,18.77.03.47-.33.88-.8.92-9.25.7-18.54,1.35-27.52,1.98l-6.08.43-2.67.18c-33.28,2.26-67.7,4.6-101.29,9.51-2.84.44-5.84.73-9.03,1.03l-2.83.27c-13.34,1.29-28.46,2.75-39.44,10.27-29.55,20.26-27.54,58.29-25.92,88.84l.46,8.77c1.4,32.89,5.14,66.19,8.76,98.39,1.51,12.95,2.86,25.72,4.34,39.88l.16,1.54c2.74,25.77,5.57,52.42,8.99,78.5.81,6.64,1.21,14.44,1.56,21.32.63,13.04,1.42,29.26,5.48,43.4.07.24.03.49-.1.7-.13.21-.35.35-.59.39-2.12.36-4.25.54-6.33.54h0Z"/>
              <path class="cls-4" d="M194.78,497.53c-33.96,0-52.63-12.88-55.49-38.27-5.02-44.93-9.9-92.26-15.83-153.46-1.49-15.52-3.23-31.27-4.92-46.49,0,0-.95-8.72-1.33-12.17-1.25-11.46-2.55-23.3-3.68-34.97-.77-8.21-1.88-16.72-2.94-24.95-2.56-19.71-5.21-40.09-4.12-59.35.71-11.81,4.93-21.85,12.2-29.04,7.71-7.71,16.66-8.45,27.99-9.39h.16c2.31-.17,4.72-.4,7.06-.63,11.03-1.18,22.2-2.58,33-3.94l9.23-1.16c28.71-3.61,58.41-7.34,87.35-8.65,8.02-.35,16.63-1.43,25.74-2.56l2.43-.3c11.8-1.53,25.18-3.26,37.19-3.26,6.56,0,12.04.49,16.78,1.49,22.63,4.64,28.44,68.33,30.63,92.31l27.93,283.07c.72,7.17-1.1,14.13-5.13,19.6-3.8,5.25-9.23,8.47-15.28,9.04-25.47,2.49-50.9,6.17-75.49,9.73l-2.56.37c-41.54,6.02-84.49,12.25-127.91,12.94-1.02.02-2.02.03-3.02.03h0ZM160.37,385.96c-1.17,0-2.33.3-3.35.88-1.63.9-2.81,2.37-3.31,4.14-.5,1.77-.28,3.62.62,5.23,8.82,15.74,16.72,32.79,23.48,50.7,1.55,4.12,6.25,16.66,17.11,16.66h.47c5.25-.15,10.22-3.68,12.96-9.21,1.73-3.61,2.35-7.43,2.96-11.12l.07-.43c3.01-19.29,7.35-38.59,12.9-57.36.53-1.77.35-3.64-.52-5.27-.87-1.63-2.33-2.82-4.09-3.35-.65-.2-1.32-.3-1.99-.3-3.03,0-5.66,1.98-6.55,4.92-2.39,8.1-4.58,16.38-6.5,24.62-.09.39-.44.67-.84.67,0,0-.01,0-.02,0-1.56-.03-3.11-.04-4.67-.04-7.4,0-14.08.34-20.43,1.05-.38.04-.73.19-1.13.36-.17.07-.34.15-.52.21-.1.04-.2.06-.3.06-.32,0-.63-.18-.78-.49-3.35-6.87-6.46-12.87-9.52-18.34-1.22-2.21-3.52-3.57-6.02-3.57ZM244.09,312.3c.17,0,.34.05.48.15.28.19.43.52.38.85-2.15,13.64-7.96,26.27-16.35,35.59-2.93,3.27-3.83,6.66-2.69,10.08,1.37,4.12,3.41,6.62,20.12,6.62,9.53,0,23.59-.87,41.75-2.17l2.19-.16c4.13-.31,7.12-.54,8.35-.54,2.8,0,5.28-1.68,6.33-4.27,1.06-2.61.47-5.53-1.51-7.43-9.78-9.7-17.35-23.07-21.33-37.63-.09-.33.02-.67.28-.89.16-.13.36-.2.56-.2.13,0,.25.03.37.08,3.57,1.69,7.39,3.62,11.67,5.92,1.28.64,2.51,1.29,3.68,1.91l1.51.8c5.68,2.91,11.05,4.39,15.95,4.39,2.84,0,5.59-.5,8.16-1.49,6.42-2.47,11.93-8.34,15.1-16.12,7.63-19.01-4.48-44.95-15.99-63.37-10.92-17.4-25.87-33.39-43.22-46.23-5.9-4.39-11.98-6.62-18.08-6.62-17.03,0-31.33,16.88-40.79,28.05l-2.57,2.96c-9.38,10.85-16.15,20.56-21.3,30.55-3.69,7.06-6.61,14.35-8.94,22.27-2.22,7.42-4.83,18.57-1.93,29.71,2.71,10.54,7.73,17.36,14.93,20.28,2.5,1,5.14,1.49,8.05,1.49,11.04,0,23.21-7.52,32.99-13.57l.31-.19c.28-.21.69-.46,1.08-.7.14-.08.3-.13.45-.13ZM348.05,163.97c.37,0,.7.23.82.58.64,1.82,1.3,3.63,1.97,5.43.93,2.54,1.9,5.16,2.77,7.77,1.01,2.84,3.59,4.68,6.55,4.68.86,0,1.56-.11,2.19-.34,3.65-1.26,5.53-5.18,4.29-8.92-8.49-24.69-18.01-48.62-28.28-71.13-1.09-2.43-3.61-4-6.42-4-.12,0-.24,0-.36,0-2.88.21-5.29,2.13-6.12,4.89-6.51,21.69-11.38,44.2-14.48,66.89-.27,1.86.2,3.7,1.33,5.18,1.11,1.45,2.71,2.38,4.52,2.61.34.05.68.08,1.01.08,3.38,0,6.3-2.55,6.79-5.94.16-1.09.35-2.19.55-3.29.19-1.08.38-2.15.54-3.23.06-.42.41-.73.84-.74,0,0,21.5-.54,21.51-.54Z"/>
              <path class="cls-4" d="M329.12,150.73c-.25,0-.5-.11-.66-.31-.17-.2-.24-.47-.19-.72,1.36-7.1,2.88-14.17,4.66-21.61.09-.36.4-.63.77-.66.02,0,.05,0,.07,0,.35,0,.66.21.8.53,3.44,8.24,6.16,15,8.54,21.28.1.26.07.56-.09.79s-.42.38-.7.38c0,0-13.2.31-13.21.31Z"/>
            </g>
          </g>
          <g>
            <use transform="translate(-10.42 -10.64)" xlink:href="#image"/>
            <g>
              <path class="cls-3" d="M245.57,352.32c-.48,0-.92-.27-1.15-.69-.22-.43-.2-.94.08-1.34,8.57-12.51,13.75-28.17,14.59-44.1.04-.69.61-1.23,1.3-1.23,1.62,0,3.38.21,5.4.65.52.11.92.53,1.01,1.06,2.49,15.27,8.29,29.71,16.77,41.74.27.38.31.88.11,1.3-.2.42-.61.71-1.08.74-8.41.61-25.9,1.87-37.02,1.87Z"/>
              <path class="cls-3" d="M209.5,313.64c-1.23,0-2.34-.2-3.29-.59-3.79-1.53-5.88-6.94-6.97-11.2-1.55-6.1-.97-13.3,1.8-22.64,2.15-7.18,4.77-13.7,8-19.93,4.68-9.04,10.89-17.95,19.56-28.02l2.55-3.02c12.87-15.09,21.52-23.27,30.39-23.27,3.47,0,6.87,1.28,10.4,3.9,16.14,11.93,29.9,26.67,39.81,42.64,13.53,21.7,19.1,40.9,14.92,51.36-1.67,4.25-4.47,7.49-7.49,8.64-1.02.38-2.15.57-3.38.57h0c-2.8,0-6.11-.97-9.85-2.88-.99-.49-2.05-1.06-3.16-1.64-.62-.33-1.25-.66-1.89-1-12.19-6.49-27.27-14.52-40.81-14.52-1.31,0-2.59.08-3.81.23-.05,0-.11.01-.16.01-.21,0-.42-.05-.61-.15-1.01-.54-1.91-.79-2.84-.79-.09,0-.19,0-.28,0-2.21.12-4.14,1.42-5.29,3.58-.13.24-.33.44-.58.56-3.3,1.61-6.82,3.79-10.54,6.1l-.44.27c-8.44,5.25-18.95,11.78-26.05,11.78Z"/>
              <path class="cls-3" d="M112.65,449.33c-6.6,0-15.92-1.64-22.82-9.48-11.96-13.57-13.12-37.4-14.13-58.43-.35-7.2-.74-15.35-1.7-22.54-3.3-25.58-6.1-51.75-8.8-77.06l-.28-2.64c-1.37-13.11-2.79-26.67-4.34-40.41-3.37-29.98-7.19-63.95-8.62-96.98l-.46-8.91c-1.57-30.07-3.2-61.09,20.11-77.08,8.28-5.63,21.76-6.88,33.66-7.98,4.42-.4,8.38-.78,12.04-1.31,35.02-5.05,71.08-7.44,102.89-9.55,17.93-1.22,37.02-2.54,55.83-4.19l4.36-.31.14-.02c4.16-.44,9.33-.99,14.22-.99,5.66,0,9.72.74,12.42,2.25,6.4,3.5,8.13,14.97,8.88,23.28.06.71-.46,1.35-1.18,1.41-1.69.15-3.47.39-5.14.61l-2.65.32c-8.75,1.06-17.01,2.05-24.46,2.41-30.5,1.34-61.85,5.32-89.5,8.83-13.43,1.68-27.32,3.41-40.91,4.89-2.26.23-4.54.47-6.8.62-12.35.99-25.14,2-36.41,13.2-9.67,9.52-15.22,22.58-16.07,37.78-1.08,20.53,1.63,41.52,4.26,61.82,1.07,8.1,2.17,16.47,2.95,24.56,1.5,14.66,3.09,29.55,4.88,45.52l.18,1.62c1.69,15.23,3.44,30.97,4.94,46.58,5.81,59.98,10.08,101.66,14.27,139.38.07.64-.34,1.24-.97,1.4-3.6.93-7.24,1.4-10.83,1.4h0Z"/>
              <path class="cls-3" d="M194.92,449.67c-.39,0-.76-.16-1.01-.47-.77-.94-2.01-2.91-3.54-6.95-2.5-6.66-5.35-13.36-8.05-19.65-.16-.38-.13-.82.08-1.18.21-.36.59-.59,1-.63,5.59-.47,11.32-.7,17.02-.7.39,0,.76.18,1.01.48.25.3.34.7.27,1.08-1.32,6.45-2.49,12.96-3.48,19.33l-.11.67c-.43,2.52-.83,4.9-1.68,6.69-.11.28-.24.48-.33.6-.2.39-.59.67-1.03.72-.05,0-.1,0-.15,0Z"/>
              <path class="cls-3" d="M60.8,427.48c-6.38,0-15.41-1.69-22.19-9.76-11.6-13.89-12.92-38.37-14.09-59.96l-.14-2.5c-.42-7.45-.81-14.49-1.66-21.06-3.23-25.67-6.04-51.97-8.76-77.41l-1.17-10.89c-1.25-11.61-2.5-23.31-3.81-35.23C5.55,179.85,1.65,144.91.07,110.91c-.16-3.02-.31-6.05-.47-9.15-1.65-29.55-3.52-63,18.92-79.31,7.93-5.75,20.83-6.9,32.22-7.92,4.08-.38,8.05-.76,11.63-1.31,33.68-4.96,68.52-7.19,99.25-9.17l3.67-.24c16.46-1.08,33.47-2.2,50.21-3.71l4.32-.46c4.04-.45,8.73-.93,13.24-.93,5.67,0,9.72.77,12.39,2.34,7.47,4.45,7.92,7.38,8.63,19.11.04.71-.49,1.32-1.2,1.37-9.25.7-18.53,1.35-27.5,1.98l-6.1.43-2.67.18c-33.28,2.26-67.68,4.6-101.26,9.5-2.84.44-5.86.73-9.04,1.03l-2.83.27c-13.29,1.28-28.35,2.74-39.24,10.2-29.35,20.13-27.34,58.01-25.73,88.46l.46,8.77c1.4,32.88,5.14,66.17,8.76,98.37,1.51,12.94,2.86,25.72,4.34,39.88l.16,1.53c2.74,25.77,5.57,52.42,8.99,78.5.81,6.66,1.21,14.47,1.56,21.36.63,13.02,1.42,29.21,5.46,43.31.1.36.05.74-.15,1.05-.2.31-.52.53-.88.59-2.15.36-4.3.55-6.4.55h0Z"/>
              <path class="cls-3" d="M194.78,497.96c-34.21,0-53.03-13.01-55.92-38.66-5.02-44.93-9.9-92.26-15.83-153.46-1.49-15.52-3.23-31.27-4.92-46.49,0,0-.95-8.71-1.33-12.16-1.25-11.46-2.55-23.3-3.68-34.97-.77-8.21-1.88-16.71-2.94-24.94-2.56-19.73-5.21-40.13-4.12-59.43.72-11.92,4.98-22.05,12.33-29.32,7.82-7.82,16.84-8.57,28.26-9.51h.16c2.31-.17,4.72-.4,7.05-.63,11.02-1.18,22.18-2.58,32.97-3.94l9.24-1.16c28.72-3.61,58.43-7.34,87.39-8.65,8-.35,16.61-1.43,25.71-2.56l2.42-.3c11.81-1.53,25.21-3.27,37.24-3.27,6.59,0,12.1.49,16.87,1.5,22.94,4.7,28.77,68.63,30.97,92.69l27.93,283.06c.73,7.27-1.12,14.34-5.21,19.9-3.87,5.35-9.41,8.63-15.59,9.21-25.46,2.49-50.88,6.17-75.47,9.73l-2.56.37c-41.55,6.02-84.51,12.25-127.96,12.95-1.02.02-2.03.03-3.03.03ZM160.37,386.39c-1.09,0-2.18.29-3.14.83-1.54.85-2.64,2.22-3.11,3.88-.47,1.65-.27,3.39.58,4.9,8.83,15.76,16.74,32.83,23.51,50.76,1.52,4.05,6.15,16.38,16.7,16.38h.47c5.08-.14,9.91-3.58,12.57-8.97,1.71-3.55,2.32-7.34,2.92-11l.07-.43c3.01-19.31,7.36-38.63,12.91-57.41.5-1.66.33-3.42-.49-4.94-.82-1.53-2.18-2.64-3.84-3.14-.61-.18-1.24-.28-1.87-.28-2.83,0-5.3,1.85-6.13,4.61-2.39,8.09-4.57,16.36-6.5,24.59-.14.59-.66,1-1.27,1,0,0-.02,0-.02,0-1.55-.03-3.11-.04-4.66-.04-7.39,0-14.05.34-20.38,1.04-.32.04-.63.16-1.01.33-.18.07-.35.15-.54.22-.15.06-.3.08-.46.08-.48,0-.94-.27-1.17-.73-3.34-6.86-6.45-12.85-9.51-18.32-1.14-2.07-3.3-3.35-5.64-3.35ZM244.09,311.87c.25,0,.51.07.73.22.42.28.64.78.56,1.28-2.17,13.72-8.01,26.44-16.45,35.81-2.81,3.15-3.69,6.4-2.6,9.66,1.31,3.94,3.29,6.33,19.71,6.33,9.52,0,23.56-.87,41.72-2.17l2.19-.16c4.14-.31,7.14-.54,8.38-.54,2.62,0,4.95-1.57,5.93-4,.99-2.44.44-5.17-1.41-6.96-9.84-9.76-17.45-23.19-21.45-37.83-.13-.49.03-1.01.42-1.34.24-.2.54-.3.83-.3.19,0,.38.04.56.12,3.58,1.69,7.4,3.63,11.69,5.92,1.27.64,2.5,1.29,3.68,1.91l1.51.8c5.62,2.88,10.92,4.34,15.75,4.34,2.79,0,5.49-.49,8.01-1.46,6.31-2.42,11.73-8.21,14.85-15.88,7.57-18.84-4.5-44.65-15.96-62.98-10.9-17.36-25.8-33.3-43.11-46.11-5.82-4.34-11.82-6.53-17.83-6.53-16.83,0-31.05,16.79-40.46,27.89l-2.57,2.96c-9.36,10.83-16.11,20.51-21.24,30.46-3.67,7.04-6.59,14.3-8.91,22.19-2.2,7.37-4.8,18.44-1.93,29.48,2.67,10.4,7.61,17.12,14.67,19.99,2.45.98,5.03,1.46,7.89,1.46,10.92,0,23.03-7.49,32.76-13.5l.26-.16c.35-.26.75-.5,1.14-.73.21-.12.44-.19.67-.19ZM348.05,163.54c.55,0,1.04.35,1.23.87.64,1.82,1.3,3.62,1.97,5.43.93,2.54,1.9,5.17,2.77,7.78.95,2.65,3.36,4.39,6.14,4.39.81,0,1.46-.1,2.04-.31,3.43-1.19,5.19-4.87,4.02-8.38-8.49-24.67-18-48.59-28.26-71.09-1.02-2.28-3.38-3.75-6.02-3.75-.11,0-.22,0-.34,0-2.69.19-4.95,1.99-5.72,4.58-6.5,21.67-11.37,44.16-14.46,66.83-.25,1.75.19,3.47,1.24,4.86,1.04,1.36,2.54,2.23,4.23,2.44.33.05.64.07.95.07,3.17,0,5.9-2.39,6.36-5.56.16-1.1.35-2.2.55-3.3.19-1.07.38-2.14.54-3.21.09-.63.62-1.1,1.25-1.11,0,0,21.51-.54,21.52-.54Z"/>
              <path class="cls-3" d="M329.12,151.17c-.38,0-.74-.17-.99-.46-.25-.3-.36-.7-.29-1.08,1.36-7.11,2.89-14.18,4.67-21.62.13-.55.6-.95,1.16-.99.04,0,.07,0,.11,0,.52,0,1,.31,1.2.8,3.44,8.24,6.16,15.01,8.55,21.29.15.39.1.84-.14,1.19-.24.35-.63.56-1.05.57,0,0-13.21.31-13.22.31Z"/>
            </g>
          </g>
          <g class="cls-2">
            <use transform="translate(-10.42 -10.64)" xlink:href="#image"/>
            <g>
              <path class="cls-3" d="M245.57,352.32c-.48,0-.92-.27-1.15-.69-.22-.43-.2-.94.08-1.34,8.57-12.51,13.75-28.17,14.59-44.1.04-.69.61-1.23,1.3-1.23,1.62,0,3.38.21,5.4.65.52.11.92.53,1.01,1.06,2.49,15.27,8.29,29.71,16.77,41.74.27.38.31.88.11,1.3-.2.42-.61.71-1.08.74-8.41.61-25.9,1.87-37.02,1.87Z"/>
              <path class="cls-3" d="M209.5,313.64c-1.23,0-2.34-.2-3.29-.59-3.79-1.53-5.88-6.94-6.97-11.2-1.55-6.1-.97-13.3,1.8-22.64,2.15-7.18,4.77-13.7,8-19.93,4.68-9.04,10.89-17.95,19.56-28.02l2.55-3.02c12.87-15.09,21.52-23.27,30.39-23.27,3.47,0,6.87,1.28,10.4,3.9,16.14,11.93,29.9,26.67,39.81,42.64,13.53,21.7,19.1,40.9,14.92,51.36-1.67,4.25-4.47,7.49-7.49,8.64-1.02.38-2.15.57-3.38.57h0c-2.8,0-6.11-.97-9.85-2.88-.99-.49-2.05-1.06-3.16-1.64-.62-.33-1.25-.66-1.89-1-12.19-6.49-27.27-14.52-40.81-14.52-1.31,0-2.59.08-3.81.23-.05,0-.11.01-.16.01-.21,0-.42-.05-.61-.15-1.01-.54-1.91-.79-2.84-.79-.09,0-.19,0-.28,0-2.21.12-4.14,1.42-5.29,3.58-.13.24-.33.44-.58.56-3.3,1.61-6.82,3.79-10.54,6.1l-.44.27c-8.44,5.25-18.95,11.78-26.05,11.78Z"/>
              <path class="cls-3" d="M112.65,449.33c-6.6,0-15.92-1.64-22.82-9.48-11.96-13.57-13.12-37.4-14.13-58.43-.35-7.2-.74-15.35-1.7-22.54-3.3-25.58-6.1-51.75-8.8-77.06l-.28-2.64c-1.37-13.11-2.79-26.67-4.34-40.41-3.37-29.98-7.19-63.95-8.62-96.98l-.46-8.91c-1.57-30.07-3.2-61.09,20.11-77.08,8.28-5.63,21.76-6.88,33.66-7.98,4.42-.4,8.38-.78,12.04-1.31,35.02-5.05,71.08-7.44,102.89-9.55,17.93-1.22,37.02-2.54,55.83-4.19l4.36-.31.14-.02c4.16-.44,9.33-.99,14.22-.99,5.66,0,9.72.74,12.42,2.25,6.4,3.5,8.13,14.97,8.88,23.28.06.71-.46,1.35-1.18,1.41-1.69.15-3.47.39-5.14.61l-2.65.32c-8.75,1.06-17.01,2.05-24.46,2.41-30.5,1.34-61.85,5.32-89.5,8.83-13.43,1.68-27.32,3.41-40.91,4.89-2.26.23-4.54.47-6.8.62-12.35.99-25.14,2-36.41,13.2-9.67,9.52-15.22,22.58-16.07,37.78-1.08,20.53,1.63,41.52,4.26,61.82,1.07,8.1,2.17,16.47,2.95,24.56,1.5,14.66,3.09,29.55,4.88,45.52l.18,1.62c1.69,15.23,3.44,30.97,4.94,46.58,5.81,59.98,10.08,101.66,14.27,139.38.07.64-.34,1.24-.97,1.4-3.6.93-7.24,1.4-10.83,1.4h0Z"/>
              <path class="cls-3" d="M194.92,449.67c-.39,0-.76-.16-1.01-.47-.77-.94-2.01-2.91-3.54-6.95-2.5-6.66-5.35-13.36-8.05-19.65-.16-.38-.13-.82.08-1.18.21-.36.59-.59,1-.63,5.59-.47,11.32-.7,17.02-.7.39,0,.76.18,1.01.48.25.3.34.7.27,1.08-1.32,6.45-2.49,12.96-3.48,19.33l-.11.67c-.43,2.52-.83,4.9-1.68,6.69-.11.28-.24.48-.33.6-.2.39-.59.67-1.03.72-.05,0-.1,0-.15,0Z"/>
              <path class="cls-3" d="M60.8,427.48c-6.38,0-15.41-1.69-22.19-9.76-11.6-13.89-12.92-38.37-14.09-59.96l-.14-2.5c-.42-7.45-.81-14.49-1.66-21.06-3.23-25.67-6.04-51.97-8.76-77.41l-1.17-10.89c-1.25-11.61-2.5-23.31-3.81-35.23C5.55,179.85,1.65,144.91.07,110.91c-.16-3.02-.31-6.05-.47-9.15-1.65-29.55-3.52-63,18.92-79.31,7.93-5.75,20.83-6.9,32.22-7.92,4.08-.38,8.05-.76,11.63-1.31,33.68-4.96,68.52-7.19,99.25-9.17l3.67-.24c16.46-1.08,33.47-2.2,50.21-3.71l4.32-.46c4.04-.45,8.73-.93,13.24-.93,5.67,0,9.72.77,12.39,2.34,7.47,4.45,7.92,7.38,8.63,19.11.04.71-.49,1.32-1.2,1.37-9.25.7-18.53,1.35-27.5,1.98l-6.1.43-2.67.18c-33.28,2.26-67.68,4.6-101.26,9.5-2.84.44-5.86.73-9.04,1.03l-2.83.27c-13.29,1.28-28.35,2.74-39.24,10.2-29.35,20.13-27.34,58.01-25.73,88.46l.46,8.77c1.4,32.88,5.14,66.17,8.76,98.37,1.51,12.94,2.86,25.72,4.34,39.88l.16,1.53c2.74,25.77,5.57,52.42,8.99,78.5.81,6.66,1.21,14.47,1.56,21.36.63,13.02,1.42,29.21,5.46,43.31.1.36.05.74-.15,1.05-.2.31-.52.53-.88.59-2.15.36-4.3.55-6.4.55h0Z"/>
              <path class="cls-3" d="M194.78,497.96c-34.21,0-53.03-13.01-55.92-38.66-5.02-44.93-9.9-92.26-15.83-153.46-1.49-15.52-3.23-31.27-4.92-46.49,0,0-.95-8.71-1.33-12.16-1.25-11.46-2.55-23.3-3.68-34.97-.77-8.21-1.88-16.71-2.94-24.94-2.56-19.73-5.21-40.13-4.12-59.43.72-11.92,4.98-22.05,12.33-29.32,7.82-7.82,16.84-8.57,28.26-9.51h.16c2.31-.17,4.72-.4,7.05-.63,11.02-1.18,22.18-2.58,32.97-3.94l9.24-1.16c28.72-3.61,58.43-7.34,87.39-8.65,8-.35,16.61-1.43,25.71-2.56l2.42-.3c11.81-1.53,25.21-3.27,37.24-3.27,6.59,0,12.1.49,16.87,1.5,22.94,4.7,28.77,68.63,30.97,92.69l27.93,283.06c.73,7.27-1.12,14.34-5.21,19.9-3.87,5.35-9.41,8.63-15.59,9.21-25.46,2.49-50.88,6.17-75.47,9.73l-2.56.37c-41.55,6.02-84.51,12.25-127.96,12.95-1.02.02-2.03.03-3.03.03ZM160.37,386.39c-1.09,0-2.18.29-3.14.83-1.54.85-2.64,2.22-3.11,3.88-.47,1.65-.27,3.39.58,4.9,8.83,15.76,16.74,32.83,23.51,50.76,1.52,4.05,6.15,16.38,16.7,16.38h.47c5.08-.14,9.91-3.58,12.57-8.97,1.71-3.55,2.32-7.34,2.92-11l.07-.43c3.01-19.31,7.36-38.63,12.91-57.41.5-1.66.33-3.42-.49-4.94-.82-1.53-2.18-2.64-3.84-3.14-.61-.18-1.24-.28-1.87-.28-2.83,0-5.3,1.85-6.13,4.61-2.39,8.09-4.57,16.36-6.5,24.59-.14.59-.66,1-1.27,1,0,0-.02,0-.02,0-1.55-.03-3.11-.04-4.66-.04-7.39,0-14.05.34-20.38,1.04-.32.04-.63.16-1.01.33-.18.07-.35.15-.54.22-.15.06-.3.08-.46.08-.48,0-.94-.27-1.17-.73-3.34-6.86-6.45-12.85-9.51-18.32-1.14-2.07-3.3-3.35-5.64-3.35ZM244.09,311.87c.25,0,.51.07.73.22.42.28.64.78.56,1.28-2.17,13.72-8.01,26.44-16.45,35.81-2.81,3.15-3.69,6.4-2.6,9.66,1.31,3.94,3.29,6.33,19.71,6.33,9.52,0,23.56-.87,41.72-2.17l2.19-.16c4.14-.31,7.14-.54,8.38-.54,2.62,0,4.95-1.57,5.93-4,.99-2.44.44-5.17-1.41-6.96-9.84-9.76-17.45-23.19-21.45-37.83-.13-.49.03-1.01.42-1.34.24-.2.54-.3.83-.3.19,0,.38.04.56.12,3.58,1.69,7.4,3.63,11.69,5.92,1.27.64,2.5,1.29,3.68,1.91l1.51.8c5.62,2.88,10.92,4.34,15.75,4.34,2.79,0,5.49-.49,8.01-1.46,6.31-2.42,11.73-8.21,14.85-15.88,7.57-18.84-4.5-44.65-15.96-62.98-10.9-17.36-25.8-33.3-43.11-46.11-5.82-4.34-11.82-6.53-17.83-6.53-16.83,0-31.05,16.79-40.46,27.89l-2.57,2.96c-9.36,10.83-16.11,20.51-21.24,30.46-3.67,7.04-6.59,14.3-8.91,22.19-2.2,7.37-4.8,18.44-1.93,29.48,2.67,10.4,7.61,17.12,14.67,19.99,2.45.98,5.03,1.46,7.89,1.46,10.92,0,23.03-7.49,32.76-13.5l.26-.16c.35-.26.75-.5,1.14-.73.21-.12.44-.19.67-.19ZM348.05,163.54c.55,0,1.04.35,1.23.87.64,1.82,1.3,3.62,1.97,5.43.93,2.54,1.9,5.17,2.77,7.78.95,2.65,3.36,4.39,6.14,4.39.81,0,1.46-.1,2.04-.31,3.43-1.19,5.19-4.87,4.02-8.38-8.49-24.67-18-48.59-28.26-71.09-1.02-2.28-3.38-3.75-6.02-3.75-.11,0-.22,0-.34,0-2.69.19-4.95,1.99-5.72,4.58-6.5,21.67-11.37,44.16-14.46,66.83-.25,1.75.19,3.47,1.24,4.86,1.04,1.36,2.54,2.23,4.23,2.44.33.05.64.07.95.07,3.17,0,5.9-2.39,6.36-5.56.16-1.1.35-2.2.55-3.3.19-1.07.38-2.14.54-3.21.09-.63.62-1.1,1.25-1.11,0,0,21.51-.54,21.52-.54Z"/>
              <path class="cls-3" d="M329.12,151.17c-.38,0-.74-.17-.99-.46-.25-.3-.36-.7-.29-1.08,1.36-7.11,2.89-14.18,4.67-21.62.13-.55.6-.95,1.16-.99.04,0,.07,0,.11,0,.52,0,1,.31,1.2.8,3.44,8.24,6.16,15.01,8.55,21.29.15.39.1.84-.14,1.19-.24.35-.63.56-1.05.57,0,0-13.21.31-13.22.31Z"/>
            </g>
          </g>
        </g>
      </g>
    </g>
  </g>
</svg>