<?xml version="1.0" encoding="UTF-8"?>
<svg xmlns="http://www.w3.org/2000/svg" xmlns:xlink="http://www.w3.org/1999/xlink" viewBox="0 -5 480.97 501.29">
  <defs>
    <style>
      .cls-1 {
        isolation: isolate;
      }

      .cls-2 {
        mix-blend-mode: overlay;
      }

      .cls-3 {
        stroke: #ffdbfc;
      }

      .cls-3, .cls-4 {
        fill: none;
        stroke-width: 1.82px;
      }

      .cls-4 {
        stroke: #c800ffff;
      }
    </style>
  </defs>
  <g class="cls-1">
    <g id="Capa_2" data-name="Capa 2">
      <g id="effects">
        <g>
          <g>
            <path d="M203.48,234.74c.31-.62.7-1.24,1.24-1.78,0,0,.08,0,.08-.08,3.18-4.96,5.12-10.86,5.12-17.14,0-16.14-12.1-29.4-27.69-31.5-.23,0-.39.16-.54.16h-.23c-.78,0-1.47-.23-2.17-.39-.47,0-.85-.16-1.32-.16-17.61,0-31.88,14.35-31.88,31.88s14.35,31.88,31.88,31.88c10.47,0,19.7-5.12,25.52-12.88h0Z"/>
            <path d="M166.4,260.8c-4.73-1.24-9.08-3.1-13.11-5.66-.47,1.09-1.09,2.09-2.02,2.95-21.26,17.61-42.43,35.3-63.53,53.06,21.1,20.01,48.72,33.05,79.44,35.61-1.16-28.63-1.4-57.48-.78-85.95h0Z"/>
            <path d="M208.6,180.59l56.01-63.77c-20.48-18-46.47-29.71-75.17-32.19-1.09,28.47-1.32,57.25-.7,85.72,7.52,1.78,14.27,5.35,19.86,10.24h0Z"/>
            <path d="M221.09,197.97c.54-.08,1.16-.31,1.78-.23,28.78,1.86,57.79,4.89,86.34,9.08-2.02-30.56-14.58-58.34-34.06-79.67l-57.02,64.85c1.09,2.02,2.17,3.96,2.95,5.97h0Z"/>
            <path d="M153.91,175.86c5.97-3.65,12.8-5.97,20.09-6.59-.62-28.24-.31-56.79.78-85.02-30.18.78-57.95,11.64-79.83,29.48,20.95,19.08,40.73,39.95,58.96,62.14Z"/>
            <path d="M224.5,212.63c.08,1.01.16,2.02.16,3.1,0,7.84-1.94,15.2-5.35,21.64,19.86,20.56,40.57,40.8,61.6,60.35,16.83-21.02,27.23-47.32,28.47-75.95-28.08-4.19-56.55-7.29-84.87-9.15h0Z"/>
            <path d="M178.04,37.7C79.67,37.7,0,117.37,0,215.73s79.67,178.04,178.04,178.04,178.04-79.75,178.04-178.04S276.32,37.7,178.04,37.7h0ZM178.04,362.12c-80.68,0-146.39-65.63-146.39-146.39,0-3.34.31-6.59.47-9.93-.39-.93-.54-1.94-.47-2.95.08-1.09.39-2.09.93-3.03,7.91-73.23,70.13-130.48,145.45-130.48,80.68,0,146.39,65.63,146.39,146.39s-65.71,146.39-146.39,146.39Z"/>
            <path d="M142.66,185.4c-18.08-22.11-37.7-42.82-58.57-61.75-19.01,19.39-31.88,44.61-36.07,72.69,28.47,1.55,56.71,5.12,84.25,10.63,1.55-8.15,5.2-15.52,10.4-21.57h0Z"/>
            <path d="M210.31,249.24c-7.68,7.45-17.92,12.18-29.25,12.96-.62,28.16-.31,56.71.7,84.95,34.75-1.01,66.25-15.44,89.29-38.48-20.71-19.16-41.04-39.18-60.74-59.42Z"/>
            <path d="M142.82,246.22c-5.82-6.75-9.77-15.13-11.02-24.36-27.85-5.66-56.4-9.31-85.26-10.86-.08,1.55-.23,3.1-.23,4.73,0,32.27,11.71,61.91,31.11,84.79,21.41-18,42.82-35.92,64.39-53.76.39-.23.7-.31,1.01-.54h0Z"/>
            <path d="M178.04,22.96c19.24,0,37.78,2.79,55.31,8.07,2.17-20.4-19.16-28.16-38.24-30.25-12.26-1.4-25.29-.78-37.47.93-18.85,2.64-20.87,8.38-19.78,25.44,12.88-2.72,26.38-4.19,40.18-4.19Z"/>
            <path d="M178.04,408.51c-44.99,0-86.42-15.52-119.23-41.5-2.09,20.79-1.16,44.14,15.67,55.54,16.76,11.25,35.92,10.16,55.54,11.17,46.55,2.25,93.25,3.57,139.48-3.1,5.04-.7,10.4-1.71,14.66-4.5,15.52-10.08,15.36-39.02,12.26-58.34-32.66,25.44-73.85,40.73-118.38,40.73h0Z"/>
            <path d="M460.33,276.71c0-21.18-17.22-38.4-38.4-38.4s-38.4,17.22-38.4,38.4c0,19.78,15.05,35.92,34.37,38.01.31,19.47-.62,43.99-4.65,55.93-.78,2.4-1.94,5.43-3.8,7.21-2.09,2.09-5.82,3.18-9.15,4.11-26.92,7.37-55.39,7.99-83.47,7.6-.08,4.89-.47,9.85-1.24,14.66,4.5.08,9,.16,13.5.16,25.06,0,50.35-1.4,75.09-8.22,5.04-1.4,10.86-3.26,15.52-7.76,4.11-4.03,6.21-9.08,7.52-13.11,5.35-15.9,5.66-44.92,5.35-61.91,16.06-4.65,27.77-19.24,27.77-36.69Z"/>
            <path d="M271.59,445.12c-26.61,3.88-53.53,5.12-79.52,5.12-21.88,0-43.13-.93-62.91-1.86-2.72-.16-5.43-.23-8.07-.31-13.81-.47-29.09-1.09-43.83-7.45-1.55,7.91-.93,16.29,1.94,23.89,11.17,29.56,40.03,28.7,66.79,30.56,24.36,1.71,48.87,1.86,73.31.54,19.7-1.09,45.23-1.09,58.96-18,7.99-9.85,8.77-23.04,7.6-36-4.89,1.94-9.77,2.87-14.27,3.49h0Z"/>
          </g>
          <g>
            <g>
              <path class="cls-4" d="M177.96,248.48c-18.06,0-32.75-14.69-32.75-32.75s14.69-32.75,32.75-32.75c.31,0,.58.05.81.09.16.03.33.06.5.06.06,0,.13,0,.19.02.17.04.34.08.51.12.51.13.98.24,1.47.24h.12c.17-.07.38-.15.66-.15.04,0,.08,0,.12,0,16.22,2.18,28.45,16.09,28.45,32.35,0,6.12-1.8,12.17-5.2,17.52-.07.17-.2.32-.35.42-.37.39-.68.86-.98,1.46-.02.05-.05.09-.08.13-6.3,8.4-15.86,13.22-26.22,13.22Z"/>
              <path class="cls-4" d="M167.1,347.62c-29.82-2.48-58.21-15.21-79.96-35.84-.18-.17-.28-.41-.27-.65,0-.25.12-.48.31-.64,21.05-17.72,42.42-35.57,63.54-53.07.72-.66,1.29-1.5,1.77-2.62.1-.23.3-.41.54-.49.08-.03.17-.04.26-.04.16,0,.32.05.46.13,3.94,2.5,8.15,4.32,12.87,5.56.39.1.66.46.65.86-.63,28.87-.37,57.77.77,85.9,0,.25-.09.49-.27.66-.16.15-.38.24-.6.24-.02,0-.05,0-.07,0Z"/>
              <path class="cls-4" d="M208.6,181.46c-.2,0-.41-.07-.57-.21-5.57-4.87-12.31-8.35-19.49-10.05-.38-.09-.66-.43-.67-.82-.62-28.47-.39-57.33.7-85.77,0-.24.11-.46.29-.62.16-.14.36-.22.57-.22.02,0,.05,0,.07,0,28.15,2.43,54.31,13.64,75.67,32.41.36.32.4.86.08,1.22l-56.01,63.77c-.17.19-.41.29-.65.29Z"/>
              <path class="cls-4" d="M309.22,207.68s-.08,0-.13,0c-28.21-4.14-57.24-7.19-86.27-9.07-.1-.01-.15-.01-.2-.01-.25,0-.52.06-.82.13-.2.04-.4.09-.59.11-.04,0-.08,0-.12,0-.35,0-.68-.22-.81-.56-.67-1.75-1.59-3.44-2.55-5.23l-.35-.64c-.17-.32-.13-.71.11-.98l57.02-64.85c.16-.19.4-.29.64-.29h0c.24,0,.48.1.64.28,20.15,22.08,32.33,50.56,34.28,80.2.02.26-.08.52-.28.69-.16.15-.37.23-.59.23Z"/>
              <path class="cls-4" d="M153.91,176.72c-.25,0-.5-.11-.67-.32-18.24-22.2-38.05-43.08-58.87-62.05-.19-.17-.29-.41-.28-.66,0-.25.12-.49.32-.65,22.87-18.65,50.65-28.91,80.35-29.67,0,0,.01,0,.02,0,.23,0,.45.09.62.26.17.17.26.4.25.64-1.12,29.02-1.38,57.61-.77,84.97,0,.46-.34.84-.79.88-7.03.6-13.66,2.77-19.71,6.47-.14.09-.3.13-.45.13Z"/>
              <path class="cls-4" d="M280.9,298.6c-.22,0-.43-.08-.59-.23-21.49-19.98-42.22-40.3-61.63-60.39-.26-.27-.32-.68-.14-1.01,3.44-6.48,5.25-13.83,5.25-21.24,0-1.07-.08-2.07-.15-3.04-.02-.25.07-.5.25-.68.16-.17.39-.26.62-.26.02,0,.04,0,.06,0,27.91,1.84,56.49,4.92,84.94,9.16.44.07.76.45.74.89-1.22,28.12-11.13,54.56-28.66,76.45-.15.19-.37.3-.61.32-.02,0-.04,0-.06,0Z"/>
              <path class="cls-4" d="M178.04,394.63c-47.81,0-92.74-18.6-126.52-52.38C17.74,308.47-.87,263.54-.87,215.73s18.6-92.74,52.38-126.52c33.78-33.78,78.71-52.38,126.52-52.38,98.65,0,178.9,80.26,178.9,178.9s-80.26,178.9-178.9,178.9ZM178.04,70.21c-74.44,0-136.6,55.76-144.59,129.71-.01.12-.05.24-.11.34-.47.81-.75,1.7-.81,2.65-.07.88.07,1.76.4,2.55.05.12.07.25.07.37-.05,1.13-.12,2.24-.19,3.36-.13,2.14-.27,4.35-.27,6.53,0,80.24,65.28,145.52,145.52,145.52s145.52-65.28,145.52-145.52-65.28-145.52-145.52-145.52Z"/>
              <path class="cls-4" d="M132.27,207.83c-.06,0-.11,0-.17-.02-27.49-5.5-55.79-9.07-84.12-10.61-.24-.01-.47-.13-.62-.32-.15-.19-.22-.43-.19-.68,4.16-27.87,16.71-53.17,36.31-73.17.17-.17.39-.26.62-.26.21,0,.42.07.58.22,20.79,18.86,40.53,39.67,58.66,61.84.27.33.26.79-.01,1.11-5.19,6.04-8.71,13.36-10.2,21.16-.04.23-.17.43-.37.56-.14.1-.31.15-.48.15Z"/>
              <path class="cls-4" d="M181.76,348.01c-.46,0-.85-.37-.87-.84-1.05-29.55-1.29-58.15-.7-85,0-.45.36-.81.81-.85,10.82-.74,21.01-5.26,28.7-12.71.17-.16.38-.24.6-.24s.45.09.62.26c20.91,21.49,41.34,41.47,60.71,59.39.17.16.27.38.28.62,0,.24-.09.46-.25.63-23.99,23.99-55.91,37.75-89.88,38.73,0,0-.02,0-.03,0Z"/>
              <path class="cls-4" d="M77.42,301.39c-.25,0-.49-.1-.66-.31-20.19-23.83-31.31-54.14-31.31-85.35,0-1.13.07-2.22.14-3.28.03-.5.07-1,.09-1.5.01-.23.11-.45.29-.6.16-.14.37-.22.58-.22.02,0,.03,0,.05,0,28.77,1.55,57.5,5.21,85.38,10.88.36.07.64.37.69.73,1.18,8.81,4.92,17.08,10.81,23.91.16.18.23.42.21.66-.03.24-.15.46-.34.6-.25.19-.48.3-.69.39-.11.05-.22.1-.34.17-18.91,15.64-38.75,32.21-64.33,53.71-.16.14-.36.2-.56.2Z"/>
              <path class="cls-4" d="M233.35,31.89c-.08,0-.17-.01-.25-.04-17.71-5.33-36.24-8.03-55.06-8.03-13.42,0-26.88,1.4-40,4.17-.06.01-.12.02-.18.02-.19,0-.37-.06-.52-.18-.2-.15-.32-.38-.34-.63-1.13-17.75,1.55-23.7,20.53-26.36,8.09-1.13,15.96-1.71,23.39-1.71,4.97,0,9.78.26,14.29.77,12.58,1.38,41.57,7.19,39.01,31.21-.03.26-.17.49-.38.63-.14.1-.31.14-.48.14Z"/>
              <path class="cls-4" d="M192.59,436.41c-21.82,0-43.9-.92-62.62-1.83-2.81-.14-5.61-.25-8.39-.35-16.99-.62-33.03-1.2-47.59-10.97-18.23-12.35-17.89-38.07-16.05-56.35.03-.31.23-.59.52-.71.11-.05.22-.07.34-.07.19,0,.38.06.54.19,34.13,27.03,75.17,41.32,118.7,41.32s84.29-14.4,117.85-40.54c.15-.12.34-.18.53-.18.11,0,.21.02.32.06.28.11.49.37.54.67,1.74,10.83,5.97,47.1-12.64,59.2-4.34,2.84-9.78,3.91-15.01,4.63-23.03,3.32-48.23,4.94-77.03,4.94Z"/>
              <path class="cls-4" d="M329.08,405.26c-4.51,0-9.08-.08-13.51-.16-.25,0-.49-.12-.65-.31-.16-.19-.23-.45-.19-.69.74-4.57,1.15-9.46,1.23-14.54,0-.47.39-.85.87-.85h.01c4.28.06,8.08.09,11.63.09,21.57,0,46.94-.91,71.6-7.66,2.86-.8,6.77-1.89,8.77-3.89,1.79-1.71,2.9-4.74,3.59-6.87,4.75-14.07,4.76-44.65,4.62-54.9-19.65-2.51-34.38-19.05-34.38-38.78,0-21.65,17.62-39.27,39.27-39.27s39.27,17.62,39.27,39.27c0,17.3-11.13,32.22-27.76,37.33.34,19.91-.34,46.49-5.41,61.54-1.21,3.7-3.33,9.13-7.74,13.45-4.78,4.62-10.71,6.54-15.89,7.97-26.37,7.27-52.87,8.25-75.33,8.25Z"/>
              <path class="cls-4" d="M186.86,497.37c-13.68,0-27.44-.48-40.92-1.42-2.21-.15-4.44-.29-6.67-.42-24.79-1.51-50.43-3.06-60.87-30.7-2.91-7.71-3.59-16.13-1.98-24.37.05-.26.21-.48.45-.6.13-.07.26-.1.4-.1.12,0,.23.02.34.07,14.85,6.41,30.75,6.95,43.52,7.38h.22c2.57.08,5.22.16,7.87.31,20.82.98,41.31,1.86,62.87,1.86,29.83,0,55.8-1.67,79.39-5.11,3.87-.53,8.95-1.41,14.08-3.44.1-.04.21-.06.32-.06.16,0,.32.04.45.13.23.14.38.39.41.66.94,10.44,1.15,25.59-7.79,36.62-12.97,15.98-36.38,17.15-55.19,18.09-1.49.07-2.96.15-4.39.23-10.82.58-21.75.88-32.5.88Z"/>
            </g>
          </g>
          <g>
            <use transform="translate(-10.19 -10.16) scale(.24)" xlink:href="#image"/>
            <g>
              <path class="cls-3" d="M177.96,248.91c-18.3,0-33.18-14.89-33.18-33.18s14.89-33.18,33.18-33.18c.35,0,.65.05.89.1.14.03.28.06.43.06.09,0,.19.01.28.03.17.04.35.08.52.12.48.12.93.23,1.37.23h.03c.18-.07.43-.15.75-.15.06,0,.12,0,.17.01,16.43,2.21,28.82,16.3,28.82,32.78,0,6.19-1.81,12.32-5.25,17.72-.1.22-.26.4-.45.54-.32.35-.61.78-.88,1.32-.04.07-.08.14-.12.2-6.39,8.51-16.07,13.4-26.56,13.4Z"/>
              <path class="cls-3" d="M167.07,348.05c-29.92-2.49-58.41-15.26-80.22-35.96-.27-.25-.42-.61-.4-.98s.18-.72.46-.96c21.05-17.72,42.43-35.58,63.54-53.07.66-.6,1.2-1.4,1.65-2.46.15-.35.45-.62.81-.73.12-.04.25-.06.38-.06.24,0,.49.07.7.2,3.9,2.48,8.07,4.28,12.74,5.5.58.15.98.68.97,1.29-.63,28.86-.37,57.75.77,85.87.02.37-.13.73-.4.99-.24.23-.57.36-.9.36-.04,0-.07,0-.11,0Z"/>
              <path class="cls-3" d="M208.6,181.89c-.3,0-.61-.11-.85-.32-5.51-4.82-12.19-8.27-19.3-9.95-.58-.14-.99-.64-1-1.24-.62-28.48-.39-57.35.7-85.8.01-.36.17-.69.44-.92.24-.21.54-.33.86-.33.04,0,.07,0,.11,0,28.24,2.44,54.49,13.69,75.92,32.51.54.47.59,1.29.12,1.83l-56.01,63.77c-.26.29-.62.44-.98.44Z"/>
              <path class="cls-3" d="M309.22,208.11c-.06,0-.13,0-.19-.01-28.2-4.14-57.21-7.19-86.24-9.07h-.18c-.2-.01-.45.04-.72.1-.21.05-.42.09-.62.12-.06,0-.12.01-.18.01-.53,0-1.02-.33-1.21-.83-.66-1.72-1.57-3.4-2.53-5.18l-.35-.64c-.26-.48-.19-1.07.17-1.47l57.02-64.85c.24-.28.59-.44.96-.44h.01c.37,0,.71.15.96.42,20.22,22.15,32.43,50.72,34.39,80.46.03.39-.13.77-.42,1.04-.24.22-.56.34-.88.34Z"/>
              <path class="cls-3" d="M153.91,177.16c-.38,0-.75-.16-1-.47-18.23-22.19-38.02-43.05-58.83-62-.28-.25-.43-.62-.42-1,.01-.38.18-.73.48-.97,22.94-18.71,50.82-29,80.61-29.77.01,0,.02,0,.03,0,.35,0,.68.14.92.39.25.26.39.6.37.96-1.12,29.01-1.38,57.59-.77,84.94.02.69-.5,1.27-1.19,1.32-6.96.59-13.53,2.75-19.53,6.41-.21.13-.44.19-.68.19Z"/>
              <path class="cls-3" d="M280.9,299.03c-.33,0-.64-.12-.88-.35-21.49-19.99-42.23-40.31-61.65-60.4-.39-.4-.48-1.01-.21-1.51,3.4-6.42,5.2-13.69,5.2-21.04,0-1.05-.08-2.04-.15-3-.03-.38.11-.75.37-1.01.25-.25.58-.39.92-.39.03,0,.06,0,.08,0,27.92,1.84,56.51,4.92,84.97,9.17.66.1,1.14.68,1.11,1.34-1.22,28.21-11.17,54.74-28.75,76.7-.23.28-.56.46-.92.48-.03,0-.06,0-.09,0Z"/>
              <path class="cls-3" d="M178.04,395.07c-47.92,0-92.96-18.65-126.82-52.51S-1.3,263.65-1.3,215.73s18.65-92.96,52.51-126.82c33.86-33.86,78.9-52.51,126.82-52.51,98.89,0,179.34,80.45,179.34,179.34s-80.45,179.34-179.34,179.34ZM178.04,70.65c-74.22,0-136.2,55.6-144.16,129.32-.02.18-.08.36-.17.51-.45.77-.69,1.57-.76,2.46-.06.81.06,1.63.37,2.36.07.18.11.37.1.56-.05,1.13-.12,2.25-.19,3.36-.13,2.13-.27,4.33-.27,6.51,0,80,65.09,145.09,145.09,145.09s145.09-65.09,145.09-145.09-65.09-145.09-145.09-145.09Z"/>
              <path class="cls-3" d="M132.27,208.26c-.08,0-.17,0-.25-.03-27.47-5.49-55.75-9.06-84.06-10.6-.37-.02-.71-.19-.94-.48-.23-.28-.33-.65-.28-1.01,4.17-27.96,16.77-53.34,36.43-73.41.25-.26.59-.39.93-.39.31,0,.62.11.87.34,20.81,18.88,40.56,39.7,58.7,61.89.4.49.39,1.19-.02,1.67-5.14,5.98-8.63,13.23-10.1,20.96-.07.34-.26.64-.55.83-.22.15-.47.22-.73.22Z"/>
              <path class="cls-3" d="M181.76,348.44c-.7,0-1.27-.55-1.3-1.25-1.05-29.56-1.29-58.17-.7-85.02.01-.67.54-1.22,1.21-1.27,10.72-.73,20.81-5.21,28.43-12.59.25-.24.58-.37.9-.37s.68.13.93.39c20.91,21.48,41.33,41.46,60.69,59.38.26.24.41.58.42.93,0,.35-.13.69-.38.94-24.07,24.07-56.09,37.87-90.17,38.86-.01,0-.03,0-.04,0Z"/>
              <path class="cls-3" d="M77.42,301.82c-.37,0-.74-.16-.99-.46-20.26-23.9-31.42-54.32-31.42-85.63,0-1.14.07-2.24.14-3.3.03-.5.07-1,.09-1.49.02-.34.17-.67.43-.9.24-.22.55-.33.87-.33.02,0,.05,0,.07,0,28.79,1.55,57.54,5.21,85.45,10.89.54.11.96.55,1.03,1.1,1.17,8.73,4.88,16.92,10.71,23.68.23.27.35.63.31.99-.04.36-.23.68-.51.9-.28.21-.55.34-.77.44-.09.04-.18.08-.27.13-18.9,15.63-38.73,32.19-64.3,53.68-.24.2-.54.3-.83.3Z"/>
              <path class="cls-3" d="M233.35,32.32c-.13,0-.25-.02-.37-.06-17.67-5.32-36.16-8.01-54.94-8.01-13.39,0-26.82,1.4-39.92,4.16-.09.02-.18.03-.27.03-.28,0-.56-.09-.79-.26-.3-.23-.49-.58-.51-.95-1.15-18.06,1.58-24.11,20.9-26.81,8.11-1.14,16-1.71,23.45-1.71,4.99,0,9.82.26,14.34.78,26.86,2.95,41.22,14.5,39.39,31.68-.04.38-.25.73-.57.94-.22.14-.47.22-.72.22Z"/>
              <path class="cls-3" d="M192.59,436.85c-21.83,0-43.92-.92-62.64-1.83-2.81-.14-5.61-.25-8.39-.35-17.05-.62-33.16-1.2-47.82-11.04-18.42-12.48-18.09-38.37-16.24-56.75.05-.47.35-.88.79-1.07.16-.07.33-.1.51-.1.29,0,.57.1.81.28,34.05,26.97,75,41.22,118.43,41.22s84.1-14.37,117.58-40.45c.23-.18.51-.27.8-.27.16,0,.32.03.48.09.43.17.73.55.81,1,1.75,10.89,6,47.39-12.83,59.63-4.42,2.89-9.91,3.97-15.19,4.7-23.05,3.33-48.27,4.94-77.08,4.94Z"/>
              <path class="cls-3" d="M329.08,405.7c-4.51,0-9.09-.08-13.52-.16-.38,0-.73-.18-.98-.46-.24-.29-.35-.67-.29-1.04.73-4.55,1.14-9.42,1.22-14.48.01-.71.59-1.28,1.3-1.28h.02c4.28.06,8.08.09,11.63.09,21.54,0,46.88-.91,71.48-7.64,2.81-.78,6.66-1.86,8.58-3.78,1.72-1.65,2.81-4.61,3.48-6.69,3.23-9.56,4.94-29.83,4.61-54.38-19.68-2.69-34.38-19.33-34.38-39.16,0-21.89,17.81-39.7,39.7-39.7s39.7,17.81,39.7,39.7c0,17.39-11.11,32.39-27.75,37.65.33,19.9-.38,46.33-5.44,61.36-1.22,3.74-3.37,9.23-7.85,13.62-4.86,4.7-10.85,6.63-16.08,8.08-26.42,7.29-52.96,8.27-75.44,8.27Z"/>
              <path class="cls-3" d="M186.86,497.8c-13.69,0-27.46-.48-40.95-1.42-2.21-.15-4.44-.29-6.67-.42-24.93-1.51-50.71-3.08-61.25-30.98-2.94-7.78-3.63-16.29-2-24.6.08-.39.32-.72.67-.9.19-.1.4-.15.61-.15.17,0,.35.04.51.11,14.78,6.38,30.63,6.91,43.36,7.34h.22c2.57.08,5.22.16,7.88.31,20.81.98,41.29,1.86,62.84,1.86,29.81,0,55.75-1.67,79.33-5.11,3.85-.53,8.9-1.4,13.98-3.41.16-.06.32-.09.48-.09.24,0,.47.06.68.19.35.21.58.58.61.99.94,10.51,1.15,25.78-7.89,36.93-13.1,16.13-36.61,17.3-55.5,18.25-1.49.07-2.96.15-4.39.23-10.82.58-21.76.88-32.52.88Z"/>
            </g>
          </g>
          <g class="cls-2">
            <use transform="translate(-10.19 -10.16) scale(.24)" xlink:href="#image"/>
            <g>
              <path class="cls-3" d="M177.96,248.91c-18.3,0-33.18-14.89-33.18-33.18s14.89-33.18,33.18-33.18c.35,0,.65.05.89.1.14.03.28.06.43.06.09,0,.19.01.28.03.17.04.35.08.52.12.48.12.93.23,1.37.23h.03c.18-.07.43-.15.75-.15.06,0,.12,0,.17.01,16.43,2.21,28.82,16.3,28.82,32.78,0,6.19-1.81,12.32-5.25,17.72-.1.22-.26.4-.45.54-.32.35-.61.78-.88,1.32-.04.07-.08.14-.12.2-6.39,8.51-16.07,13.4-26.56,13.4Z"/>
              <path class="cls-3" d="M167.07,348.05c-29.92-2.49-58.41-15.26-80.22-35.96-.27-.25-.42-.61-.4-.98s.18-.72.46-.96c21.05-17.72,42.43-35.58,63.54-53.07.66-.6,1.2-1.4,1.65-2.46.15-.35.45-.62.81-.73.12-.04.25-.06.38-.06.24,0,.49.07.7.2,3.9,2.48,8.07,4.28,12.74,5.5.58.15.98.68.97,1.29-.63,28.86-.37,57.75.77,85.87.02.37-.13.73-.4.99-.24.23-.57.36-.9.36-.04,0-.07,0-.11,0Z"/>
              <path class="cls-3" d="M208.6,181.89c-.3,0-.61-.11-.85-.32-5.51-4.82-12.19-8.27-19.3-9.95-.58-.14-.99-.64-1-1.24-.62-28.48-.39-57.35.7-85.8.01-.36.17-.69.44-.92.24-.21.54-.33.86-.33.04,0,.07,0,.11,0,28.24,2.44,54.49,13.69,75.92,32.51.54.47.59,1.29.12,1.83l-56.01,63.77c-.26.29-.62.44-.98.44Z"/>
              <path class="cls-3" d="M309.22,208.11c-.06,0-.13,0-.19-.01-28.2-4.14-57.21-7.19-86.24-9.07h-.18c-.2-.01-.45.04-.72.1-.21.05-.42.09-.62.12-.06,0-.12.01-.18.01-.53,0-1.02-.33-1.21-.83-.66-1.72-1.57-3.4-2.53-5.18l-.35-.64c-.26-.48-.19-1.07.17-1.47l57.02-64.85c.24-.28.59-.44.96-.44h.01c.37,0,.71.15.96.42,20.22,22.15,32.43,50.72,34.39,80.46.03.39-.13.77-.42,1.04-.24.22-.56.34-.88.34Z"/>
              <path class="cls-3" d="M153.91,177.16c-.38,0-.75-.16-1-.47-18.23-22.19-38.02-43.05-58.83-62-.28-.25-.43-.62-.42-1,.01-.38.18-.73.48-.97,22.94-18.71,50.82-29,80.61-29.77.01,0,.02,0,.03,0,.35,0,.68.14.92.39.25.26.39.6.37.96-1.12,29.01-1.38,57.59-.77,84.94.02.69-.5,1.27-1.19,1.32-6.96.59-13.53,2.75-19.53,6.41-.21.13-.44.19-.68.19Z"/>
              <path class="cls-3" d="M280.9,299.03c-.33,0-.64-.12-.88-.35-21.49-19.99-42.23-40.31-61.65-60.4-.39-.4-.48-1.01-.21-1.51,3.4-6.42,5.2-13.69,5.2-21.04,0-1.05-.08-2.04-.15-3-.03-.38.11-.75.37-1.01.25-.25.58-.39.92-.39.03,0,.06,0,.08,0,27.92,1.84,56.51,4.92,84.97,9.17.66.1,1.14.68,1.11,1.34-1.22,28.21-11.17,54.74-28.75,76.7-.23.28-.56.46-.92.48-.03,0-.06,0-.09,0Z"/>
              <path class="cls-3" d="M178.04,395.07c-47.92,0-92.96-18.65-126.82-52.51S-1.3,263.65-1.3,215.73s18.65-92.96,52.51-126.82c33.86-33.86,78.9-52.51,126.82-52.51,98.89,0,179.34,80.45,179.34,179.34s-80.45,179.34-179.34,179.34ZM178.04,70.65c-74.22,0-136.2,55.6-144.16,129.32-.02.18-.08.36-.17.51-.45.77-.69,1.57-.76,2.46-.06.81.06,1.63.37,2.36.07.18.11.37.1.56-.05,1.13-.12,2.25-.19,3.36-.13,2.13-.27,4.33-.27,6.51,0,80,65.09,145.09,145.09,145.09s145.09-65.09,145.09-145.09-65.09-145.09-145.09-145.09Z"/>
              <path class="cls-3" d="M132.27,208.26c-.08,0-.17,0-.25-.03-27.47-5.49-55.75-9.06-84.06-10.6-.37-.02-.71-.19-.94-.48-.23-.28-.33-.65-.28-1.01,4.17-27.96,16.77-53.34,36.43-73.41.25-.26.59-.39.93-.39.31,0,.62.11.87.34,20.81,18.88,40.56,39.7,58.7,61.89.4.49.39,1.19-.02,1.67-5.14,5.98-8.63,13.23-10.1,20.96-.07.34-.26.64-.55.83-.22.15-.47.22-.73.22Z"/>
              <path class="cls-3" d="M181.76,348.44c-.7,0-1.27-.55-1.3-1.25-1.05-29.56-1.29-58.17-.7-85.02.01-.67.54-1.22,1.21-1.27,10.72-.73,20.81-5.21,28.43-12.59.25-.24.58-.37.9-.37s.68.13.93.39c20.91,21.48,41.33,41.46,60.69,59.38.26.24.41.58.42.93,0,.35-.13.69-.38.94-24.07,24.07-56.09,37.87-90.17,38.86-.01,0-.03,0-.04,0Z"/>
              <path class="cls-3" d="M77.42,301.82c-.37,0-.74-.16-.99-.46-20.26-23.9-31.42-54.32-31.42-85.63,0-1.14.07-2.24.14-3.3.03-.5.07-1,.09-1.49.02-.34.17-.67.43-.9.24-.22.55-.33.87-.33.02,0,.05,0,.07,0,28.79,1.55,57.54,5.21,85.45,10.89.54.11.96.55,1.03,1.1,1.17,8.73,4.88,16.92,10.71,23.68.23.27.35.63.31.99-.04.36-.23.68-.51.9-.28.21-.55.34-.77.44-.09.04-.18.08-.27.13-18.9,15.63-38.73,32.19-64.3,53.68-.24.2-.54.3-.83.3Z"/>
              <path class="cls-3" d="M233.35,32.32c-.13,0-.25-.02-.37-.06-17.67-5.32-36.16-8.01-54.94-8.01-13.39,0-26.82,1.4-39.92,4.16-.09.02-.18.03-.27.03-.28,0-.56-.09-.79-.26-.3-.23-.49-.58-.51-.95-1.15-18.06,1.58-24.11,20.9-26.81,8.11-1.14,16-1.71,23.45-1.71,4.99,0,9.82.26,14.34.78,26.86,2.95,41.22,14.5,39.39,31.68-.04.38-.25.73-.57.94-.22.14-.47.22-.72.22Z"/>
              <path class="cls-3" d="M192.59,436.85c-21.83,0-43.92-.92-62.64-1.83-2.81-.14-5.61-.25-8.39-.35-17.05-.62-33.16-1.2-47.82-11.04-18.42-12.48-18.09-38.37-16.24-56.75.05-.47.35-.88.79-1.07.16-.07.33-.1.51-.1.29,0,.57.1.81.28,34.05,26.97,75,41.22,118.43,41.22s84.1-14.37,117.58-40.45c.23-.18.51-.27.8-.27.16,0,.32.03.48.09.43.17.73.55.81,1,1.75,10.89,6,47.39-12.83,59.63-4.42,2.89-9.91,3.97-15.19,4.7-23.05,3.33-48.27,4.94-77.08,4.94Z"/>
              <path class="cls-3" d="M329.08,405.7c-4.51,0-9.09-.08-13.52-.16-.38,0-.73-.18-.98-.46-.24-.29-.35-.67-.29-1.04.73-4.55,1.14-9.42,1.22-14.48.01-.71.59-1.28,1.3-1.28h.02c4.28.06,8.08.09,11.63.09,21.54,0,46.88-.91,71.48-7.64,2.81-.78,6.66-1.86,8.58-3.78,1.72-1.65,2.81-4.61,3.48-6.69,3.23-9.56,4.94-29.83,4.61-54.38-19.68-2.69-34.38-19.33-34.38-39.16,0-21.89,17.81-39.7,39.7-39.7s39.7,17.81,39.7,39.7c0,17.39-11.11,32.39-27.75,37.65.33,19.9-.38,46.33-5.44,61.36-1.22,3.74-3.37,9.23-7.85,13.62-4.86,4.7-10.85,6.63-16.08,8.08-26.42,7.29-52.96,8.27-75.44,8.27Z"/>
              <path class="cls-3" d="M186.86,497.8c-13.69,0-27.46-.48-40.95-1.42-2.21-.15-4.44-.29-6.67-.42-24.93-1.51-50.71-3.08-61.25-30.98-2.94-7.78-3.63-16.29-2-24.6.08-.39.32-.72.67-.9.19-.1.4-.15.61-.15.17,0,.35.04.51.11,14.78,6.38,30.63,6.91,43.36,7.34h.22c2.57.08,5.22.16,7.88.31,20.81.98,41.29,1.86,62.84,1.86,29.81,0,55.75-1.67,79.33-5.11,3.85-.53,8.9-1.4,13.98-3.41.16-.06.32-.09.48-.09.24,0,.47.06.68.19.35.21.58.58.61.99.94,10.51,1.15,25.78-7.89,36.93-13.1,16.13-36.61,17.3-55.5,18.25-1.49.07-2.96.15-4.39.23-10.82.58-21.76.88-32.52.88Z"/>
            </g>
          </g>
        </g>
      </g>
    </g>
  </g>
</svg>