<?xml version="1.0" encoding="UTF-8"?>
<svg xmlns="http://www.w3.org/2000/svg" xmlns:xlink="http://www.w3.org/1999/xlink" viewBox="0 -5 480.97 501.29">
  <defs>
    <style>
      .cls-1 {
        isolation: isolate;
      }

      .cls-2 {
        mix-blend-mode: overlay;
      }

      .cls-3 {
        stroke: #fff;
      }

      .cls-3, .cls-4 {
        fill: none;
        stroke-width: 1.82px;
      }

      .cls-4 {
        stroke: #fff;
      }
    </style>
  </defs>
  <g class="cls-1">
    <g id="Capa_2" data-name="Capa 2">
      <g id="effects">
        <g>
          <g>
            <path d="M146.61,367.9c10.94,0,20.17-15.28,20.17-33.36s-9.23-33.36-20.17-33.36-20.17,15.28-20.17,33.36,9.23,33.36,20.17,33.36Z"/>
            <path d="M2.16,119.58c-3.65,43.99-1.86,88.05-.54,132.11.85,28.86-9.08,85.72,13.5,108.45,14.58,14.66,111.63,47.86,139.09,60.43,21.72,9.93,43.52,20.01,66.4,27.07,2.72.85,5.43,1.4,8.15,1.94V191.72c-74.71-27.85-148.79-58.88-220.78-92.24-3.1,5.82-5.2,12.41-5.82,20.09h0ZM146.61,286.52c19.55,0,34.83,21.1,34.83,48.1s-15.28,48.1-34.83,48.1-34.83-21.1-34.83-48.1,15.28-48.1,34.83-48.1ZM77.64,182.1c19.55,0,34.83,21.1,34.83,48.1s-15.28,48.1-34.83,48.1-34.83-21.1-34.83-48.1c-.08-27,15.28-48.1,34.83-48.1Z"/>
            <path d="M77.64,263.56c10.94,0,20.17-15.28,20.17-33.36s-9.23-33.36-20.17-33.36-20.17,15.28-20.17,33.36,9.23,33.36,20.17,33.36Z"/>
            <path d="M181.9,82.03c3.8,3.65,21.88,10.47,54.15,10.47s50.42-6.9,54.15-10.47c-3.8-3.65-21.88-10.47-54.15-10.47s-50.35,6.9-54.15,10.47h0Z"/>
            <path d="M453.88,76.29c-16.21-14.27-51.82-21.95-70.59-29.25-26.22-10.16-52.83-19.47-79.83-27.23-33.51-9.62-65.09-27.46-100.54-16.21-40.42,12.88-79.59,30.49-118.07,48.17-22.26,10.24-50.73,18.31-67.88,35.61,71.29,33.05,144.68,63.77,218.69,91.23,41.35-19.47,82.77-38.94,124.2-58.34,31.42-14.58,62.68-29.25,94.02-43.99h0ZM236.13,107.24c-25.76,0-69.35-5.28-69.35-25.21s43.6-25.21,69.35-25.21,69.35,5.28,69.35,25.21-43.6,25.21-69.35,25.21Z"/>
            <path d="M298.11,319.1c-10.94,0-20.17,15.28-20.17,33.36s9.23,33.36,20.17,33.36,20.17-15.28,20.17-33.36-9.23-33.36-20.17-33.36Z"/>
            <path d="M470.95,312.66c-.31-35.06-1.4-69.74-2.64-104.57-.85-22.81-1.78-45.69-2.72-68.73-.54-14.58,2.02-35.68-3.49-50.66-31.96,15.05-63.92,30.02-95.96,44.99-40.96,19.16-81.84,38.32-122.72,57.56v259.26c27.07-.7,53.6-15.05,78.58-24.75,40.65-15.83,80.76-33.05,120.24-51.59,31.88-14.97,29.01-28.63,28.7-61.52h0ZM298.11,400.55c-19.55,0-34.83-21.1-34.83-48.1s15.28-48.1,34.83-48.1,34.83,21.1,34.83,48.1-15.28,48.1-34.83,48.1ZM353.11,318.95c-19.55,0-34.83-21.1-34.83-48.1s15.28-48.1,34.83-48.1,34.83,21.1,34.83,48.1-15.28,48.1-34.83,48.1h0ZM408.12,237.41c-19.55,0-34.83-21.1-34.83-48.1s15.28-48.1,34.83-48.1,34.83,21.1,34.83,48.1-15.28,48.1-34.83,48.1Z"/>
            <path d="M408.12,155.96c-10.94,0-20.17,15.28-20.17,33.36s9.23,33.36,20.17,33.36,20.17-15.28,20.17-33.36c-.08-18.08-9.31-33.36-20.17-33.36h0Z"/>
            <path d="M353.11,237.57c-10.94,0-20.17,15.28-20.17,33.36s9.23,33.36,20.17,33.36,20.17-15.28,20.17-33.36c-.08-18.08-9.31-33.36-20.17-33.36Z"/>
          </g>
          <g>
            <g>
              <path class="cls-4" d="M146.61,368.76c-11.4,0-21.04-15.67-21.04-34.22s9.63-34.22,21.04-34.22,21.04,15.67,21.04,34.22-9.63,34.22-21.04,34.22Z"/>
              <path class="cls-4" d="M228.76,450.45c-.06,0-.11,0-.17-.02-2.69-.54-5.47-1.1-8.23-1.96-22.19-6.84-43.63-16.65-64.37-26.14l-2.13-.97c-8.73-3.99-24.37-10.03-42.48-17.01-38.67-14.92-86.8-33.48-96.87-43.6C-3.05,343.08-1.28,305.75.13,275.76c.42-8.9.82-17.31.62-24.05l-.32-10.46c-1.23-39.92-2.5-81.19.86-121.74.6-7.4,2.53-14.09,5.92-20.43.16-.29.46-.46.77-.46.12,0,.25.03.36.08,72.74,33.71,147,64.73,220.72,92.21.34.13.56.45.56.81v257.86c0,.26-.12.51-.32.67-.16.13-.35.2-.55.2ZM146.61,287.38c-19.05,0-33.97,20.75-33.97,47.23s14.92,47.23,33.97,47.23,33.96-20.75,33.96-47.23-14.92-47.23-33.96-47.23ZM77.64,182.97c-7.35,0-14.31,3.08-20.11,8.89-8.85,8.88-13.9,22.85-13.86,38.34,0,26.49,14.92,47.23,33.97,47.23s33.96-20.75,33.96-47.23-14.92-47.23-33.96-47.23Z"/>
              <path class="cls-4" d="M77.64,264.42c-11.4,0-21.04-15.67-21.04-34.22s9.63-34.22,21.04-34.22,21.04,15.67,21.04,34.22-9.63,34.22-21.04,34.22Z"/>
              <path class="cls-4" d="M236.05,93.37c-31.75,0-50.43-6.57-54.75-10.71-.17-.16-.27-.39-.27-.63,0-.24.1-.46.27-.63,4.41-4.14,23.17-10.71,54.74-10.71s50.43,6.57,54.75,10.71c.17.16.27.39.27.62s-.1.46-.27.63c-3.65,3.5-21.83,10.71-54.75,10.71Z"/>
              <path class="cls-4" d="M235.66,179.48c-.1,0-.2-.02-.3-.05-72.8-27.01-146.39-57.72-218.75-91.26-.26-.12-.44-.35-.49-.63s.04-.56.24-.76c12.92-13.04,31.94-20.77,50.33-28.25,6.26-2.55,12.17-4.95,17.8-7.54C123.96,32.85,162.69,15.51,202.66,2.77c7.72-2.45,15.5-3.64,23.79-3.64,18.76,0,37.08,6.36,54.79,12.5,7.33,2.54,14.91,5.17,22.46,7.34,24.93,7.16,51.06,16.08,79.9,27.25,5.21,2.02,11.82,4.11,18.81,6.31,17.92,5.65,40.22,12.68,52.04,23.09.22.19.33.48.29.77-.04.29-.22.54-.49.66-27.63,12.99-60.41,28.38-94.03,43.99-37.45,17.54-76.92,36.07-124.19,58.33-.12.05-.24.08-.37.08ZM236.13,57.68c-25.44,0-68.49,5.13-68.49,24.35s43.05,24.35,68.49,24.35,68.49-5.13,68.49-24.35-43.05-24.35-68.49-24.35Z"/>
              <path class="cls-4" d="M298.11,386.68c-11.4,0-21.04-15.67-21.04-34.22s9.63-34.22,21.04-34.22,21.04,15.67,21.04,34.22-9.63,34.22-21.04,34.22Z"/>
              <path class="cls-4" d="M243.42,451.38c-.23,0-.44-.09-.6-.25-.17-.16-.26-.39-.26-.62V191.26c0-.34.19-.64.5-.78,36.98-17.4,75.98-35.69,122.73-57.56,36.67-17.14,67.16-31.43,95.96-44.99.12-.05.24-.08.37-.08.11,0,.22.02.33.06.23.09.4.27.48.5,4.06,11.04,3.8,25.28,3.57,37.84-.09,4.69-.17,9.13-.02,13.08l.24,6c.83,20.6,1.69,41.9,2.47,62.73,1.18,33.23,2.32,68.89,2.64,104.6.02,2.5.06,4.9.1,7.19.45,28.19.66,41.05-29.3,55.12-39.51,18.55-79.99,35.92-120.3,51.61-5.57,2.16-11.1,4.51-16.95,6.99-20.03,8.49-40.74,17.27-61.93,17.82,0,0-.01,0-.02,0ZM298.11,305.23c-19.05,0-33.96,20.75-33.96,47.23s14.92,47.23,33.96,47.23,33.97-20.75,33.97-47.23-14.92-47.23-33.97-47.23ZM353.11,223.62c-19.05,0-33.97,20.75-33.97,47.23s14.92,47.23,33.97,47.23,33.96-20.75,33.96-47.23-14.92-47.23-33.96-47.23ZM408.12,142.09c-19.05,0-33.97,20.75-33.97,47.23s14.92,47.23,33.97,47.23,33.96-20.75,33.96-47.23-14.92-47.23-33.96-47.23Z"/>
              <path class="cls-4" d="M408.12,223.54c-11.4,0-21.04-15.67-21.04-34.22s9.63-34.22,21.04-34.22c11.32,0,20.96,15.67,21.04,34.22,0,18.56-9.63,34.23-21.04,34.23Z"/>
              <path class="cls-4" d="M353.11,305.15c-11.4,0-21.04-15.67-21.04-34.22s9.63-34.22,21.04-34.22,20.96,15.67,21.04,34.22c0,18.56-9.63,34.23-21.04,34.23Z"/>
            </g>
          </g>
          <g>
            <use transform="translate(-10.02 -10.22) scale(.24)" xlink:href="#image"/>
            <g>
              <path class="cls-3" d="M146.61,369.19c-11.64,0-21.47-15.87-21.47-34.66s9.83-34.66,21.47-34.66,21.47,15.87,21.47,34.66-9.83,34.66-21.47,34.66Z"/>
              <path class="cls-3" d="M228.76,450.88c-.08,0-.17,0-.25-.02-2.7-.54-5.5-1.1-8.28-1.97-22.21-6.85-43.67-16.67-64.42-26.16l-2.13-.97c-8.71-3.99-24.35-10.02-42.45-17-38.71-14.93-86.89-33.51-97.02-43.7C-3.49,343.25-1.72,305.82-.3,275.74c.42-8.9.82-17.3.62-24.01L0,241.26c-1.23-39.93-2.5-81.22.87-121.79.6-7.46,2.56-14.2,5.97-20.6.23-.44.68-.69,1.15-.69.18,0,.37.04.54.12,72.73,33.7,146.99,64.72,220.69,92.2.51.19.84.67.84,1.22v257.86c0,.39-.17.76-.48,1-.23.19-.53.29-.82.29ZM146.61,287.82c-18.8,0-33.53,20.56-33.53,46.8s14.73,46.8,33.53,46.8,33.53-20.56,33.53-46.8-14.73-46.8-33.53-46.8ZM77.64,183.4c-7.24,0-14.08,3.03-19.8,8.77-8.77,8.8-13.78,22.66-13.73,38.03,0,26.25,14.73,46.8,33.53,46.8s33.53-20.56,33.53-46.8-14.73-46.8-33.53-46.8Z"/>
              <path class="cls-3" d="M77.64,264.86c-11.64,0-21.47-15.87-21.47-34.66s9.83-34.66,21.47-34.66,21.47,15.87,21.47,34.66-9.83,34.66-21.47,34.66Z"/>
              <path class="cls-3" d="M236.05,93.8c-31.88,0-50.68-6.65-55.05-10.83-.26-.25-.4-.59-.4-.94,0-.36.15-.7.41-.94,4.46-4.19,23.34-10.82,55.04-10.82s50.68,6.65,55.05,10.83c.26.25.4.58.4.94s-.14.69-.4.94c-4.37,4.19-23.18,10.83-55.05,10.83Z"/>
              <path class="cls-3" d="M235.66,179.91c-.15,0-.31-.03-.45-.08-72.81-27.02-146.42-57.72-218.78-91.27-.38-.18-.66-.53-.73-.95-.08-.42.06-.84.36-1.14,12.99-13.1,32.05-20.85,50.48-28.35,6.26-2.54,12.17-4.95,17.78-7.53C123.79,32.45,162.53,15.11,202.53,2.36c7.76-2.46,15.59-3.66,23.92-3.66,18.84,0,37.19,6.37,54.93,12.53,7.32,2.54,14.9,5.17,22.44,7.34,24.94,7.17,51.09,16.09,79.94,27.27,5.2,2.02,11.8,4.1,18.78,6.3,18.89,5.96,40.3,12.71,52.2,23.18.33.29.49.72.43,1.16-.06.43-.34.81-.73.99-27.63,12.99-60.41,28.38-94.03,43.99-37.45,17.53-76.92,36.07-124.19,58.33-.17.08-.36.12-.55.12ZM236.13,58.12c-23.54,0-68.05,5-68.05,23.91s44.52,23.91,68.05,23.91,68.05-5,68.05-23.91-44.52-23.91-68.05-23.91Z"/>
              <path class="cls-3" d="M298.11,387.11c-11.64,0-21.47-15.87-21.47-34.66s9.83-34.66,21.47-34.66,21.47,15.87,21.47,34.66-9.83,34.66-21.47,34.66Z"/>
              <path class="cls-3" d="M243.42,451.81c-.34,0-.66-.13-.91-.37-.25-.24-.39-.58-.39-.93V191.26c0-.5.29-.96.75-1.18,36.98-17.4,75.98-35.69,122.73-57.56,36.67-17.14,67.16-31.43,95.96-44.99.17-.08.36-.12.55-.12.17,0,.33.03.49.1.34.14.6.41.73.75,4.09,11.12,3.83,25.4,3.59,38-.09,4.69-.17,9.11-.02,13.06l.24,6c.83,20.6,1.69,41.91,2.47,62.73,1.18,33.23,2.32,68.9,2.64,104.61.02,2.5.06,4.9.1,7.19.44,27.52.67,41.33-29.55,55.52-39.52,18.56-80,35.93-120.32,51.62-5.57,2.16-11.09,4.5-16.94,6.98-20.07,8.51-40.82,17.31-62.09,17.85-.01,0-.02,0-.03,0ZM298.11,305.66c-18.8,0-33.53,20.56-33.53,46.8s14.73,46.8,33.53,46.8,33.53-20.56,33.53-46.8-14.73-46.8-33.53-46.8ZM353.11,224.05c-18.8,0-33.53,20.56-33.53,46.8s14.73,46.8,33.53,46.8,33.53-20.56,33.53-46.8-14.73-46.8-33.53-46.8ZM408.12,142.52c-18.8,0-33.53,20.56-33.53,46.8s14.73,46.8,33.53,46.8,33.53-20.56,33.53-46.8-14.73-46.8-33.53-46.8Z"/>
              <path class="cls-3" d="M408.12,223.97c-11.64,0-21.47-15.87-21.47-34.66s9.83-34.66,21.47-34.66c11.56,0,21.39,15.87,21.47,34.65,0,18.79-9.83,34.66-21.47,34.66Z"/>
              <path class="cls-3" d="M353.11,305.58c-11.64,0-21.47-15.87-21.47-34.66s9.83-34.66,21.47-34.66,21.39,15.87,21.47,34.65c0,18.79-9.83,34.66-21.47,34.66Z"/>
            </g>
          </g>
          <g class="cls-2">
            <use transform="translate(-10.02 -10.22) scale(.24)" xlink:href="#image"/>
            <g>
              <path class="cls-3" d="M146.61,369.19c-11.64,0-21.47-15.87-21.47-34.66s9.83-34.66,21.47-34.66,21.47,15.87,21.47,34.66-9.83,34.66-21.47,34.66Z"/>
              <path class="cls-3" d="M228.76,450.88c-.08,0-.17,0-.25-.02-2.7-.54-5.5-1.1-8.28-1.97-22.21-6.85-43.67-16.67-64.42-26.16l-2.13-.97c-8.71-3.99-24.35-10.02-42.45-17-38.71-14.93-86.89-33.51-97.02-43.7C-3.49,343.25-1.72,305.82-.3,275.74c.42-8.9.82-17.3.62-24.01L0,241.26c-1.23-39.93-2.5-81.22.87-121.79.6-7.46,2.56-14.2,5.97-20.6.23-.44.68-.69,1.15-.69.18,0,.37.04.54.12,72.73,33.7,146.99,64.72,220.69,92.2.51.19.84.67.84,1.22v257.86c0,.39-.17.76-.48,1-.23.19-.53.29-.82.29ZM146.61,287.82c-18.8,0-33.53,20.56-33.53,46.8s14.73,46.8,33.53,46.8,33.53-20.56,33.53-46.8-14.73-46.8-33.53-46.8ZM77.64,183.4c-7.24,0-14.08,3.03-19.8,8.77-8.77,8.8-13.78,22.66-13.73,38.03,0,26.25,14.73,46.8,33.53,46.8s33.53-20.56,33.53-46.8-14.73-46.8-33.53-46.8Z"/>
              <path class="cls-3" d="M77.64,264.86c-11.64,0-21.47-15.87-21.47-34.66s9.83-34.66,21.47-34.66,21.47,15.87,21.47,34.66-9.83,34.66-21.47,34.66Z"/>
              <path class="cls-3" d="M236.05,93.8c-31.88,0-50.68-6.65-55.05-10.83-.26-.25-.4-.59-.4-.94,0-.36.15-.7.41-.94,4.46-4.19,23.34-10.82,55.04-10.82s50.68,6.65,55.05,10.83c.26.25.4.58.4.94s-.14.69-.4.94c-4.37,4.19-23.18,10.83-55.05,10.83Z"/>
              <path class="cls-3" d="M235.66,179.91c-.15,0-.31-.03-.45-.08-72.81-27.02-146.42-57.72-218.78-91.27-.38-.18-.66-.53-.73-.95-.08-.42.06-.84.36-1.14,12.99-13.1,32.05-20.85,50.48-28.35,6.26-2.54,12.17-4.95,17.78-7.53C123.79,32.45,162.53,15.11,202.53,2.36c7.76-2.46,15.59-3.66,23.92-3.66,18.84,0,37.19,6.37,54.93,12.53,7.32,2.54,14.9,5.17,22.44,7.34,24.94,7.17,51.09,16.09,79.94,27.27,5.2,2.02,11.8,4.1,18.78,6.3,18.89,5.96,40.3,12.71,52.2,23.18.33.29.49.72.43,1.16-.06.43-.34.81-.73.99-27.63,12.99-60.41,28.38-94.03,43.99-37.45,17.53-76.92,36.07-124.19,58.33-.17.08-.36.12-.55.12ZM236.13,58.12c-23.54,0-68.05,5-68.05,23.91s44.52,23.91,68.05,23.91,68.05-5,68.05-23.91-44.52-23.91-68.05-23.91Z"/>
              <path class="cls-3" d="M298.11,387.11c-11.64,0-21.47-15.87-21.47-34.66s9.83-34.66,21.47-34.66,21.47,15.87,21.47,34.66-9.83,34.66-21.47,34.66Z"/>
              <path class="cls-3" d="M243.42,451.81c-.34,0-.66-.13-.91-.37-.25-.24-.39-.58-.39-.93V191.26c0-.5.29-.96.75-1.18,36.98-17.4,75.98-35.69,122.73-57.56,36.67-17.14,67.16-31.43,95.96-44.99.17-.08.36-.12.55-.12.17,0,.33.03.49.1.34.14.6.41.73.75,4.09,11.12,3.83,25.4,3.59,38-.09,4.69-.17,9.11-.02,13.06l.24,6c.83,20.6,1.69,41.91,2.47,62.73,1.18,33.23,2.32,68.9,2.64,104.61.02,2.5.06,4.9.1,7.19.44,27.52.67,41.33-29.55,55.52-39.52,18.56-80,35.93-120.32,51.62-5.57,2.16-11.09,4.5-16.94,6.98-20.07,8.51-40.82,17.31-62.09,17.85-.01,0-.02,0-.03,0ZM298.11,305.66c-18.8,0-33.53,20.56-33.53,46.8s14.73,46.8,33.53,46.8,33.53-20.56,33.53-46.8-14.73-46.8-33.53-46.8ZM353.11,224.05c-18.8,0-33.53,20.56-33.53,46.8s14.73,46.8,33.53,46.8,33.53-20.56,33.53-46.8-14.73-46.8-33.53-46.8ZM408.12,142.52c-18.8,0-33.53,20.56-33.53,46.8s14.73,46.8,33.53,46.8,33.53-20.56,33.53-46.8-14.73-46.8-33.53-46.8Z"/>
              <path class="cls-3" d="M408.12,223.97c-11.64,0-21.47-15.87-21.47-34.66s9.83-34.66,21.47-34.66c11.56,0,21.39,15.87,21.47,34.65,0,18.79-9.83,34.66-21.47,34.66Z"/>
              <path class="cls-3" d="M353.11,305.58c-11.64,0-21.47-15.87-21.47-34.66s9.83-34.66,21.47-34.66,21.39,15.87,21.47,34.65c0,18.79-9.83,34.66-21.47,34.66Z"/>
            </g>
          </g>
        </g>
      </g>
    </g>
  </g>
</svg>