<?xml version="1.0" encoding="UTF-8"?>
<svg xmlns="http://www.w3.org/2000/svg" xmlns:xlink="http://www.w3.org/1999/xlink" viewBox="0 -5 480.97 501.29">
  <defs>
    <style>
      .cls-1 {
        isolation: isolate;
      }

      .cls-2 {
        mix-blend-mode: overlay;
      }

      .cls-3 {
        stroke: #fff;
      }

      .cls-3, .cls-4 {
        fill: none;
        stroke-width: 1.82px;
      }

      .cls-4 {
        stroke: #fff;
      }
    </style>
  </defs>
  <g class="cls-1">
    <g id="Capa_2" data-name="Capa 2">
      <g id="effects">
        <g>
          <g>
            <path d="M263.68,448.31v-17.61H122.41v17.61h-35.84l-24.51,32.66h261.9l-24.51-32.66h-35.76Z"/>
            <path d="M220.32,27.23c0-15.05-12.26-27.23-27.31-27.23s-27.23,12.18-27.23,27.23,27.23,64.31,27.23,64.31c0,0,27.31-49.18,27.31-64.31Z"/>
            <path d="M321.24,148.32l-79.83,33.05c1.86,7.68,1.86,15.67,0,23.35l79.75,33.05c10.16-29.17,10.24-60.35.08-89.44h0Z"/>
            <path d="M252.04,70.83l-33.05,79.75c6.75,4.11,12.41,9.7,16.52,16.45l79.83-33.05c-13.42-27.69-35.53-49.73-63.3-63.15h0Z"/>
            <path d="M64.85,237.77l79.75-33.05c-1.86-7.68-1.86-15.59,0-23.27l-31.34-13.03-48.33-20.01c-10.24,29.09-10.24,60.28-.08,89.37h0Z"/>
            <path d="M161.28,206.2c3.49,8.46,10.08,14.97,18.54,18.54,8.46,3.49,17.76,3.49,26.22,0s15.05-10.08,18.54-18.54c3.49-8.53,3.57-17.84,0-26.22-3.49-8.46-10.08-15.05-18.54-18.54s-17.76-3.57-26.22-.08c-8.46,3.57-14.97,10.16-18.54,18.62-3.41,8.46-3.41,17.76,0,26.22h0ZM193.09,169.81c12.8,0,23.27,10.4,23.27,23.27s-10.47,23.27-23.27,23.27-23.27-10.47-23.27-23.27,10.4-23.27,23.27-23.27Z"/>
            <path d="M228.54,3.34c4.58,6.83,7.29,15.05,7.29,23.97,0,5.04-1.71,11.87-4.5,19.47,6.59,1.71,13.11,3.96,19.55,6.59,37.39,15.44,66.48,44.53,81.92,81.76,15.44,37.31,15.44,78.43-.08,115.82-15.44,37.31-44.53,66.4-81.84,81.84-18.62,7.68-38.17,11.56-57.72,11.56s-39.25-3.88-57.95-11.64c-37.39-15.44-66.48-44.53-81.92-81.76-15.44-37.31-15.44-78.43.08-115.82,15.44-37.31,44.53-66.33,81.76-81.76,6.44-2.72,12.96-4.89,19.63-6.59-2.79-7.6-4.5-14.43-4.5-19.47,0-8.92,2.72-17.14,7.37-23.97C67.88,19.86,0,98.52,0,193.01c0,106.67,86.42,193.09,193.09,193.09s193.01-86.42,193.01-193.09c-.08-94.49-67.96-173.07-157.56-189.67h0ZM317.52,79.52c-3.03,3.03-7.91,3.03-10.94,0s-3.03-7.91,0-10.94,7.91-3.03,10.94,0c2.95,3.03,2.95,7.91,0,10.94ZM68.58,68.58c3.03-3.03,7.91-3.03,10.94,0s3.03,7.91,0,10.94-7.91,3.03-10.94,0-3.03-7.91,0-10.94ZM24.75,200.84c-4.27,0-7.76-3.49-7.76-7.76s3.49-7.76,7.76-7.76,7.76,3.41,7.76,7.76-3.41,7.76-7.76,7.76ZM79.52,317.52c-3.03,3.03-7.91,3.03-10.94,0s-3.03-7.91,0-10.94,7.91-3.03,10.94,0,3.03,7.91,0,10.94ZM193.09,369.11c-4.27,0-7.76-3.49-7.76-7.76s3.49-7.76,7.76-7.76,7.76,3.49,7.76,7.76-3.49,7.76-7.76,7.76ZM317.52,317.52c-3.03,3.03-7.91,3.03-10.94,0s-3.03-7.91,0-10.94,7.91-3.03,10.94,0c2.95,3.03,2.95,7.91,0,10.94ZM361.35,200.84c-4.27,0-7.76-3.49-7.76-7.76s3.49-7.76,7.76-7.76,7.76,3.41,7.76,7.76-3.49,7.76-7.76,7.76Z"/>
            <path d="M181.37,144.68c3.8-.93,7.68-1.4,11.56-1.4s7.91.47,11.71,1.4l13.96-33.75,19.08-46c-4.03-1.4-8.07-2.64-12.18-3.57-6.36,14.58-14.2,29.32-18.85,37.7l-13.58,24.51-13.58-24.51c-4.65-8.38-12.57-23.2-18.93-37.78-4.11,1.01-8.22,2.25-12.26,3.65l33.05,79.75Z"/>
            <circle cx="193.01" cy="193.09" r="7.76"/>
            <path d="M315.19,252.04l-79.75-33.05c-4.11,6.75-9.7,12.41-16.45,16.52l16.76,40.42,16.29,39.33c27.69-13.34,49.8-35.45,63.15-63.22h0Z"/>
            <path d="M133.97,70.83c-27.69,13.34-49.73,35.45-63.15,63.15l20.48,8.53,59.19,24.51c4.11-6.75,9.7-12.41,16.45-16.52l-16.83-40.65-16.14-39.02Z"/>
            <path d="M237.69,321.24l-33.05-79.75c-7.68,1.86-15.59,1.86-23.27,0l-30.41,73.62-2.56,6.13c29.09,10.16,60.28,10.16,89.29,0h0Z"/>
            <path d="M134.05,315.27l26.22-63.38,6.75-16.29c-6.75-4.11-12.41-9.7-16.52-16.45l-40.42,16.76-39.33,16.29c13.34,27.62,35.45,49.65,63.3,63.07h0Z"/>
            <path d="M193.01,401.61c-8.3,0-16.45-.54-24.44-1.47v15.05h48.95v-15.05c-8.07.93-16.21,1.47-24.51,1.47Z"/>
          </g>
          <g>
            <g>
              <path class="cls-4" d="M62.06,481.84c-.33,0-.63-.19-.77-.48-.15-.29-.12-.64.08-.91l24.51-32.66c.16-.22.42-.35.69-.35h34.97v-16.74c0-.48.39-.87.87-.87h141.27c.48,0,.87.39.87.87v16.74h34.9c.27,0,.53.13.69.35l24.51,32.66c.2.26.23.61.08.91-.15.29-.45.48-.77.48H62.06Z"/>
              <path class="cls-4" d="M193.01,92.41c-.31,0-.6-.17-.76-.45-1.12-2.02-27.34-49.63-27.34-64.73S177.52-.87,193.01-.87s28.17,12.6,28.17,28.1-26.3,62.71-27.42,64.73c-.15.27-.44.45-.76.45h0Z"/>
              <path class="cls-4" d="M321.16,238.64c-.11,0-.23-.02-.33-.07l-79.75-33.05c-.39-.16-.61-.59-.51-1,1.82-7.5,1.82-15.44,0-22.94-.1-.42.12-.84.51-1l79.83-33.05c.11-.04.22-.07.33-.07.12,0,.24.03.35.08.22.1.38.28.46.5,10.25,29.33,10.22,60.46-.08,90.02-.08.23-.25.41-.46.51-.11.05-.23.08-.35.08Z"/>
              <path class="cls-4" d="M235.52,167.89c-.29,0-.58-.15-.74-.42-4.03-6.61-9.49-12.05-16.23-16.16-.37-.22-.51-.68-.35-1.07l33.05-79.75c.09-.22.27-.39.49-.48.1-.04.2-.06.31-.06.13,0,.26.03.38.09,28.11,13.58,50.14,35.56,63.7,63.55.1.21.12.46.03.69-.08.22-.26.4-.48.49l-79.83,33.05c-.11.04-.22.07-.33.07Z"/>
              <path class="cls-4" d="M64.85,238.64c-.12,0-.24-.03-.35-.08-.22-.1-.39-.28-.46-.5-10.29-29.46-10.26-60.56.08-89.94.08-.22.25-.41.46-.5.11-.05.23-.08.35-.08.11,0,.23.02.33.07l48.33,20.01,31.34,13.03c.39.16.61.59.51,1-1.84,7.59-1.84,15.28,0,22.86.1.41-.12.84-.51,1l-79.75,33.05c-.11.04-.22.07-.33.07Z"/>
              <path class="cls-4" d="M192.93,228.22c-4.61,0-9.13-.9-13.44-2.68-8.72-3.68-15.47-10.43-19.01-19.01-3.5-8.67-3.5-18.21,0-26.88,3.67-8.69,10.42-15.47,19.01-19.09,4.26-1.76,8.73-2.65,13.3-2.65s9.21.92,13.59,2.72c8.68,3.58,15.43,10.33,19.01,19.01,3.62,8.49,3.62,18.04,0,26.88-3.58,8.68-10.34,15.43-19.01,19.01-4.31,1.78-8.83,2.68-13.44,2.68ZM193.09,170.68c-12.35,0-22.41,10.05-22.41,22.41s10.05,22.41,22.41,22.41,22.41-10.05,22.41-22.41-10.05-22.41-22.41-22.41Z"/>
              <path class="cls-4" d="M193.09,386.96c-51.82,0-100.53-20.17-137.16-56.8S-.87,244.83-.87,193.01C-.87,99.5,65.73,19.38,157.48,2.48c.05,0,.11-.01.16-.01.29,0,.56.15.73.39.19.29.19.67,0,.96-4.72,6.93-7.22,15.05-7.22,23.48,0,4.69,1.5,11.14,4.45,19.17.08.23.07.48-.05.7-.11.22-.31.38-.55.44-6.79,1.74-13.17,3.88-19.5,6.55-37.1,15.38-65.98,44.25-81.3,81.3-15.41,37.14-15.44,78.03-.08,115.16,15.38,37.09,44.3,65.96,81.45,81.29,18.5,7.68,37.89,11.57,57.62,11.57s38.9-3.87,57.39-11.49c37.12-15.36,66.02-44.26,81.37-81.37,15.41-37.14,15.44-78.03.08-115.16-15.38-37.09-44.3-65.96-81.45-81.29-6.8-2.79-13.16-4.93-19.44-6.56-.24-.06-.44-.22-.55-.44-.11-.22-.13-.47-.05-.7,2.95-8.03,4.45-14.48,4.45-19.17,0-8.39-2.47-16.52-7.15-23.49-.19-.29-.2-.67,0-.96.16-.25.44-.39.72-.39.05,0,.11,0,.16.01,91.63,16.98,158.19,97.1,158.26,190.52,0,106.95-86.97,193.95-193.88,193.95ZM193.09,354.46c-3.8,0-6.89,3.09-6.89,6.89s3.09,6.89,6.89,6.89,6.89-3.09,6.89-6.89-3.09-6.89-6.89-6.89ZM312.05,305.18c-1.83,0-3.56.72-4.86,2.02-2.68,2.68-2.68,7.04,0,9.71,1.3,1.3,3.02,2.02,4.86,2.02s3.56-.72,4.86-2.02c2.61-2.67,2.61-7.04,0-9.72-1.29-1.29-3.02-2.01-4.85-2.01ZM74.05,305.18c-1.83,0-3.56.72-4.86,2.02-2.68,2.68-2.68,7.04,0,9.71,1.3,1.3,3.02,2.02,4.86,2.02s3.56-.72,4.86-2.02c2.68-2.68,2.68-7.04,0-9.71-1.3-1.3-3.02-2.02-4.86-2.02ZM361.35,186.19c-3.8,0-6.89,3.09-6.89,6.89s3.09,6.89,6.89,6.89,6.89-3.09,6.89-6.89-3.09-6.89-6.89-6.89ZM24.75,186.19c-3.8,0-6.89,3.09-6.89,6.89s3.09,6.89,6.89,6.89,6.89-3.09,6.89-6.89-3.03-6.89-6.89-6.89ZM312.05,67.17c-1.83,0-3.56.72-4.86,2.02-2.68,2.68-2.68,7.04,0,9.71,1.3,1.3,3.02,2.02,4.86,2.02s3.56-.72,4.86-2.02c2.61-2.67,2.61-7.04,0-9.72-1.29-1.29-3.02-2.01-4.85-2.01ZM74.05,67.17c-1.83,0-3.56.72-4.86,2.02-2.68,2.68-2.68,7.04,0,9.71,1.3,1.3,3.02,2.02,4.86,2.02s3.56-.72,4.86-2.02c2.68-2.68,2.68-7.04,0-9.71-1.3-1.3-3.02-2.02-4.86-2.02Z"/>
              <path class="cls-4" d="M204.64,145.55c-.07,0-.14,0-.21-.02-3.71-.91-7.59-1.37-11.51-1.37s-7.64.46-11.35,1.37c-.07.02-.14.02-.21.02-.34,0-.66-.21-.8-.53l-33.05-79.75c-.09-.22-.09-.47,0-.69s.28-.39.51-.46c4.23-1.47,8.38-2.7,12.33-3.67.07-.02.14-.02.21-.02.34,0,.65.2.79.52,6.53,14.98,14.64,30.05,18.89,37.71l12.82,23.15,12.82-23.15c3.36-6.05,11.92-21.83,18.81-37.63.14-.32.46-.52.79-.52.06,0,.13,0,.19.02,3.72.84,7.62,1.98,12.27,3.59.23.08.41.25.51.46s.1.47,0,.69l-19.08,46-13.96,33.74c-.14.33-.46.54-.8.54Z"/>
              <path class="cls-4" d="M193.01,201.71c-4.75,0-8.62-3.87-8.62-8.62s3.87-8.62,8.62-8.62,8.62,3.87,8.62,8.62-3.87,8.62-8.62,8.62Z"/>
              <path class="cls-4" d="M252.04,316.13c-.1,0-.21-.02-.31-.06-.22-.08-.4-.26-.49-.48l-16.29-39.33-16.76-40.42c-.16-.39-.02-.85.35-1.07,6.61-4.03,12.05-9.49,16.16-16.23.16-.26.45-.42.74-.42.11,0,.22.02.33.07l79.75,33.05c.22.09.39.27.48.49s.08.47-.03.68c-13.5,28.1-35.48,50.1-63.55,63.63-.12.06-.25.09-.38.09Z"/>
              <path class="cls-4" d="M150.5,167.89c-.11,0-.22-.02-.33-.07l-59.19-24.51-20.48-8.53c-.22-.09-.39-.27-.48-.49-.08-.22-.07-.47.03-.69,13.62-28.11,35.6-50.08,63.55-63.55.12-.06.25-.09.38-.09.1,0,.21.02.31.06.22.08.4.26.49.48l16.14,39.02,16.83,40.65c.16.39.02.85-.35,1.07-6.61,4.03-12.05,9.49-16.16,16.23-.16.26-.45.42-.74.42Z"/>
              <path class="cls-4" d="M193.08,329.73c-15.26,0-30.39-2.58-44.96-7.67-.23-.08-.41-.25-.51-.46-.1-.22-.1-.47,0-.69l2.56-6.13,30.41-73.62c.14-.33.46-.54.8-.54.07,0,.14,0,.2.02,3.75.91,7.6,1.37,11.43,1.37s7.68-.46,11.43-1.37c.07-.02.14-.02.2-.02.34,0,.66.21.8.53l33.05,79.75c.09.22.09.47,0,.69-.1.22-.28.39-.5.46-14.53,5.09-29.64,7.67-44.9,7.67Z"/>
              <path class="cls-4" d="M134.05,316.13c-.13,0-.26-.03-.38-.09-28.17-13.58-50.2-35.53-63.71-63.47-.1-.21-.11-.46-.03-.69.08-.22.26-.4.48-.49l39.33-16.29,40.42-16.76c.11-.04.22-.07.33-.07.29,0,.58.15.74.42,4.03,6.61,9.49,12.05,16.23,16.16.37.22.51.68.35,1.07l-6.75,16.29-26.22,63.38c-.09.22-.27.39-.49.48-.1.04-.2.06-.31.06Z"/>
              <path class="cls-4" d="M168.57,416.05c-.48,0-.87-.39-.87-.87v-15.05c0-.25.11-.48.29-.65.16-.14.37-.22.58-.22.03,0,.07,0,.1,0,8.48.99,16.44,1.47,24.34,1.47s15.85-.48,24.41-1.47c.03,0,.07,0,.1,0,.21,0,.42.08.58.22.18.16.29.4.29.65v15.05c0,.48-.39.87-.87.87h-48.95Z"/>
            </g>
          </g>
          <g>
            <use transform="translate(-10.14 -10.1) scale(.24)" xlink:href="#image"/>
            <g>
              <path class="cls-3" d="M62.06,482.27c-.49,0-.94-.28-1.16-.72-.22-.44-.17-.97.12-1.36l24.51-32.66c.25-.33.63-.52,1.04-.52h34.54v-16.31c0-.72.58-1.3,1.3-1.3h141.27c.72,0,1.3.58,1.3,1.3v16.31h34.46c.41,0,.79.19,1.04.52l24.51,32.66c.3.39.34.92.12,1.36-.22.44-.67.72-1.16.72H62.06Z"/>
              <path class="cls-3" d="M193.01,92.84c-.47,0-.91-.26-1.14-.67-1.12-2.02-27.39-49.73-27.39-64.94S177.28-1.3,193.01-1.3s28.61,12.8,28.61,28.53-26.35,62.92-27.47,64.94c-.23.41-.66.67-1.14.67h0Z"/>
              <path class="cls-3" d="M321.16,239.07c-.17,0-.34-.03-.5-.1l-79.75-33.05c-.59-.25-.92-.88-.77-1.51,1.8-7.44,1.8-15.3,0-22.74-.15-.62.17-1.26.77-1.51l79.83-33.05c.16-.07.33-.1.5-.1.18,0,.36.04.53.11.33.15.58.42.7.76,10.28,29.43,10.25,60.65-.08,90.3-.12.34-.37.61-.7.76-.17.08-.35.11-.53.11Z"/>
              <path class="cls-3" d="M235.52,168.32c-.44,0-.87-.23-1.11-.62-3.99-6.55-9.41-11.94-16.09-16.01-.55-.33-.77-1.02-.52-1.61l33.05-79.75c.14-.33.4-.59.74-.72.15-.06.31-.08.46-.08.19,0,.39.04.57.13,28.2,13.63,50.3,35.67,63.91,63.75.16.32.17.69.04,1.03-.13.33-.39.6-.72.74l-79.83,33.05c-.16.07-.33.1-.5.1Z"/>
              <path class="cls-3" d="M64.85,239.07c-.18,0-.36-.04-.53-.11-.33-.15-.58-.42-.7-.76-10.32-29.55-10.3-60.75.08-90.23.12-.34.37-.61.7-.76.17-.08.35-.11.53-.11.17,0,.34.03.5.1l48.33,20.01,31.34,13.03c.59.25.91.88.76,1.51-1.82,7.52-1.82,15.14,0,22.66.15.62-.17,1.26-.77,1.51l-79.75,33.05c-.16.07-.33.1-.5.1Z"/>
              <path class="cls-3" d="M192.93,228.65c-4.66,0-9.24-.91-13.61-2.72-8.83-3.73-15.66-10.56-19.25-19.25-3.54-8.78-3.54-18.43,0-27.2,3.71-8.8,10.54-15.66,19.24-19.33,4.31-1.78,8.84-2.68,13.47-2.68s9.33.93,13.75,2.76c8.78,3.63,15.62,10.46,19.25,19.25,3.66,8.59,3.66,18.26,0,27.21-3.63,8.79-10.46,15.62-19.25,19.25-4.37,1.8-8.94,2.72-13.61,2.72ZM193.09,171.11c-12.12,0-21.97,9.86-21.97,21.97s9.86,21.97,21.97,21.97,21.97-9.86,21.97-21.97-9.86-21.97-21.97-21.97Z"/>
              <path class="cls-3" d="M193.09,387.39c-51.94,0-100.75-20.22-137.46-56.92C18.92,293.76-1.3,244.94-1.3,193.01-1.3,99.29,65.44,18.99,157.4,2.06c.08-.01.16-.02.24-.02.43,0,.85.22,1.09.59.29.44.28,1.01-.02,1.44-4.67,6.86-7.14,14.89-7.14,23.24,0,4.57,1.53,11.15,4.42,19.02.13.35.1.73-.07,1.05-.17.33-.47.56-.83.65-6.76,1.73-13.12,3.87-19.44,6.53-37,15.34-65.79,44.13-81.07,81.06-15.37,37.03-15.39,77.81-.08,114.83,15.33,36.98,44.18,65.77,81.22,81.06,18.45,7.66,37.78,11.54,57.45,11.54s38.79-3.86,57.22-11.46c37.01-15.31,65.83-44.13,81.14-81.14,15.36-37.03,15.39-77.81.08-114.83-15.33-36.98-44.17-65.77-81.22-81.06-6.78-2.78-13.12-4.92-19.38-6.54-.36-.09-.66-.33-.83-.65-.17-.32-.2-.71-.07-1.05,2.89-7.87,4.42-14.45,4.42-19.02,0-8.31-2.45-16.35-7.07-23.25-.29-.43-.29-1,0-1.44.24-.37.65-.59,1.09-.59.08,0,.16,0,.24.02,91.83,17.02,158.54,97.32,158.62,190.95,0,107.19-87.17,194.39-194.31,194.39ZM193.09,354.89c-3.56,0-6.46,2.9-6.46,6.46s2.9,6.46,6.46,6.46,6.46-2.9,6.46-6.46-2.9-6.46-6.46-6.46ZM312.05,305.61c-1.72,0-3.33.67-4.55,1.89-2.51,2.51-2.51,6.59,0,9.1,1.22,1.22,2.83,1.89,4.55,1.89s3.33-.67,4.55-1.89c2.44-2.5,2.44-6.6-.01-9.11-1.21-1.21-2.82-1.88-4.54-1.88ZM74.05,305.61c-1.72,0-3.33.67-4.55,1.89-2.51,2.51-2.51,6.59,0,9.1,1.22,1.22,2.83,1.89,4.55,1.89s3.33-.67,4.55-1.89c2.51-2.51,2.51-6.59,0-9.1-1.22-1.22-2.83-1.89-4.55-1.89ZM361.35,186.63c-3.56,0-6.46,2.9-6.46,6.46s2.9,6.46,6.46,6.46,6.46-2.9,6.46-6.46-2.9-6.46-6.46-6.46ZM24.75,186.63c-3.56,0-6.46,2.9-6.46,6.46s2.9,6.46,6.46,6.46,6.46-2.9,6.46-6.46-2.84-6.46-6.46-6.46ZM312.05,67.61c-1.72,0-3.33.67-4.55,1.89-2.51,2.51-2.51,6.59,0,9.1,1.22,1.22,2.83,1.89,4.55,1.89s3.33-.67,4.55-1.89c2.44-2.5,2.44-6.6-.01-9.11-1.21-1.21-2.82-1.88-4.54-1.88ZM74.05,67.61c-1.72,0-3.33.67-4.55,1.89-2.51,2.51-2.51,6.59,0,9.1,1.22,1.22,2.83,1.89,4.55,1.89s3.33-.67,4.55-1.89c2.51-2.51,2.51-6.59,0-9.1-1.22-1.22-2.83-1.89-4.55-1.89Z"/>
              <path class="cls-3" d="M204.64,145.98c-.1,0-.21-.01-.31-.04-3.68-.9-7.52-1.36-11.4-1.36s-7.57.46-11.25,1.36c-.1.03-.21.04-.31.04-.52,0-1-.31-1.2-.8l-33.05-79.75c-.14-.33-.13-.7.02-1.03.15-.33.42-.58.76-.69,4.25-1.47,8.41-2.71,12.37-3.68.1-.03.21-.04.31-.04.51,0,.98.3,1.19.78,6.52,14.96,14.62,30.02,18.87,37.67l12.44,22.46,12.44-22.46c3.36-6.05,11.91-21.81,18.8-37.59.21-.48.68-.78,1.19-.78.09,0,.19.01.29.03,3.74.85,7.65,1.99,12.32,3.61.34.12.61.37.76.7.15.33.15.7.01,1.03l-19.08,46-13.96,33.74c-.2.49-.68.8-1.2.8Z"/>
              <path class="cls-3" d="M193.01,202.14c-4.99,0-9.06-4.06-9.06-9.06s4.06-9.06,9.06-9.06,9.06,4.06,9.06,9.06-4.06,9.06-9.06,9.06Z"/>
              <path class="cls-3" d="M252.04,316.57c-.16,0-.31-.03-.46-.09-.33-.13-.6-.39-.74-.72l-16.29-39.33-16.76-40.42c-.25-.59-.02-1.27.52-1.61,6.55-3.99,11.94-9.41,16.01-16.09.24-.4.67-.62,1.11-.62.17,0,.33.03.5.1l79.75,33.05c.33.14.59.4.72.74.13.33.11.7-.04,1.03-13.54,28.19-35.59,50.26-63.75,63.83-.18.09-.37.13-.56.13Z"/>
              <path class="cls-3" d="M150.5,168.32c-.17,0-.33-.03-.5-.1l-59.19-24.51-20.48-8.53c-.33-.14-.59-.4-.71-.74s-.11-.71.05-1.03c13.66-28.2,35.71-50.24,63.75-63.75.18-.09.37-.13.56-.13.16,0,.31.03.46.09.33.13.6.39.74.72l16.14,39.02,16.83,40.65c.25.59.02,1.27-.52,1.61-6.55,3.99-11.94,9.4-16.01,16.09-.24.4-.67.62-1.11.62Z"/>
              <path class="cls-3" d="M193.08,330.16c-15.31,0-30.49-2.59-45.1-7.69-.34-.12-.61-.37-.76-.7-.15-.33-.15-.7-.01-1.03l2.56-6.13,30.41-73.62c.21-.49.69-.8,1.2-.8.1,0,.2.01.31.04,3.72.9,7.53,1.36,11.33,1.36s7.61-.46,11.33-1.36c.1-.02.21-.04.31-.04.52,0,1,.31,1.2.8l33.05,79.75c.14.33.13.7-.01,1.03-.15.33-.42.58-.76.7-14.58,5.11-29.73,7.69-45.05,7.69Z"/>
              <path class="cls-3" d="M134.05,316.57c-.19,0-.39-.04-.56-.13-28.26-13.62-50.36-35.64-63.91-63.67-.16-.32-.17-.69-.04-1.03.13-.33.39-.6.72-.74l39.33-16.29,40.42-16.76c.16-.07.33-.1.5-.1.44,0,.87.23,1.11.62,3.99,6.55,9.41,11.94,16.09,16.01.55.33.77,1.02.52,1.61l-6.75,16.29-26.22,63.38c-.14.33-.4.59-.74.72-.15.06-.31.09-.46.09Z"/>
              <path class="cls-3" d="M168.57,416.49c-.72,0-1.3-.58-1.3-1.3v-15.05c0-.37.16-.72.43-.97.24-.21.55-.33.86-.33.05,0,.1,0,.15,0,8.46.99,16.41,1.46,24.29,1.46s15.82-.48,24.37-1.46c.05,0,.1,0,.15,0,.32,0,.62.12.86.33.28.25.43.6.43.97v15.05c0,.72-.58,1.3-1.3,1.3h-48.95Z"/>
            </g>
          </g>
          <g class="cls-2">
            <use transform="translate(-10.14 -10.1) scale(.24)" xlink:href="#image"/>
            <g>
              <path class="cls-3" d="M62.06,482.27c-.49,0-.94-.28-1.16-.72-.22-.44-.17-.97.12-1.36l24.51-32.66c.25-.33.63-.52,1.04-.52h34.54v-16.31c0-.72.58-1.3,1.3-1.3h141.27c.72,0,1.3.58,1.3,1.3v16.31h34.46c.41,0,.79.19,1.04.52l24.51,32.66c.3.39.34.92.12,1.36-.22.44-.67.72-1.16.72H62.06Z"/>
              <path class="cls-3" d="M193.01,92.84c-.47,0-.91-.26-1.14-.67-1.12-2.02-27.39-49.73-27.39-64.94S177.28-1.3,193.01-1.3s28.61,12.8,28.61,28.53-26.35,62.92-27.47,64.94c-.23.41-.66.67-1.14.67h0Z"/>
              <path class="cls-3" d="M321.16,239.07c-.17,0-.34-.03-.5-.1l-79.75-33.05c-.59-.25-.92-.88-.77-1.51,1.8-7.44,1.8-15.3,0-22.74-.15-.62.17-1.26.77-1.51l79.83-33.05c.16-.07.33-.1.5-.1.18,0,.36.04.53.11.33.15.58.42.7.76,10.28,29.43,10.25,60.65-.08,90.3-.12.34-.37.61-.7.76-.17.08-.35.11-.53.11Z"/>
              <path class="cls-3" d="M235.52,168.32c-.44,0-.87-.23-1.11-.62-3.99-6.55-9.41-11.94-16.09-16.01-.55-.33-.77-1.02-.52-1.61l33.05-79.75c.14-.33.4-.59.74-.72.15-.06.31-.08.46-.08.19,0,.39.04.57.13,28.2,13.63,50.3,35.67,63.91,63.75.16.32.17.69.04,1.03-.13.33-.39.6-.72.74l-79.83,33.05c-.16.07-.33.1-.5.1Z"/>
              <path class="cls-3" d="M64.85,239.07c-.18,0-.36-.04-.53-.11-.33-.15-.58-.42-.7-.76-10.32-29.55-10.3-60.75.08-90.23.12-.34.37-.61.7-.76.17-.08.35-.11.53-.11.17,0,.34.03.5.1l48.33,20.01,31.34,13.03c.59.25.91.88.76,1.51-1.82,7.52-1.82,15.14,0,22.66.15.62-.17,1.26-.77,1.51l-79.75,33.05c-.16.07-.33.1-.5.1Z"/>
              <path class="cls-3" d="M192.93,228.65c-4.66,0-9.24-.91-13.61-2.72-8.83-3.73-15.66-10.56-19.25-19.25-3.54-8.78-3.54-18.43,0-27.2,3.71-8.8,10.54-15.66,19.24-19.33,4.31-1.78,8.84-2.68,13.47-2.68s9.33.93,13.75,2.76c8.78,3.63,15.62,10.46,19.25,19.25,3.66,8.59,3.66,18.26,0,27.21-3.63,8.79-10.46,15.62-19.25,19.25-4.37,1.8-8.94,2.72-13.61,2.72ZM193.09,171.11c-12.12,0-21.97,9.86-21.97,21.97s9.86,21.97,21.97,21.97,21.97-9.86,21.97-21.97-9.86-21.97-21.97-21.97Z"/>
              <path class="cls-3" d="M193.09,387.39c-51.94,0-100.75-20.22-137.46-56.92C18.92,293.76-1.3,244.94-1.3,193.01-1.3,99.29,65.44,18.99,157.4,2.06c.08-.01.16-.02.24-.02.43,0,.85.22,1.09.59.29.44.28,1.01-.02,1.44-4.67,6.86-7.14,14.89-7.14,23.24,0,4.57,1.53,11.15,4.42,19.02.13.35.1.73-.07,1.05-.17.33-.47.56-.83.65-6.76,1.73-13.12,3.87-19.44,6.53-37,15.34-65.79,44.13-81.07,81.06-15.37,37.03-15.39,77.81-.08,114.83,15.33,36.98,44.18,65.77,81.22,81.06,18.45,7.66,37.78,11.54,57.45,11.54s38.79-3.86,57.22-11.46c37.01-15.31,65.83-44.13,81.14-81.14,15.36-37.03,15.39-77.81.08-114.83-15.33-36.98-44.17-65.77-81.22-81.06-6.78-2.78-13.12-4.92-19.38-6.54-.36-.09-.66-.33-.83-.65-.17-.32-.2-.71-.07-1.05,2.89-7.87,4.42-14.45,4.42-19.02,0-8.31-2.45-16.35-7.07-23.25-.29-.43-.29-1,0-1.44.24-.37.65-.59,1.09-.59.08,0,.16,0,.24.02,91.83,17.02,158.54,97.32,158.62,190.95,0,107.19-87.17,194.39-194.31,194.39ZM193.09,354.89c-3.56,0-6.46,2.9-6.46,6.46s2.9,6.46,6.46,6.46,6.46-2.9,6.46-6.46-2.9-6.46-6.46-6.46ZM312.05,305.61c-1.72,0-3.33.67-4.55,1.89-2.51,2.51-2.51,6.59,0,9.1,1.22,1.22,2.83,1.89,4.55,1.89s3.33-.67,4.55-1.89c2.44-2.5,2.44-6.6-.01-9.11-1.21-1.21-2.82-1.88-4.54-1.88ZM74.05,305.61c-1.72,0-3.33.67-4.55,1.89-2.51,2.51-2.51,6.59,0,9.1,1.22,1.22,2.83,1.89,4.55,1.89s3.33-.67,4.55-1.89c2.51-2.51,2.51-6.59,0-9.1-1.22-1.22-2.83-1.89-4.55-1.89ZM361.35,186.63c-3.56,0-6.46,2.9-6.46,6.46s2.9,6.46,6.46,6.46,6.46-2.9,6.46-6.46-2.9-6.46-6.46-6.46ZM24.75,186.63c-3.56,0-6.46,2.9-6.46,6.46s2.9,6.46,6.46,6.46,6.46-2.9,6.46-6.46-2.84-6.46-6.46-6.46ZM312.05,67.61c-1.72,0-3.33.67-4.55,1.89-2.51,2.51-2.51,6.59,0,9.1,1.22,1.22,2.83,1.89,4.55,1.89s3.33-.67,4.55-1.89c2.44-2.5,2.44-6.6-.01-9.11-1.21-1.21-2.82-1.88-4.54-1.88ZM74.05,67.61c-1.72,0-3.33.67-4.55,1.89-2.51,2.51-2.51,6.59,0,9.1,1.22,1.22,2.83,1.89,4.55,1.89s3.33-.67,4.55-1.89c2.51-2.51,2.51-6.59,0-9.1-1.22-1.22-2.83-1.89-4.55-1.89Z"/>
              <path class="cls-3" d="M204.64,145.98c-.1,0-.21-.01-.31-.04-3.68-.9-7.52-1.36-11.4-1.36s-7.57.46-11.25,1.36c-.1.03-.21.04-.31.04-.52,0-1-.31-1.2-.8l-33.05-79.75c-.14-.33-.13-.7.02-1.03.15-.33.42-.58.76-.69,4.25-1.47,8.41-2.71,12.37-3.68.1-.03.21-.04.31-.04.51,0,.98.3,1.19.78,6.52,14.96,14.62,30.02,18.87,37.67l12.44,22.46,12.44-22.46c3.36-6.05,11.91-21.81,18.8-37.59.21-.48.68-.78,1.19-.78.09,0,.19.01.29.03,3.74.85,7.65,1.99,12.32,3.61.34.12.61.37.76.7.15.33.15.7.01,1.03l-19.08,46-13.96,33.74c-.2.49-.68.8-1.2.8Z"/>
              <path class="cls-3" d="M193.01,202.14c-4.99,0-9.06-4.06-9.06-9.06s4.06-9.06,9.06-9.06,9.06,4.06,9.06,9.06-4.06,9.06-9.06,9.06Z"/>
              <path class="cls-3" d="M252.04,316.57c-.16,0-.31-.03-.46-.09-.33-.13-.6-.39-.74-.72l-16.29-39.33-16.76-40.42c-.25-.59-.02-1.27.52-1.61,6.55-3.99,11.94-9.41,16.01-16.09.24-.4.67-.62,1.11-.62.17,0,.33.03.5.1l79.75,33.05c.33.14.59.4.72.74.13.33.11.7-.04,1.03-13.54,28.19-35.59,50.26-63.75,63.83-.18.09-.37.13-.56.13Z"/>
              <path class="cls-3" d="M150.5,168.32c-.17,0-.33-.03-.5-.1l-59.19-24.51-20.48-8.53c-.33-.14-.59-.4-.71-.74s-.11-.71.05-1.03c13.66-28.2,35.71-50.24,63.75-63.75.18-.09.37-.13.56-.13.16,0,.31.03.46.09.33.13.6.39.74.72l16.14,39.02,16.83,40.65c.25.59.02,1.27-.52,1.61-6.55,3.99-11.94,9.4-16.01,16.09-.24.4-.67.62-1.11.62Z"/>
              <path class="cls-3" d="M193.08,330.16c-15.31,0-30.49-2.59-45.1-7.69-.34-.12-.61-.37-.76-.7-.15-.33-.15-.7-.01-1.03l2.56-6.13,30.41-73.62c.21-.49.69-.8,1.2-.8.1,0,.2.01.31.04,3.72.9,7.53,1.36,11.33,1.36s7.61-.46,11.33-1.36c.1-.02.21-.04.31-.04.52,0,1,.31,1.2.8l33.05,79.75c.14.33.13.7-.01,1.03-.15.33-.42.58-.76.7-14.58,5.11-29.73,7.69-45.05,7.69Z"/>
              <path class="cls-3" d="M134.05,316.57c-.19,0-.39-.04-.56-.13-28.26-13.62-50.36-35.64-63.91-63.67-.16-.32-.17-.69-.04-1.03.13-.33.39-.6.72-.74l39.33-16.29,40.42-16.76c.16-.07.33-.1.5-.1.44,0,.87.23,1.11.62,3.99,6.55,9.41,11.94,16.09,16.01.55.33.77,1.02.52,1.61l-6.75,16.29-26.22,63.38c-.14.33-.4.59-.74.72-.15.06-.31.09-.46.09Z"/>
              <path class="cls-3" d="M168.57,416.49c-.72,0-1.3-.58-1.3-1.3v-15.05c0-.37.16-.72.43-.97.24-.21.55-.33.86-.33.05,0,.1,0,.15,0,8.46.99,16.41,1.46,24.29,1.46s15.82-.48,24.37-1.46c.05,0,.1,0,.15,0,.32,0,.62.12.86.33.28.25.43.6.43.97v15.05c0,.72-.58,1.3-1.3,1.3h-48.95Z"/>
            </g>
          </g>
        </g>
      </g>
    </g>
  </g>
</svg>