<?xml version="1.0" encoding="UTF-8"?>
<svg xmlns="http://www.w3.org/2000/svg" xmlns:xlink="http://www.w3.org/1999/xlink" viewBox="0 0 445.37 471.5">
  <defs>
    <style>
      .cls-1 {
        isolation: isolate;
      }

      .cls-2 {
        mix-blend-mode: overlay;
      }

      .cls-3 {
        stroke: #ffdbfc;
      }

      .cls-3, .cls-4 {
        fill: none;
        stroke-width: 1.82px;
      }

      .cls-4 {
        stroke: #c800ffff;
      }
    </style>
  </defs>
  <g class="cls-1">
    <g id="Capa_2" data-name="Capa 2">
      <g id="effects">
        <g>
          <g>
            <path d="M230.35,250.09l-71.45,9.54c2.02,18.15,4.58,38.87,7.06,59.11l1.47,11.95,39.33-5.2c10.71-1.4,21.41-2.56,32.19-3.65l-1.09-8.84c-2.72-21.88-5.51-44.3-7.52-62.91Z"/>
            <path d="M71.48,206.34c9.23,6.36,22.11,5.51,34.75,3.65,10.63-1.55,21.26-2.64,31.57-3.72,5.82-.62,11.56-1.16,17.45-1.86,25.83-3.03,52.05-7.29,77.34-11.4,12.64-2.09,25.21-4.11,37.86-6.05,2.17-.31,4.34-.62,6.52-1.09,4.5-.85,7.76-1.94,10.4-3.41,6.05-3.34,9.54-11.02,8.84-19.47-2.79-36.15-23.66-57.25-40.73-68.65-20.32-13.58-46.86-20.79-73-20.79-13.81,0-27.54,2.02-40.26,6.21-35.22,11.56-62.68,35.76-75.25,66.48-6.28,15.75-9.54,50.5,4.5,60.12Z"/>
            <path d="M144.32,261.5l-70.36,9.39c-5.97.78-10.4,5.82-10.32,11.64.47,19.39,2.48,36.07,6.21,50.97,1.4,5.59,7.06,9.23,13.03,8.46l69.97-9.31-1.47-12.1c-2.48-20.25-5.04-40.88-7.06-59.04h0Z"/>
            <path d="M353.46,227.29c-14.43-68.34-19.78-164.23-85.8-206.43C200.48-22.04,69.54,4.88,25.94,68.41-10.21,121.16-.83,194.63,8.33,255.21c7.14,47.09,11.25,94.72,21.72,141.27,4.11,18.31,7.6,38.17,18.39,54.07,13.5,19.86,35.06,21.95,57.72,20.64,69.51-3.96,138.71-13.34,206.74-27.93,16.37-3.49,34.75-13.58,46.08-25.91,18.85-20.48,16.29-51.67,12.49-78.97-5.04-37.16-10.16-74.32-18-111.09h0ZM53.48,140.71c14.2-34.68,44.92-61.98,84.25-74.86,41.35-13.58,90.76-7.14,125.98,16.37,28.32,18.85,44.61,46.47,47.17,79.75,1.09,14.27-5.35,27.46-16.45,33.51-5.28,2.95-10.94,4.27-14.74,4.96-2.33.47-4.73.85-7.14,1.16-12.57,1.94-25.13,3.96-37.7,5.97-25.52,4.19-51.82,8.46-78.04,11.48-5.9.7-11.79,1.32-17.69,1.86-10.16,1.01-20.64,2.09-30.88,3.65-5.59.85-11.48,1.47-17.3,1.47-9.77,0-19.55-1.78-27.93-7.6-22.5-15.59-17.22-59.04-9.54-77.73h0ZM309.25,380.03l-189.67,25.21c-.31.08-.62.08-1.01.08-3.65,0-6.83-2.72-7.29-6.36-.54-4.03,2.33-7.76,6.36-8.3l189.67-25.21c4.03-.54,7.76,2.33,8.3,6.36.47,4.03-2.4,7.68-6.36,8.22ZM332.29,318.36c-9.15,7.52-22.96,9.31-35.22,10.94-2.87.39-5.74.78-8.38,1.16-13.5,2.17-27.07,3.65-40.49,5.12-.08,0-.16.08-.23.08-.31,0-.62.08-.93.08-1.78.16-3.65.39-5.51.62-11.02,1.16-22.03,2.25-32.97,3.72l-46.78,6.21-76.49,10.16c-1.32.16-2.64.23-3.88.23-12.41,0-22.96-7.91-25.91-19.63-4.03-15.98-6.21-33.67-6.67-54.23-.31-13.34,9.62-24.75,23.04-26.53l229.86-30.56c13.34-1.78,25.83,6.52,29.17,19.32l1.86,7.06c3.41,13.03,7.29,27.85,8.69,41.43,1.16,10.55-1.94,18.93-9.15,24.82h0Z"/>
            <path d="M318.63,255.83l-1.86-7.14c-1.32-5.04-5.97-8.46-11.33-8.46-.54,0-1.09,0-1.63.08l-58.8,7.84c2.02,18.62,4.73,41.12,7.45,62.99l1.09,9.08c10.94-1.16,21.95-2.48,32.81-4.27,2.79-.47,5.82-.85,8.84-1.24,10.24-1.32,21.95-2.87,27.77-7.68,2.25-1.86,4.65-4.89,3.96-12.02-1.32-12.41-4.89-26.07-8.3-39.18h0Z"/>
            <path d="M442.05,262.27l-13.19-90.69c10.86-4.5,17.84-15.52,16.29-27.54-1.94-14.27-15.28-24.28-29.87-22.34s-24.9,15.13-22.96,29.4c1.55,11.64,10.71,20.32,21.95,22.11l13.19,91.23c.31,2.17.7,4.34,1.01,6.36,1.71,10.16,2.79,16.83-1.32,24.75-1.63,3.1-3.65,6.36-5.97,9.7,1.4,5.97,2.87,13.19,2.95,20.64,6.83-8.3,12.26-16.21,16.06-23.43,6.44-12.33,4.73-22.88,2.87-34.06-.39-2.02-.7-4.03-1.01-6.13Z"/>
            <path d="M379.45,290.04c2.33,15.59,4.5,31.11,6.59,46.39.62,4.42,1.16,9,1.63,13.58,8.38-1.86,15.98-4.81,19.7-12.96,4.89-10.63-.16-24.98-2.09-35.68-2.87-15.36-13.73-13.89-25.83-11.33h0Z"/>
          </g>
          <g>
            <g>
              <path class="cls-4" d="M167.44,331.56c-.19,0-.38-.06-.53-.18-.18-.14-.3-.35-.33-.58l-2.08-16.84c-2.26-18.45-4.6-37.53-6.46-54.23-.05-.47.28-.89.75-.95l71.45-9.54s.08,0,.11,0c.19,0,.38.06.53.18.18.14.3.36.33.59,1.95,17.98,4.64,39.68,7.24,60.66l1.36,11.08c.03.23-.04.46-.18.65s-.36.3-.59.32c-12.87,1.3-22.79,2.42-32.17,3.64l-39.33,5.2s-.08,0-.11,0Z"/>
              <path class="cls-4" d="M90.87,212.21c-8.35,0-14.85-1.69-19.88-5.15-14.84-10.17-10.97-45.73-4.81-61.16,12.65-30.92,40.27-55.33,75.78-66.98,12.59-4.15,26.23-6.25,40.53-6.25,26.78,0,53.56,7.63,73.48,20.94,17.2,11.49,38.29,32.84,41.11,69.31.73,8.82-2.92,16.78-9.29,20.3-2.75,1.53-6.13,2.65-10.65,3.51-2.19.47-4.41.79-6.55,1.09-12.03,1.85-24.41,3.82-37.84,6.05l-.25.04c-25.25,4.11-51.37,8.35-77.14,11.37-3.94.47-7.87.87-11.67,1.26-1.93.2-3.86.4-5.8.6l-2.06.22c-9.62,1.01-19.57,2.06-29.48,3.5-4.31.63-9.96,1.36-15.48,1.36h0Z"/>
              <path class="cls-4" d="M81.28,342.91c-5.87,0-10.91-3.79-12.27-9.22-3.72-14.9-5.76-31.63-6.23-51.16-.08-6.31,4.68-11.69,11.07-12.52l70.36-9.39s.08,0,.11,0c.19,0,.38.06.53.18.18.14.3.35.33.59,1.79,16.14,4.05,34.52,6.23,52.29l.83,6.73,1.47,12.1c.06.47-.27.9-.75.96l-69.97,9.31c-.57.07-1.15.11-1.72.11h0Z"/>
              <path class="cls-4" d="M96.22,472.36c-15.83,0-35.66-2.42-48.51-21.33-9.74-14.37-13.55-31.74-17.23-48.54-.43-1.95-.85-3.9-1.29-5.82-7.1-31.57-11.35-64.16-15.46-95.67-1.95-14.98-3.97-30.48-6.27-45.66C-.49,202.64-12.52,123,25.22,67.92,53.02,27.42,118.6-.87,184.72-.87c33.06,0,61.9,7.26,83.41,20.99,55.39,35.41,68.16,107.49,79.44,171.09,2.24,12.63,4.35,24.56,6.74,35.89,8.06,37.81,13.34,76.77,18.01,111.15,3.85,27.68,6.37,58.95-12.71,79.67-11.27,12.27-29.54,22.54-46.54,26.17-68.14,14.61-137.75,24.01-206.87,27.94-3.65.21-6.91.32-9.97.32h0ZM308.29,366.25c-.29,0-.58.02-.87.06l-189.67,25.21c-1.72.23-3.26,1.12-4.32,2.51-1.07,1.39-1.52,3.1-1.29,4.82.41,3.2,3.17,5.61,6.43,5.61.34,0,.59,0,.8-.05l189.77-25.23c3.5-.48,6.02-3.74,5.61-7.27-.43-3.22-3.21-5.66-6.46-5.66ZM305.32,226.36c-1.16,0-2.33.08-3.49.23l-229.86,30.56c-13.01,1.73-22.59,12.76-22.29,25.65.46,20.48,2.64,38.16,6.64,54.03,2.86,11.35,12.93,18.97,25.07,18.97,1.23,0,2.5-.08,3.78-.23l76.48-10.16,46.78-6.21c9.16-1.23,18.53-2.21,27.59-3.16l5.41-.57c1.81-.23,3.71-.46,5.52-.62.19,0,.31-.02.43-.04.13-.02.27-.03.41-.04.1-.04.24-.08.4-.08l.82-.1c12.96-1.42,26.37-2.89,39.54-5.01,2.6-.38,5.42-.76,8.24-1.15l.46-.06c12-1.59,25.6-3.4,34.49-10.71,7-5.72,9.97-13.81,8.84-24.06-1.39-13.52-5.25-28.28-8.67-41.3l-1.86-7.06c-2.9-11.14-13.07-18.91-24.73-18.91ZM182.89,59.69c-15.68,0-30.79,2.35-44.9,6.98-39.1,12.8-69.61,39.91-83.72,74.37-7.59,18.48-12.9,61.35,9.23,76.69,7.22,5.01,16.19,7.45,27.43,7.45,5.1,0,10.72-.48,17.17-1.46,10.3-1.56,20.92-2.66,30.92-3.65,5.87-.54,11.81-1.17,17.67-1.86,27.23-3.14,55.38-7.76,78-11.48l.21-.03c12.29-1.97,25-4.01,37.5-5.94,2.47-.32,4.85-.71,7.1-1.16,5.79-1.06,10.52-2.66,14.49-4.87,10.79-5.89,17.07-18.72,16.01-32.69-2.54-33.06-18.72-60.41-46.78-79.09-22.46-14.99-50.99-23.25-80.33-23.25Z"/>
              <path class="cls-4" d="M253.54,321.09c-.43,0-.81-.32-.86-.76l-1.09-9.08c-3.34-26.93-5.71-46.96-7.45-63-.05-.47.28-.89.75-.95l58.8-7.83c.6-.09,1.18-.09,1.74-.09,5.76,0,10.76,3.74,12.16,9.1l1.93,7.39c3.41,13.1,6.94,26.65,8.26,39.05.74,7.59-1.89,10.82-4.27,12.78-6.07,5.02-18.35,6.6-28.21,7.87-2.96.38-6.02.77-8.81,1.24-11.9,1.96-23.81,3.31-32.87,4.27-.03,0-.06,0-.09,0Z"/>
              <path class="cls-4" d="M424.14,326.75c-.1,0-.19-.02-.29-.05-.34-.12-.57-.44-.58-.81-.08-7.32-1.52-14.44-2.93-20.45-.06-.24,0-.49.13-.69,2.34-3.36,4.33-6.59,5.92-9.6,4-7.7,2.9-14.27,1.23-24.2-.13-.82-.26-1.65-.4-2.5-.21-1.27-.42-2.58-.61-3.89l-13.1-90.6c-11.68-2.12-20.5-11.19-22.05-22.74-.95-7.02.92-14.02,5.27-19.72,4.49-5.88,11.04-9.67,18.44-10.65,1.24-.16,2.49-.25,3.73-.25,13.65,0,25.3,10.03,27.11,23.33,1.52,11.79-5.12,23.29-16.2,28.19l13.09,90.03c.27,1.84.6,3.99,1,6.09,1.88,11.3,3.66,21.95-2.95,34.62-3.82,7.26-9.26,15.19-16.16,23.58-.17.2-.42.32-.67.32Z"/>
              <path class="cls-4" d="M387.67,350.88c-.18,0-.36-.06-.51-.16-.2-.14-.33-.37-.35-.61-.48-4.73-1.03-9.29-1.62-13.54-1.73-12.61-4.04-29.28-6.59-46.38-.07-.45.23-.88.68-.98,3.74-.79,8.04-1.63,11.83-1.63,8.52,0,13.29,4.34,15.03,13.65.39,2.14.89,4.4,1.43,6.8,2.17,9.68,4.63,20.64.6,29.4-3.99,8.73-12.12,11.62-20.3,13.44-.06.01-.12.02-.19.02Z"/>
            </g>
          </g>
          <g>
            <use transform="translate(-10.13 -10.13) scale(.24)" xlink:href="#image"/>
            <g>
              <path class="cls-3" d="M167.44,331.99c-.29,0-.57-.09-.79-.27-.27-.21-.45-.52-.49-.87l-2.08-16.84c-2.26-18.45-4.6-37.54-6.46-54.24-.08-.7.42-1.34,1.12-1.43l71.45-9.54c.06,0,.11-.01.17-.01.29,0,.57.1.8.28.28.22.45.53.49.88,1.95,17.97,4.64,39.67,7.24,60.65l1.36,11.08c.04.35-.06.7-.27.97-.22.27-.54.45-.88.48-12.87,1.3-22.79,2.42-32.16,3.64l-39.33,5.2c-.06,0-.11.01-.17.01Z"/>
              <path class="cls-3" d="M90.87,212.64c-8.44,0-15.02-1.71-20.13-5.23-15.03-10.29-11.17-46.14-4.97-61.67,12.7-31.04,40.42-55.54,76.05-67.24,12.64-4.16,26.32-6.27,40.67-6.27,26.86,0,53.73,7.66,73.72,21.01,17.28,11.54,38.47,33,41.3,69.63.74,8.98-2.99,17.11-9.51,20.71-2.79,1.56-6.21,2.69-10.78,3.55-2.19.47-4.42.79-6.57,1.1-12.03,1.84-24.4,3.82-37.83,6.05l-.25.04c-25.26,4.11-51.38,8.35-77.16,11.37-3.94.47-7.87.87-11.67,1.26-1.93.2-3.86.4-5.8.6l-2.06.22c-9.62,1.01-19.57,2.06-29.46,3.5-4.32.64-10,1.37-15.55,1.37h0Z"/>
              <path class="cls-3" d="M81.28,343.35c-6.07,0-11.29-3.92-12.69-9.54-3.73-14.93-5.77-31.69-6.24-51.25-.09-6.53,4.83-12.1,11.45-12.96l70.36-9.39c.06,0,.12-.01.17-.01.29,0,.57.1.8.28.28.22.45.53.49.88,1.79,16.14,4.05,34.52,6.23,52.29l.83,6.73,1.47,12.1c.09.71-.41,1.35-1.12,1.45l-69.97,9.31c-.59.08-1.18.11-1.77.11h0Z"/>
              <path class="cls-3" d="M96.22,472.8c-15.94,0-35.9-2.45-48.86-21.52-9.79-14.44-13.6-31.85-17.29-48.7-.43-1.95-.85-3.9-1.29-5.82-7.11-31.59-11.36-64.19-15.47-95.71-1.95-14.98-3.97-30.48-6.27-45.65C-.93,202.64-12.98,122.9,24.87,67.68,52.73,27.06,118.47-1.3,184.72-1.3c33.14,0,62.06,7.28,83.64,21.06,55.55,35.51,68.34,107.69,79.63,171.38,2.24,12.63,4.35,24.56,6.74,35.87,8.06,37.83,13.35,76.8,18.01,111.18,3.87,27.78,6.39,59.16-12.82,80.03-11.33,12.33-29.68,22.66-46.76,26.3-68.17,14.61-137.79,24.02-206.94,27.95-3.66.21-6.93.32-10,.32h0ZM308.29,366.68c-.27,0-.54.02-.81.05l-189.67,25.21c-1.61.22-3.04,1.05-4.04,2.34-1,1.29-1.42,2.89-1.21,4.49.38,2.99,2.96,5.24,6,5.24.31,0,.54,0,.69-.04.05-.01.1-.02.14-.03l189.67-25.21c3.27-.45,5.62-3.49,5.24-6.79-.4-3-3-5.28-6.03-5.28ZM305.32,226.79c-1.14,0-2.29.08-3.43.23l-229.86,30.57c-12.79,1.7-22.21,12.54-21.91,25.21.46,20.45,2.63,38.09,6.63,53.94,2.81,11.15,12.71,18.65,24.65,18.65,1.21,0,2.46-.08,3.73-.22l76.47-10.16,46.78-6.21c9.17-1.23,18.54-2.21,27.6-3.16l5.4-.57c1.81-.23,3.71-.46,5.53-.62.04,0,.07,0,.11,0,.1,0,.2-.02.3-.03.12-.02.24-.03.36-.04.1-.04.23-.07.38-.08l.89-.1c12.96-1.42,26.35-2.89,39.51-5.01,2.61-.38,5.42-.77,8.25-1.15l.46-.06c11.94-1.59,25.48-3.39,34.27-10.61,6.88-5.62,9.8-13.59,8.69-23.68-1.39-13.49-5.25-28.23-8.65-41.24l-1.86-7.06c-2.85-10.95-12.85-18.59-24.31-18.59ZM182.89,60.12c-15.63,0-30.7,2.34-44.76,6.96-38.97,12.76-69.39,39.78-83.45,74.12-7.55,18.37-12.85,60.97,9.08,76.17,7.14,4.96,16.04,7.37,27.19,7.37,5.08,0,10.68-.48,17.1-1.46,10.31-1.56,20.94-2.66,30.94-3.65,5.86-.54,11.8-1.17,17.66-1.86,27.22-3.14,55.37-7.76,77.98-11.47l.22-.03c12.29-1.97,25-4.01,37.5-5.94,2.47-.32,4.84-.71,7.08-1.15,5.75-1.06,10.44-2.63,14.36-4.83,10.64-5.81,16.83-18.47,15.78-32.28-2.53-32.92-18.64-60.16-46.59-78.77-22.39-14.95-50.84-23.18-80.09-23.18Z"/>
              <path class="cls-3" d="M253.54,321.52c-.65,0-1.21-.49-1.29-1.15l-1.09-9.08c-3.34-26.93-5.71-46.96-7.45-63.01-.08-.7.42-1.33,1.12-1.43l58.8-7.83c.62-.09,1.22-.09,1.8-.09,5.96,0,11.13,3.88,12.58,9.43l1.93,7.39c3.42,13.12,6.95,26.68,8.27,39.11.76,7.79-1.96,11.13-4.42,13.16-6.17,5.1-18.51,6.69-28.43,7.97-2.96.38-6.01.77-8.8,1.23-11.91,1.96-23.83,3.31-32.89,4.28-.05,0-.09,0-.14,0Z"/>
              <path class="cls-3" d="M424.14,327.18c-.14,0-.29-.02-.43-.07-.52-.18-.86-.67-.87-1.21-.08-7.28-1.52-14.37-2.91-20.35-.08-.36-.01-.74.2-1.04,2.33-3.35,4.31-6.56,5.89-9.56,3.93-7.57,2.84-14.08,1.19-23.93-.13-.82-.26-1.65-.4-2.5-.21-1.28-.42-2.59-.61-3.9l-13.05-90.3c-11.72-2.26-20.54-11.41-22.09-23.05-.97-7.13.93-14.25,5.35-20.04,4.56-5.98,11.21-9.82,18.73-10.82,1.26-.17,2.53-.25,3.79-.25,13.86,0,25.7,10.19,27.54,23.71,1.53,11.88-5.08,23.45-16.15,28.51l13.05,89.7c.27,1.84.59,3.98,1,6.07,1.82,10.88,3.69,22.11-2.99,34.9-3.84,7.29-9.29,15.24-16.21,23.65-.25.31-.62.47-1,.47Z"/>
              <path class="cls-3" d="M387.67,351.31c-.27,0-.54-.08-.76-.25-.3-.22-.49-.55-.53-.92-.48-4.73-1.03-9.28-1.62-13.53-1.73-12.61-4.04-29.28-6.59-46.38-.1-.68.34-1.32,1.02-1.46,3.76-.8,8.09-1.64,11.92-1.64,8.76,0,13.67,4.45,15.46,14,.39,2.13.89,4.39,1.43,6.79,2.18,9.74,4.66,20.79.57,29.68-4.08,8.93-12.71,11.93-20.6,13.68-.09.02-.19.03-.28.03Z"/>
            </g>
          </g>
          <g class="cls-2">
            <use transform="translate(-10.13 -10.13) scale(.24)" xlink:href="#image"/>
            <g>
              <path class="cls-3" d="M167.44,331.99c-.29,0-.57-.09-.79-.27-.27-.21-.45-.52-.49-.87l-2.08-16.84c-2.26-18.45-4.6-37.54-6.46-54.24-.08-.7.42-1.34,1.12-1.43l71.45-9.54c.06,0,.11-.01.17-.01.29,0,.57.1.8.28.28.22.45.53.49.88,1.95,17.97,4.64,39.67,7.24,60.65l1.36,11.08c.04.35-.06.7-.27.97-.22.27-.54.45-.88.48-12.87,1.3-22.79,2.42-32.16,3.64l-39.33,5.2c-.06,0-.11.01-.17.01Z"/>
              <path class="cls-3" d="M90.87,212.64c-8.44,0-15.02-1.71-20.13-5.23-15.03-10.29-11.17-46.14-4.97-61.67,12.7-31.04,40.42-55.54,76.05-67.24,12.64-4.16,26.32-6.27,40.67-6.27,26.86,0,53.73,7.66,73.72,21.01,17.28,11.54,38.47,33,41.3,69.63.74,8.98-2.99,17.11-9.51,20.71-2.79,1.56-6.21,2.69-10.78,3.55-2.19.47-4.42.79-6.57,1.1-12.03,1.84-24.4,3.82-37.83,6.05l-.25.04c-25.26,4.11-51.38,8.35-77.16,11.37-3.94.47-7.87.87-11.67,1.26-1.93.2-3.86.4-5.8.6l-2.06.22c-9.62,1.01-19.57,2.06-29.46,3.5-4.32.64-10,1.37-15.55,1.37h0Z"/>
              <path class="cls-3" d="M81.28,343.35c-6.07,0-11.29-3.92-12.69-9.54-3.73-14.93-5.77-31.69-6.24-51.25-.09-6.53,4.83-12.1,11.45-12.96l70.36-9.39c.06,0,.12-.01.17-.01.29,0,.57.1.8.28.28.22.45.53.49.88,1.79,16.14,4.05,34.52,6.23,52.29l.83,6.73,1.47,12.1c.09.71-.41,1.35-1.12,1.45l-69.97,9.31c-.59.08-1.18.11-1.77.11h0Z"/>
              <path class="cls-3" d="M96.22,472.8c-15.94,0-35.9-2.45-48.86-21.52-9.79-14.44-13.6-31.85-17.29-48.7-.43-1.95-.85-3.9-1.29-5.82-7.11-31.59-11.36-64.19-15.47-95.71-1.95-14.98-3.97-30.48-6.27-45.65C-.93,202.64-12.98,122.9,24.87,67.68,52.73,27.06,118.47-1.3,184.72-1.3c33.14,0,62.06,7.28,83.64,21.06,55.55,35.51,68.34,107.69,79.63,171.38,2.24,12.63,4.35,24.56,6.74,35.87,8.06,37.83,13.35,76.8,18.01,111.18,3.87,27.78,6.39,59.16-12.82,80.03-11.33,12.33-29.68,22.66-46.76,26.3-68.17,14.61-137.79,24.02-206.94,27.95-3.66.21-6.93.32-10,.32h0ZM308.29,366.68c-.27,0-.54.02-.81.05l-189.67,25.21c-1.61.22-3.04,1.05-4.04,2.34-1,1.29-1.42,2.89-1.21,4.49.38,2.99,2.96,5.24,6,5.24.31,0,.54,0,.69-.04.05-.01.1-.02.14-.03l189.67-25.21c3.27-.45,5.62-3.49,5.24-6.79-.4-3-3-5.28-6.03-5.28ZM305.32,226.79c-1.14,0-2.29.08-3.43.23l-229.86,30.57c-12.79,1.7-22.21,12.54-21.91,25.21.46,20.45,2.63,38.09,6.63,53.94,2.81,11.15,12.71,18.65,24.65,18.65,1.21,0,2.46-.08,3.73-.22l76.47-10.16,46.78-6.21c9.17-1.23,18.54-2.21,27.6-3.16l5.4-.57c1.81-.23,3.71-.46,5.53-.62.04,0,.07,0,.11,0,.1,0,.2-.02.3-.03.12-.02.24-.03.36-.04.1-.04.23-.07.38-.08l.89-.1c12.96-1.42,26.35-2.89,39.51-5.01,2.61-.38,5.42-.77,8.25-1.15l.46-.06c11.94-1.59,25.48-3.39,34.27-10.61,6.88-5.62,9.8-13.59,8.69-23.68-1.39-13.49-5.25-28.23-8.65-41.24l-1.86-7.06c-2.85-10.95-12.85-18.59-24.31-18.59ZM182.89,60.12c-15.63,0-30.7,2.34-44.76,6.96-38.97,12.76-69.39,39.78-83.45,74.12-7.55,18.37-12.85,60.97,9.08,76.17,7.14,4.96,16.04,7.37,27.19,7.37,5.08,0,10.68-.48,17.1-1.46,10.31-1.56,20.94-2.66,30.94-3.65,5.86-.54,11.8-1.17,17.66-1.86,27.22-3.14,55.37-7.76,77.98-11.47l.22-.03c12.29-1.97,25-4.01,37.5-5.94,2.47-.32,4.84-.71,7.08-1.15,5.75-1.06,10.44-2.63,14.36-4.83,10.64-5.81,16.83-18.47,15.78-32.28-2.53-32.92-18.64-60.16-46.59-78.77-22.39-14.95-50.84-23.18-80.09-23.18Z"/>
              <path class="cls-3" d="M253.54,321.52c-.65,0-1.21-.49-1.29-1.15l-1.09-9.08c-3.34-26.93-5.71-46.96-7.45-63.01-.08-.7.42-1.33,1.12-1.43l58.8-7.83c.62-.09,1.22-.09,1.8-.09,5.96,0,11.13,3.88,12.58,9.43l1.93,7.39c3.42,13.12,6.95,26.68,8.27,39.11.76,7.79-1.96,11.13-4.42,13.16-6.17,5.1-18.51,6.69-28.43,7.97-2.96.38-6.01.77-8.8,1.23-11.91,1.96-23.83,3.31-32.89,4.28-.05,0-.09,0-.14,0Z"/>
              <path class="cls-3" d="M424.14,327.18c-.14,0-.29-.02-.43-.07-.52-.18-.86-.67-.87-1.21-.08-7.28-1.52-14.37-2.91-20.35-.08-.36-.01-.74.2-1.04,2.33-3.35,4.31-6.56,5.89-9.56,3.93-7.57,2.84-14.08,1.19-23.93-.13-.82-.26-1.65-.4-2.5-.21-1.28-.42-2.59-.61-3.9l-13.05-90.3c-11.72-2.26-20.54-11.41-22.09-23.05-.97-7.13.93-14.25,5.35-20.04,4.56-5.98,11.21-9.82,18.73-10.82,1.26-.17,2.53-.25,3.79-.25,13.86,0,25.7,10.19,27.54,23.71,1.53,11.88-5.08,23.45-16.15,28.51l13.05,89.7c.27,1.84.59,3.98,1,6.07,1.82,10.88,3.69,22.11-2.99,34.9-3.84,7.29-9.29,15.24-16.21,23.65-.25.31-.62.47-1,.47Z"/>
              <path class="cls-3" d="M387.67,351.31c-.27,0-.54-.08-.76-.25-.3-.22-.49-.55-.53-.92-.48-4.73-1.03-9.28-1.62-13.53-1.73-12.61-4.04-29.28-6.59-46.38-.1-.68.34-1.32,1.02-1.46,3.76-.8,8.09-1.64,11.92-1.64,8.76,0,13.67,4.45,15.46,14,.39,2.13.89,4.39,1.43,6.79,2.18,9.74,4.66,20.79.57,29.68-4.08,8.93-12.71,11.93-20.6,13.68-.09.02-.19.03-.28.03Z"/>
            </g>
          </g>
        </g>
      </g>
    </g>
  </g>
</svg>