<?xml version="1.0" encoding="UTF-8"?>
<svg xmlns="http://www.w3.org/2000/svg" xmlns:xlink="http://www.w3.org/1999/xlink" viewBox="0 0 496.33 490.7">
  <defs>
    <style>
      .cls-1 {
        isolation: isolate;
      }

      .cls-2 {
        mix-blend-mode: overlay;
      }

      .cls-3 {
        stroke: #ffdbfc;
      }

      .cls-3, .cls-4 {
        fill: none;
        stroke-width: 1.82px;
      }

      .cls-4 {
        stroke: #eeb2ff;
      }
    </style>
  </defs>
  <g class="cls-1">
    <g id="Capa_2" data-name="Capa 2">
      <g id="effects">
        <g>
          <g>
            <path d="M201.93,304.64l20.01-31.42c.47-.78,1.09-1.32,1.78-1.86-24.2-18.54-40.57-43.75-47.09-72.38l-41.43,5.66c8.53,41.27,33.05,76.18,66.72,100Z"/>
            <path d="M337.06,336.68c.23,0,.54-.08.78-.16l-7.68-36.54v-.39c-6.36.78-12.64,1.24-18.93,1.24-26.92,0-52.91-7.29-75.48-21.1-.23.62-.31,1.24-.7,1.86l-20.01,31.42c34.83,20.4,77.58,29.71,122.03,23.66Z"/>
            <path d="M197.74,96.89c-10.4-7.91-21.33-15.36-32.43-22.34-25.44,33.82-36.85,74.16-32.43,114.81l41.43-5.66c-3.03-30.64,5.35-60.9,23.97-86.57-.31-.08-.39-.16-.54-.23Z"/>
            <path d="M398.81,62.84c.47-1.16,1.09-2.17,2.09-3.03l27.85-23.97C397.96,13.27,359.33,0,317.98,0c-3.26,0-6.52.16-9.7.31,1.24,12.8,2.79,24.36,4.96,37.47,30.8-.7,60.59,7.91,85.57,25.06Z"/>
            <path d="M207.74,85.26c22.65-25.06,53.76-41.43,88.51-46.16.47-.08.93-.08,1.47-.16-2.17-12.96-3.72-24.51-4.89-37.31-.54.08-1.09.08-1.63.16-45.61,6.28-86.26,27.77-115.82,60.74,10.86,6.9,21.57,14.2,31.73,21.95.23.23.39.54.62.78h0Z"/>
            <path d="M317.51,201.23c.47,8.07,1.4,16.06,2.87,23.97,3.96-.62,7.91-1.32,11.87-1.94l-4.5-23.35c-3.41.62-6.83,1.01-10.24,1.32h0Z"/>
            <path d="M410.53,71.84c22.19,19.08,36.62,44.22,41.89,72.38l41.27-5.66c-6.52-36.85-25.6-68.81-52.75-92.78-.08.08-.08.16-.16.23l-29.79,25.6-.47.23Z"/>
            <path d="M307.43,185.95c22.03.85,44.99-7.84,52.13-20.01,3.8-6.52,3.26-13.65-1.78-22.03-8.53-14.04-22.03-25.44-38.01-32.04-1.86-.78-3.8-1.16-5.82-1.16-4.19,0-8.61,1.63-13.27,4.96-18.39,12.96-30.8,43.99-25.37,55.39,4.19,8.61,16.21,14.2,32.12,14.89Z"/>
            <path d="M292.53,353.28c-21.41-1.78-41.81-7.06-60.82-14.89-.08.7-.08,1.32-.31,1.94-6.9,17.53-19.39,37.93-34.37,56.01-1.47,1.78-3.72,2.79-5.97,2.79-.85,0-1.71-.16-2.56-.47-26.84-9.39-46.31-20.17-61.28-33.75-11.4-10.4-18.23-21.33-20.25-32.5-2.56-13.89,5.43-33.44,21.33-40.42,9.7-4.27,24.9-5.35,42.67,13.58,2.95,3.1,2.79,8.07-.39,10.94-3.1,2.95-8.07,2.79-10.94-.39-9.23-9.85-17.69-13.27-25.06-10.01-8.53,3.72-13.73,15.9-12.33,23.43,1.4,7.76,6.59,15.83,15.44,23.82,12.41,11.33,28.63,20.48,50.81,28.7,12.41-15.67,22.65-32.81,28.47-47.55.39-.93.93-1.71,1.55-2.4-45.85-22.96-80.99-62.68-95.11-111.94-50.27,20.09-77.73,67.1-70.21,121.79,8.77,63.92,72.15,108.14,141.19,98.68,56.79-7.6,92.94-40.11,98.13-87.35h0Z"/>
            <path d="M215.04,100.31c-20.32,24.82-29.25,55.39-25.06,85.95s20.95,57.56,47.24,76.02c26.45,18.62,59.35,26.3,92.63,21.72s62.84-20.87,83.32-45.85c20.32-24.82,29.25-55.39,25.06-85.95s-20.95-57.56-47.24-76.02c-21.49-15.13-47.24-23.04-73.93-23.04-6.21,0-12.41.39-18.62,1.32-33.36,4.58-62.91,20.87-83.39,45.85h0ZM291.76,102.94c11.4-7.99,23.12-9.93,33.98-5.43,19.01,7.84,35.06,21.49,45.3,38.32,10.16,16.76,6.67,29.87,1.94,37.93-6.05,10.24-17.3,17.45-30.1,22.03l4.89,25.06c2.56-.39,5.12-.78,7.68-1.16,4.27-.62,8.15,2.33,8.77,6.59s-2.33,8.15-6.59,8.77c-18.15,2.64-36.62,5.59-54.77,8.69-.47.08-.85.08-1.32.08-3.72,0-6.98-2.64-7.6-6.44-.7-4.19,2.09-8.22,6.36-9,1.63-.31,3.34-.54,5.04-.85-1.71-8.77-2.72-17.69-3.18-26.61-19.63-1.94-34.37-10.24-40.65-23.27-10.08-20.48,8.53-59.5,30.25-74.71h0Z"/>
            <path d="M38.94,350.95c-.47.16-.85.39-1.32.47l-35.06,4.81c7.52,40.42,30.64,74.78,62.76,98.68,5.51-10.24,11.4-20.48,17.53-30.41-22.34-18.54-38.24-44.06-43.91-73.54h0Z"/>
            <path d="M495.86,153.91l-41.43,5.66c1.63,27-5.51,53.6-20.71,76.8l30.8,25.52c23.27-32.04,34.29-69.82,31.34-107.99h0Z"/>
            <path d="M353.04,333.73c39.95-8.84,75.4-29.71,101.55-59.73l-30.25-25.06c-20.09,24.13-47.79,40.88-79.05,48.1l7.76,36.69Z"/>
            <path d="M310.22,353.98c-.78,0-1.47-.08-2.17-.08-1.78,18-7.29,34.13-16.29,48.1,10.78,5.59,21.1,12.02,30.72,19.32,16.6-20.95,28.16-45.54,33.05-72.3-5.35,1.16-10.78,2.25-16.29,3.03-9.85,1.32-19.47,1.94-29.01,1.94h0Z"/>
            <path d="M201.69,455.29l4.5,32.81c42.12-6.83,79.05-26.76,106.05-55.08-9.39-6.98-19.39-13.19-29.94-18.46-18.46,20.79-46,34.99-80.6,40.73h0Z"/>
            <path d="M175.55,457.62c-29.56,0-57.33-8.69-80.21-23.82-6.05,9.77-11.79,19.78-17.22,29.87,32.12,19.7,71.45,29.79,112.64,26.38l-4.5-32.89c-3.57.31-7.14.47-10.71.47h0Z"/>
            <path d="M68.57,239.63c13.42-14.89,30.72-26.69,51.04-34.52-.54-3.03-1.24-5.97-1.71-9-1.16-8.77-1.71-17.53-1.55-26.22-30.8,11.25-56.86,29.79-76.57,52.91,9,6.13,18.39,11.79,28.24,16.52.23,0,.31.23.54.31Z"/>
            <path d="M36.84,336.14c-2.48-31.26,5.59-60.43,22.03-84.09-10.01-4.96-19.63-10.55-28.78-16.83C8.37,266.01-2.64,303.01.54,340.87l34.91-4.81c.54-.08.93.08,1.4.08Z"/>
          </g>
          <g>
            <g>
              <path class="cls-4" d="M201.93,305.51c-.18,0-.35-.05-.5-.16-34.96-24.73-58.77-60.43-67.06-100.53-.05-.23,0-.48.14-.68s.35-.33.59-.36l41.42-5.66s.08,0,.12,0c.4,0,.75.28.84.67,6.5,28.57,22.68,53.43,46.77,71.88.21.16.34.42.34.68,0,.27-.12.52-.33.69-.69.54-1.2,1-1.57,1.62l-20.03,31.44c-.13.2-.33.34-.56.38-.06.01-.11.02-.17.02Z"/>
              <path class="cls-4" d="M310.3,339.37c-34.02,0-67.11-8.85-95.7-25.6-.2-.12-.35-.32-.4-.54-.06-.23-.01-.47.11-.67l20.01-31.42c.19-.31.29-.63.4-1.02.07-.23.13-.46.22-.69.09-.24.29-.43.53-.51.09-.03.19-.05.28-.05.16,0,.31.04.45.13,22.43,13.72,48.38,20.97,75.03,20.97,5.85,0,12.01-.4,18.82-1.23.03,0,.07,0,.1,0,.21,0,.42.08.57.22.19.16.29.4.29.65v.3l7.66,36.45c.09.43-.16.86-.57,1-.21.07-.61.19-.98.2-8.9,1.21-17.93,1.82-26.83,1.82h0Z"/>
              <path class="cls-4" d="M132.88,190.23c-.19,0-.38-.06-.53-.18-.18-.14-.3-.36-.33-.59-4.42-40.62,7.16-81.61,32.59-115.43.17-.23.43-.35.69-.35.16,0,.32.04.46.13,11.79,7.42,22.7,14.94,32.44,22.35l.06.03c.08.04.1.06.22.09.28.07.5.27.6.54.1.27.06.57-.11.8-18.6,25.65-26.83,55.38-23.81,85.98.04.46-.28.88-.75.94l-41.42,5.66s-.08,0-.12,0Z"/>
              <path class="cls-4" d="M398.81,63.7c-.17,0-.34-.05-.49-.15-23.78-16.32-52-24.94-81.61-24.94-1.15,0-2.3.01-3.45.04,0,0-.01,0-.02,0-.42,0-.79-.31-.85-.72-2.22-13.43-3.76-25-4.97-37.53-.02-.24.05-.47.21-.65s.38-.29.61-.3c2.99-.15,6.38-.31,9.74-.31,40.09,0,79.61,12.79,111.29,36.01.21.16.34.4.35.67.01.26-.1.52-.3.69l-27.85,23.97c-.82.69-1.39,1.52-1.85,2.69-.1.24-.3.43-.55.51-.08.03-.17.04-.25.04Z"/>
              <path class="cls-4" d="M207.74,86.12c-.23,0-.45-.09-.61-.25-.15-.15-.28-.32-.4-.5-.06-.08-.12-.17-.18-.24-9.37-7.15-19.71-14.3-31.62-21.87-.21-.14-.36-.36-.39-.61-.03-.25.04-.51.21-.7C204.43,28.84,245.75,7.17,291.1.93c.29-.04.58-.06.87-.08.25-.02.5-.04.75-.07.04,0,.08,0,.12,0,.19,0,.38.06.54.19.19.15.3.36.33.6,1.12,12.31,2.62,23.8,4.88,37.25.04.23-.02.47-.16.65s-.35.31-.58.35c-.28.04-.54.06-.79.08-.23.02-.45.03-.66.07-34.23,4.66-65.48,20.95-88.01,45.88-.16.18-.38.28-.62.28,0,0-.01,0-.02,0Z"/>
              <path class="cls-4" d="M320.38,226.07c-.41,0-.77-.29-.85-.71-1.44-7.71-2.41-15.81-2.88-24.08-.03-.47.32-.87.79-.91,4.11-.37,7.24-.78,10.16-1.31.05,0,.1-.01.16-.01.41,0,.77.29.85.7l4.5,23.35c.04.23,0,.47-.14.66-.14.19-.34.32-.58.36-1.97.31-3.95.64-5.93.97-1.98.33-3.96.66-5.94.97-.04,0-.09.01-.13.01Z"/>
              <path class="cls-4" d="M452.42,145.08c-.41,0-.77-.29-.85-.71-5.27-28.15-19.66-53.01-41.6-71.88-.22-.19-.33-.48-.29-.76.04-.29.21-.54.47-.67l.37-.18,29.61-25.45c.04-.07.1-.17.2-.27.17-.17.39-.26.61-.26.2,0,.41.07.57.22,28.32,25.01,46.66,57.26,53.03,93.28.04.23-.01.47-.15.66-.14.19-.35.32-.58.35l-41.27,5.66s-.08,0-.12,0Z"/>
              <path class="cls-4" d="M310.43,186.87c-1.01,0-2.03-.02-3.04-.06-16.24-.71-28.52-6.46-32.86-15.38-5.66-11.88,6.65-43.09,25.65-56.48,4.74-3.4,9.38-5.12,13.76-5.12,2.12,0,4.19.41,6.15,1.23,16.12,6.65,29.77,18.16,38.42,32.39,5.18,8.61,5.77,16.1,1.79,22.92-6.85,11.69-28.29,20.5-49.87,20.5h0Z"/>
              <path class="cls-4" d="M175.78,442.77c-30.14,0-59.22-10.08-81.89-28.37-22.92-18.5-37.67-44.19-41.53-72.33-3.71-26.97.97-52.7,13.54-74.42,12.52-21.64,32.3-38.34,57.2-48.29.1-.04.21-.06.32-.06.13,0,.26.03.38.09.22.11.38.3.45.54,13.61,47.49,48.11,88.09,94.66,111.41.24.12.41.35.46.61.05.26-.02.54-.2.74-.64.72-1.08,1.41-1.4,2.16-5.83,14.77-16.25,32.18-28.59,47.76-.17.21-.42.33-.68.33-.1,0-.2-.02-.3-.05-22.35-8.28-38.58-17.46-51.09-28.88-8.98-8.11-14.26-16.29-15.71-24.3-1.46-7.86,3.94-20.49,12.84-24.38,1.9-.84,3.91-1.27,5.96-1.27,6.18,0,12.94,3.86,20.08,11.48,1.28,1.42,3.1,2.22,5.01,2.22,1.76,0,3.43-.66,4.7-1.87,1.37-1.23,2.15-2.92,2.22-4.75.07-1.86-.59-3.62-1.87-4.96-9.9-10.55-19.99-15.9-30.01-15.9-3.96,0-7.89.85-11.68,2.52-15.55,6.83-23.33,25.92-20.83,39.47,1.98,10.97,8.7,21.74,19.98,32.02,14.99,13.59,34.37,24.26,60.99,33.57.76.28,1.53.42,2.27.42,2.04,0,4.02-.93,5.3-2.48,14.86-17.94,27.33-38.26,34.23-55.78.13-.35.17-.76.21-1.22.01-.16.03-.33.05-.49.03-.27.19-.51.42-.65.14-.08.29-.12.44-.12.11,0,.22.02.33.07,19.74,8.14,40.12,13.13,60.56,14.83.23.02.45.13.6.31.15.18.22.41.19.65-2.58,23.44-12.96,43.87-30.01,59.09-17.07,15.24-40.89,25.28-68.87,29.02-6.21.85-12.52,1.28-18.74,1.28Z"/>
              <path class="cls-4" d="M311.1,286.16c-27.12,0-52.84-8.01-74.37-23.17-26.47-18.59-43.38-45.8-47.6-76.61-4.22-30.82,4.74-61.58,25.25-86.62,20.63-25.17,50.45-41.56,83.95-46.16,5.95-.89,12.08-1.33,18.74-1.33,27.13,0,52.87,8.02,74.43,23.2,26.47,18.58,43.38,45.79,47.6,76.61,4.22,30.82-4.74,61.58-25.25,86.62-20.63,25.16-50.42,41.56-83.87,46.16-6.27.86-12.61,1.3-18.87,1.3h0ZM313.96,96c-7.16,0-14.46,2.57-21.71,7.65-21.5,15.05-39.9,53.45-29.97,73.61,6.06,12.58,20.63,20.88,39.96,22.79.43.04.76.39.78.82.48,9.27,1.55,18.18,3.17,26.49.04.23,0,.46-.14.65-.13.19-.33.32-.56.36-.8.15-1.59.27-2.38.4-.9.14-1.79.29-2.65.45-3.75.68-6.29,4.27-5.67,8.01.54,3.31,3.38,5.72,6.75,5.72.44,0,.78,0,1.18-.07,18.91-3.23,37.34-6.16,54.79-8.69,1.84-.27,3.46-1.22,4.56-2.68,1.1-1.46,1.56-3.27,1.3-5.1-.5-3.44-3.35-5.94-6.77-5.94-.33,0-.67.02-1.01.07l-7.67,1.16s-.09,0-.13,0c-.41,0-.77-.29-.85-.7l-4.89-25.06c-.08-.42.16-.84.56-.98,13.98-5,24.23-12.49,29.65-21.66,4.6-7.85,8.01-20.65-1.93-37.04-10.19-16.75-26.13-30.24-44.89-37.97-3.7-1.53-7.55-2.31-11.44-2.31Z"/>
              <path class="cls-4" d="M65.31,455.77c-.18,0-.37-.06-.52-.17-33.4-24.85-55.81-60.08-63.09-99.21-.04-.23.01-.47.15-.67s.35-.32.58-.35l35.06-4.81c.17-.03.37-.11.61-.21.18-.08.36-.15.56-.22.09-.03.18-.04.27-.04.15,0,.3.04.44.12.22.13.37.34.41.58,5.43,28.27,20.92,54.21,43.61,73.04.33.28.41.75.18,1.12-6.06,9.83-11.95,20.04-17.51,30.36-.12.22-.33.38-.57.44-.06.01-.13.02-.19.02Z"/>
              <path class="cls-4" d="M464.52,262.76c-.2,0-.4-.07-.55-.2l-30.8-25.52c-.34-.28-.41-.77-.17-1.14,15.08-23.01,22.2-49.38,20.57-76.27-.03-.45.3-.85.75-.91l41.43-5.66s.08,0,.12,0c.2,0,.39.07.54.19.19.15.3.37.32.61,2.98,38.55-7.92,76.09-31.5,108.56-.14.19-.36.32-.59.35-.04,0-.07,0-.11,0Z"/>
              <path class="cls-4" d="M353.04,334.6c-.17,0-.33-.05-.47-.14-.19-.12-.33-.32-.38-.55l-7.76-36.69c-.1-.46.19-.92.65-1.02,31.39-7.24,58.56-23.78,78.58-47.81.17-.21.42-.31.67-.31.2,0,.39.07.55.2l30.25,25.06c.18.15.29.36.31.6.02.23-.06.46-.21.64-26.41,30.33-61.69,51.08-102.01,60.01-.06.01-.12.02-.19.02Z"/>
              <path class="cls-4" d="M322.48,422.18c-.18,0-.37-.06-.52-.18-9.37-7.1-19.66-13.57-30.59-19.24-.22-.11-.38-.31-.44-.55-.06-.24-.02-.49.11-.69,8.96-13.91,14.4-29.96,16.16-47.71.04-.44.42-.78.86-.78.36,0,.71.02,1.08.04.35.02.71.04,1.1.04,9.74,0,19.19-.63,28.9-1.93,5.94-.84,11.79-2.05,16.22-3.01.06-.01.12-.02.18-.02.22,0,.44.09.6.24.21.2.3.49.25.78-4.78,26.16-16.26,51.29-33.22,72.68-.17.22-.42.33-.68.33Z"/>
              <path class="cls-4" d="M206.19,488.97c-.18,0-.37-.06-.51-.17-.19-.14-.31-.35-.34-.58l-4.5-32.81c-.06-.46.25-.9.72-.97,33.89-5.62,61.59-19.61,80.09-40.45.17-.19.41-.29.65-.29.13,0,.26.03.39.09,10.41,5.21,20.53,11.45,30.07,18.54.2.15.33.37.35.62.02.25-.07.49-.24.67-27.68,29.04-65.52,48.69-106.53,55.34-.05,0-.09.01-.14.01Z"/>
              <path class="cls-4" d="M174.94,491.57c-34.68,0-68.32-9.39-97.28-27.16-.39-.24-.53-.74-.31-1.15,5.62-10.44,11.42-20.5,17.25-29.91.12-.2.32-.34.55-.39.06-.01.12-.02.19-.02.17,0,.33.05.48.14,23.43,15.49,51,23.67,79.74,23.67,3.52,0,7.1-.16,10.63-.46.03,0,.05,0,.08,0,.43,0,.8.32.86.75l4.5,32.89c.03.24-.03.47-.18.66-.15.19-.37.3-.6.32-5.27.44-10.62.66-15.89.66Z"/>
              <path class="cls-4" d="M68.57,240.5c-.09,0-.18-.01-.27-.04-.24-.08-.4-.21-.51-.3-.05-.01-.09-.03-.14-.05-9.11-4.38-18.39-9.8-28.35-16.59-.2-.14-.34-.36-.37-.6s.04-.49.2-.68c20.29-23.81,46.89-42.19,76.93-53.16.1-.04.2-.05.3-.05.18,0,.35.05.5.16.23.17.37.44.36.72-.15,8.45.37,17.23,1.54,26.09.27,1.75.63,3.54.98,5.27.25,1.23.5,2.45.72,3.69.07.41-.15.81-.54.96-20.15,7.77-37.21,19.3-50.71,34.29-.17.19-.4.29-.64.29Z"/>
              <path class="cls-4" d="M.54,341.73c-.2,0-.39-.07-.54-.19-.19-.15-.3-.37-.32-.6-3.1-36.94,7.45-74.66,29.71-106.23.17-.24.44-.37.71-.37.17,0,.34.05.49.15,8.87,6.09,18.52,11.73,28.67,16.77.23.11.39.32.45.56.06.24.02.5-.13.71-16.74,24.08-24.31,52.97-21.88,83.53.02.24-.06.48-.23.66-.16.18-.39.28-.64.28-.23,0-.44-.03-.65-.06-.14-.02-.28-.04-.44-.04-.06,0-.12,0-.19.01l-34.91,4.81s-.08,0-.12,0Z"/>
            </g>
          </g>
          <g>
            <use transform="translate(-10.01 -10.02) scale(.24)" xlink:href="#image"/>
            <g>
              <path class="cls-3" d="M201.93,305.94c-.27,0-.53-.08-.75-.24-35.04-24.79-58.92-60.58-67.24-100.79-.07-.35,0-.72.21-1.01s.53-.49.88-.54l41.42-5.66c.06,0,.12-.01.18-.01.6,0,1.13.41,1.27,1.01,6.48,28.47,22.6,53.24,46.61,71.64.32.24.51.62.51,1.03,0,.4-.18.78-.5,1.03-.65.51-1.13.94-1.47,1.51l-20.03,31.45c-.19.3-.5.51-.85.58-.08.02-.17.02-.25.02Z"/>
              <path class="cls-3" d="M310.3,339.8c-34.09,0-67.26-8.87-95.92-25.66-.3-.18-.52-.47-.61-.82-.08-.34-.02-.71.17-1l20.01-31.42c.16-.25.24-.54.35-.9.07-.24.14-.48.23-.72.14-.36.43-.65.79-.77.14-.05.28-.07.42-.07.24,0,.47.06.68.19,22.36,13.68,48.23,20.91,74.8,20.91,5.84,0,11.98-.4,18.77-1.23.05,0,.1,0,.16,0,.32,0,.62.12.86.33.28.25.44.6.44.97v.25l7.65,36.41c.14.65-.23,1.29-.86,1.5-.28.09-.68.2-1.08.22-8.92,1.21-17.95,1.82-26.87,1.82h0Z"/>
              <path class="cls-3" d="M132.88,190.66c-.29,0-.57-.1-.8-.28-.28-.22-.45-.53-.49-.88-4.43-40.73,7.18-81.83,32.68-115.73.25-.34.64-.52,1.04-.52.24,0,.48.06.69.2,11.78,7.42,22.7,14.93,32.44,22.34.02,0,.03.02.05.03.42.1.81.43.96.84.15.41.14.88-.11,1.23-18.53,25.56-26.74,55.19-23.73,85.68.07.69-.42,1.32-1.12,1.41l-41.42,5.66c-.06,0-.12.01-.18.01Z"/>
              <path class="cls-3" d="M398.81,64.14c-.26,0-.52-.08-.74-.23-23.7-16.27-51.84-24.87-81.37-24.87-1.14,0-2.29.01-3.44.04,0,0-.02,0-.03,0-.63,0-1.18-.46-1.28-1.09-2.23-13.44-3.76-25.02-4.98-37.56-.03-.35.08-.71.31-.98.23-.27.57-.43.92-.45,3-.15,6.39-.31,9.76-.31,40.18,0,79.79,12.82,111.55,36.09.32.23.51.6.53,1,.02.4-.15.78-.45,1.04l-27.85,23.97c-.76.65-1.29,1.42-1.74,2.52-.15.37-.45.65-.83.76-.12.04-.25.06-.38.06Z"/>
              <path class="cls-3" d="M207.74,86.55c-.34,0-.67-.14-.92-.38-.17-.17-.31-.36-.45-.55-.04-.06-.08-.12-.13-.18-9.35-7.13-19.67-14.27-31.55-21.82-.32-.21-.54-.54-.59-.92s.06-.76.32-1.04C204.17,28.48,245.59,6.76,291.04.5c.3-.04.6-.06.9-.09.24-.02.48-.03.72-.07.06,0,.12-.01.18-.01.29,0,.58.1.81.28.28.22.46.55.49.9,1.12,12.3,2.62,23.77,4.87,37.22.06.35-.03.7-.23.98-.21.28-.52.47-.87.52-.29.04-.56.06-.82.08-.22.02-.42.03-.63.07-34.14,4.65-65.29,20.89-87.76,45.75-.24.26-.57.42-.93.43-.01,0-.02,0-.03,0Z"/>
              <path class="cls-3" d="M320.38,226.5c-.62,0-1.16-.44-1.28-1.06-1.44-7.73-2.41-15.85-2.89-24.13-.04-.7.48-1.31,1.18-1.37,4.09-.37,7.22-.77,10.13-1.3.08-.01.16-.02.23-.02.61,0,1.16.43,1.27,1.05l4.5,23.35c.07.35,0,.7-.21.99-.2.29-.51.48-.86.54-1.97.31-3.95.64-5.92.97-1.98.33-3.96.66-5.95.97-.07.01-.14.02-.2.02Z"/>
              <path class="cls-3" d="M452.42,145.51c-.62,0-1.16-.44-1.28-1.06-5.25-28.05-19.59-52.82-41.46-71.63-.33-.28-.5-.71-.44-1.14.05-.43.32-.81.71-1l.32-.16,29.52-25.37c.05-.09.13-.19.23-.29.25-.25.59-.38.92-.38.31,0,.61.11.86.33,28.4,25.07,46.79,57.41,53.17,93.53.06.35-.02.71-.23.99s-.52.47-.87.52l-41.27,5.66c-.06,0-.12.01-.18.01Z"/>
              <path class="cls-3" d="M310.43,187.31c-1.02,0-2.04-.02-3.05-.06-16.4-.72-28.82-6.56-33.23-15.62-5.73-12.02,6.65-43.53,25.79-57.02,4.81-3.45,9.53-5.2,14.01-5.2,2.18,0,4.3.43,6.32,1.26,16.21,6.69,29.93,18.25,38.62,32.56,5.27,8.76,5.86,16.4,1.8,23.36-6.92,11.81-28.52,20.72-50.25,20.72h0Z"/>
              <path class="cls-3" d="M175.78,443.2c-30.24,0-59.42-10.11-82.16-28.47-23.01-18.57-37.82-44.35-41.69-72.61-3.72-27.06.98-52.89,13.59-74.7,12.57-21.73,32.42-38.49,57.42-48.48.16-.06.32-.09.48-.09.2,0,.39.04.57.13.33.16.58.46.68.81,13.58,47.37,48,87.88,94.44,111.14.36.18.62.52.69.92.08.4-.04.81-.31,1.11-.61.68-1.03,1.33-1.32,2.04-5.84,14.8-16.29,32.25-28.65,47.86-.25.32-.63.49-1.02.49-.15,0-.3-.03-.45-.08-22.4-8.3-38.68-17.51-51.24-28.96-9.05-8.18-14.38-16.44-15.84-24.55-1.49-8.01,4.02-20.89,13.09-24.85,1.96-.87,4.02-1.31,6.13-1.31,6.31,0,13.17,3.91,20.39,11.62,1.2,1.33,2.91,2.09,4.7,2.09,1.65,0,3.21-.62,4.4-1.75,1.29-1.16,2.02-2.74,2.09-4.46.07-1.74-.55-3.39-1.75-4.64-9.82-10.46-19.81-15.76-29.69-15.76-3.9,0-7.77.83-11.51,2.48-15.37,6.75-23.05,25.61-20.58,38.99,1.96,10.88,8.64,21.57,19.85,31.78,14.95,13.55,34.28,24.19,60.84,33.48.72.26,1.43.39,2.13.39,1.91,0,3.77-.87,4.97-2.32,14.83-17.9,27.28-38.19,34.16-55.66.11-.29.14-.65.18-1.1.01-.16.03-.33.05-.5.04-.41.28-.77.63-.98.2-.12.43-.18.66-.18.17,0,.34.03.5.1,19.7,8.12,40.03,13.1,60.43,14.8.35.03.67.2.9.47s.33.62.29.97c-2.59,23.55-13.01,44.08-30.15,59.37-17.14,15.3-41.04,25.37-69.1,29.13-6.23.85-12.55,1.29-18.79,1.29h0Z"/>
              <path class="cls-3" d="M311.1,286.59c-27.21,0-53.01-8.04-74.62-23.25-26.57-18.66-43.54-45.97-47.78-76.91-4.24-30.94,4.76-61.82,25.34-86.95,20.7-25.25,50.61-41.7,84.22-46.31,5.96-.9,12.12-1.33,18.79-1.33,27.22,0,53.05,8.05,74.68,23.28,26.57,18.65,43.54,45.97,47.78,76.91,4.24,30.94-4.76,61.82-25.34,86.95-20.7,25.25-50.58,41.7-84.14,46.31-6.28.86-12.65,1.3-18.92,1.3h0ZM313.96,96.44c-7.07,0-14.29,2.55-21.46,7.57-21.37,14.96-39.68,53.08-29.83,73.07,6,12.44,20.43,20.66,39.61,22.55.64.06,1.14.58,1.17,1.23.48,9.25,1.54,18.14,3.16,26.43.07.34,0,.69-.2.98-.2.29-.5.48-.84.55-.8.15-1.6.27-2.39.4-.89.14-1.78.29-2.64.45-3.52.64-5.91,4.01-5.32,7.51.51,3.1,3.17,5.35,6.32,5.35.43,0,.75,0,1.1-.06,18.91-3.23,37.35-6.16,54.8-8.69,1.73-.25,3.25-1.14,4.28-2.51s1.46-3.07,1.22-4.78c-.47-3.22-3.14-5.56-6.35-5.56-.31,0-.63.02-.95.07l-7.67,1.16c-.07,0-.13.01-.2.01-.61,0-1.15-.43-1.27-1.05l-4.89-25.06c-.12-.63.23-1.26.84-1.47,13.88-4.96,24.05-12.39,29.42-21.47,4.54-7.75,7.9-20.39-1.93-36.6-10.14-16.67-26.01-30.1-44.69-37.79-3.65-1.51-7.44-2.28-11.28-2.28Z"/>
              <path class="cls-3" d="M65.31,456.2c-.28,0-.55-.09-.78-.26-33.49-24.91-55.96-60.24-63.26-99.48-.06-.35.02-.71.22-1,.21-.29.52-.48.88-.53l35.06-4.81c.11-.02.29-.09.5-.18.19-.08.38-.16.59-.23.13-.04.27-.07.41-.07.23,0,.46.06.66.18.32.19.55.51.62.88,5.41,28.17,20.85,54.02,43.46,72.79.5.41.62,1.13.28,1.68-6.06,9.82-11.95,20.03-17.49,30.34-.18.33-.49.57-.86.65-.09.02-.19.03-.28.03Z"/>
              <path class="cls-3" d="M464.52,263.2c-.3,0-.59-.1-.83-.3l-30.8-25.52c-.51-.42-.62-1.16-.26-1.71,15.03-22.93,22.12-49.21,20.5-76.01-.04-.68.45-1.27,1.12-1.37l41.43-5.66c.06,0,.12-.01.18-.01.29,0,.58.1.82.29.28.22.45.55.48.91,2.99,38.65-7.94,76.29-31.58,108.85-.21.29-.53.48-.89.53-.05,0-.11.01-.16.01Z"/>
              <path class="cls-3" d="M353.04,335.03c-.25,0-.49-.07-.7-.21-.29-.19-.5-.48-.57-.82l-7.76-36.69c-.15-.69.29-1.38.98-1.53,31.3-7.22,58.39-23.7,78.34-47.66.26-.31.63-.47,1-.47.29,0,.58.1.83.3l30.25,25.06c.27.22.44.55.47.9s-.08.69-.32.96c-26.48,30.4-61.83,51.2-102.25,60.15-.09.02-.19.03-.28.03Z"/>
              <path class="cls-3" d="M322.48,422.61c-.27,0-.55-.09-.78-.26-9.35-7.09-19.62-13.55-30.53-19.2-.33-.17-.56-.47-.66-.82-.09-.35-.03-.73.16-1.04,8.92-13.85,14.34-29.84,16.09-47.52.07-.67.62-1.17,1.29-1.17.36,0,.73.02,1.1.04.34.02.7.04,1.07.04,9.72,0,19.15-.63,28.84-1.93,5.92-.83,11.76-2.05,16.19-3.01.09-.02.18-.03.28-.03.33,0,.66.13.9.37.31.3.45.74.38,1.17-4.79,26.23-16.31,51.42-33.31,72.87-.26.32-.64.49-1.02.49Z"/>
              <path class="cls-3" d="M206.19,489.41c-.28,0-.55-.09-.77-.25-.28-.21-.47-.52-.51-.87l-4.5-32.81c-.1-.7.38-1.34,1.07-1.46,33.79-5.61,61.4-19.55,79.84-40.31.25-.28.61-.44.97-.44.2,0,.4.04.58.14,10.44,5.22,20.58,11.47,30.14,18.58.3.22.49.56.52.93.03.37-.1.74-.35,1.01-27.75,29.1-65.67,48.8-106.78,55.46-.07.01-.14.02-.21.02Z"/>
              <path class="cls-3" d="M174.94,492c-34.76,0-68.48-9.41-97.5-27.22-.59-.36-.79-1.12-.46-1.72,5.62-10.45,11.43-20.52,17.26-29.93.18-.3.48-.51.83-.59.09-.02.19-.03.28-.03.25,0,.5.07.72.22,23.36,15.44,50.85,23.6,79.5,23.6,3.51,0,7.08-.15,10.59-.46.04,0,.08,0,.11,0,.64,0,1.2.48,1.29,1.12l4.5,32.89c.05.35-.05.71-.27.99-.22.28-.55.45-.91.48-5.28.44-10.64.66-15.92.66Z"/>
              <path class="cls-3" d="M68.57,240.93c-.14,0-.28-.02-.41-.07-.26-.09-.46-.22-.58-.33-.04-.01-.07-.03-.11-.05-9.13-4.39-18.43-9.82-28.41-16.62-.3-.21-.51-.54-.56-.9-.05-.37.06-.73.3-1.02,20.34-23.86,47-42.29,77.11-53.28.14-.05.29-.08.45-.08.27,0,.53.08.75.24.35.25.55.65.54,1.08-.15,8.43.37,17.19,1.54,26.03.27,1.73.63,3.51.98,5.24.25,1.23.5,2.46.72,3.7.11.61-.23,1.22-.81,1.44-20.08,7.74-37.09,19.24-50.55,34.18-.25.28-.6.43-.96.43Z"/>
              <path class="cls-3" d="M.54,342.17c-.29,0-.58-.1-.81-.29-.28-.22-.45-.55-.48-.91-3.11-37.04,7.47-74.87,29.79-106.52.25-.36.65-.55,1.06-.55.25,0,.51.07.73.23,8.86,6.08,18.49,11.71,28.62,16.74.34.17.59.48.68.84.09.37.02.75-.19,1.06-16.68,24-24.22,52.79-21.8,83.25.03.36-.09.72-.34.98-.25.27-.59.42-.95.42-.25,0-.48-.03-.71-.06-.12-.02-.24-.04-.38-.04-.04,0-.08,0-.12,0l-34.92,4.81c-.06,0-.12.01-.18.01Z"/>
            </g>
          </g>
          <g class="cls-2">
            <use transform="translate(-10.01 -10.02) scale(.24)" xlink:href="#image"/>
            <g>
              <path class="cls-3" d="M201.93,305.94c-.27,0-.53-.08-.75-.24-35.04-24.79-58.92-60.58-67.24-100.79-.07-.35,0-.72.21-1.01s.53-.49.88-.54l41.42-5.66c.06,0,.12-.01.18-.01.6,0,1.13.41,1.27,1.01,6.48,28.47,22.6,53.24,46.61,71.64.32.24.51.62.51,1.03,0,.4-.18.78-.5,1.03-.65.51-1.13.94-1.47,1.51l-20.03,31.45c-.19.3-.5.51-.85.58-.08.02-.17.02-.25.02Z"/>
              <path class="cls-3" d="M310.3,339.8c-34.09,0-67.26-8.87-95.92-25.66-.3-.18-.52-.47-.61-.82-.08-.34-.02-.71.17-1l20.01-31.42c.16-.25.24-.54.35-.9.07-.24.14-.48.23-.72.14-.36.43-.65.79-.77.14-.05.28-.07.42-.07.24,0,.47.06.68.19,22.36,13.68,48.23,20.91,74.8,20.91,5.84,0,11.98-.4,18.77-1.23.05,0,.1,0,.16,0,.32,0,.62.12.86.33.28.25.44.6.44.97v.25l7.65,36.41c.14.65-.23,1.29-.86,1.5-.28.09-.68.2-1.08.22-8.92,1.21-17.95,1.82-26.87,1.82h0Z"/>
              <path class="cls-3" d="M132.88,190.66c-.29,0-.57-.1-.8-.28-.28-.22-.45-.53-.49-.88-4.43-40.73,7.18-81.83,32.68-115.73.25-.34.64-.52,1.04-.52.24,0,.48.06.69.2,11.78,7.42,22.7,14.93,32.44,22.34.02,0,.03.02.05.03.42.1.81.43.96.84.15.41.14.88-.11,1.23-18.53,25.56-26.74,55.19-23.73,85.68.07.69-.42,1.32-1.12,1.41l-41.42,5.66c-.06,0-.12.01-.18.01Z"/>
              <path class="cls-3" d="M398.81,64.14c-.26,0-.52-.08-.74-.23-23.7-16.27-51.84-24.87-81.37-24.87-1.14,0-2.29.01-3.44.04,0,0-.02,0-.03,0-.63,0-1.18-.46-1.28-1.09-2.23-13.44-3.76-25.02-4.98-37.56-.03-.35.08-.71.31-.98.23-.27.57-.43.92-.45,3-.15,6.39-.31,9.76-.31,40.18,0,79.79,12.82,111.55,36.09.32.23.51.6.53,1,.02.4-.15.78-.45,1.04l-27.85,23.97c-.76.65-1.29,1.42-1.74,2.52-.15.37-.45.65-.83.76-.12.04-.25.06-.38.06Z"/>
              <path class="cls-3" d="M207.74,86.55c-.34,0-.67-.14-.92-.38-.17-.17-.31-.36-.45-.55-.04-.06-.08-.12-.13-.18-9.35-7.13-19.67-14.27-31.55-21.82-.32-.21-.54-.54-.59-.92s.06-.76.32-1.04C204.17,28.48,245.59,6.76,291.04.5c.3-.04.6-.06.9-.09.24-.02.48-.03.72-.07.06,0,.12-.01.18-.01.29,0,.58.1.81.28.28.22.46.55.49.9,1.12,12.3,2.62,23.77,4.87,37.22.06.35-.03.7-.23.98-.21.28-.52.47-.87.52-.29.04-.56.06-.82.08-.22.02-.42.03-.63.07-34.14,4.65-65.29,20.89-87.76,45.75-.24.26-.57.42-.93.43-.01,0-.02,0-.03,0Z"/>
              <path class="cls-3" d="M320.38,226.5c-.62,0-1.16-.44-1.28-1.06-1.44-7.73-2.41-15.85-2.89-24.13-.04-.7.48-1.31,1.18-1.37,4.09-.37,7.22-.77,10.13-1.3.08-.01.16-.02.23-.02.61,0,1.16.43,1.27,1.05l4.5,23.35c.07.35,0,.7-.21.99-.2.29-.51.48-.86.54-1.97.31-3.95.64-5.92.97-1.98.33-3.96.66-5.95.97-.07.01-.14.02-.2.02Z"/>
              <path class="cls-3" d="M452.42,145.51c-.62,0-1.16-.44-1.28-1.06-5.25-28.05-19.59-52.82-41.46-71.63-.33-.28-.5-.71-.44-1.14.05-.43.32-.81.71-1l.32-.16,29.52-25.37c.05-.09.13-.19.23-.29.25-.25.59-.38.92-.38.31,0,.61.11.86.33,28.4,25.07,46.79,57.41,53.17,93.53.06.35-.02.71-.23.99s-.52.47-.87.52l-41.27,5.66c-.06,0-.12.01-.18.01Z"/>
              <path class="cls-3" d="M310.43,187.31c-1.02,0-2.04-.02-3.05-.06-16.4-.72-28.82-6.56-33.23-15.62-5.73-12.02,6.65-43.53,25.79-57.02,4.81-3.45,9.53-5.2,14.01-5.2,2.18,0,4.3.43,6.32,1.26,16.21,6.69,29.93,18.25,38.62,32.56,5.27,8.76,5.86,16.4,1.8,23.36-6.92,11.81-28.52,20.72-50.25,20.72h0Z"/>
              <path class="cls-3" d="M175.78,443.2c-30.24,0-59.42-10.11-82.16-28.47-23.01-18.57-37.82-44.35-41.69-72.61-3.72-27.06.98-52.89,13.59-74.7,12.57-21.73,32.42-38.49,57.42-48.48.16-.06.32-.09.48-.09.2,0,.39.04.57.13.33.16.58.46.68.81,13.58,47.37,48,87.88,94.44,111.14.36.18.62.52.69.92.08.4-.04.81-.31,1.11-.61.68-1.03,1.33-1.32,2.04-5.84,14.8-16.29,32.25-28.65,47.86-.25.32-.63.49-1.02.49-.15,0-.3-.03-.45-.08-22.4-8.3-38.68-17.51-51.24-28.96-9.05-8.18-14.38-16.44-15.84-24.55-1.49-8.01,4.02-20.89,13.09-24.85,1.96-.87,4.02-1.31,6.13-1.31,6.31,0,13.17,3.91,20.39,11.62,1.2,1.33,2.91,2.09,4.7,2.09,1.65,0,3.21-.62,4.4-1.75,1.29-1.16,2.02-2.74,2.09-4.46.07-1.74-.55-3.39-1.75-4.64-9.82-10.46-19.81-15.76-29.69-15.76-3.9,0-7.77.83-11.51,2.48-15.37,6.75-23.05,25.61-20.58,38.99,1.96,10.88,8.64,21.57,19.85,31.78,14.95,13.55,34.28,24.19,60.84,33.48.72.26,1.43.39,2.13.39,1.91,0,3.77-.87,4.97-2.32,14.83-17.9,27.28-38.19,34.16-55.66.11-.29.14-.65.18-1.1.01-.16.03-.33.05-.5.04-.41.28-.77.63-.98.2-.12.43-.18.66-.18.17,0,.34.03.5.1,19.7,8.12,40.03,13.1,60.43,14.8.35.03.67.2.9.47s.33.62.29.97c-2.59,23.55-13.01,44.08-30.15,59.37-17.14,15.3-41.04,25.37-69.1,29.13-6.23.85-12.55,1.29-18.79,1.29h0Z"/>
              <path class="cls-3" d="M311.1,286.59c-27.21,0-53.01-8.04-74.62-23.25-26.57-18.66-43.54-45.97-47.78-76.91-4.24-30.94,4.76-61.82,25.34-86.95,20.7-25.25,50.61-41.7,84.22-46.31,5.96-.9,12.12-1.33,18.79-1.33,27.22,0,53.05,8.05,74.68,23.28,26.57,18.65,43.54,45.97,47.78,76.91,4.24,30.94-4.76,61.82-25.34,86.95-20.7,25.25-50.58,41.7-84.14,46.31-6.28.86-12.65,1.3-18.92,1.3h0ZM313.96,96.44c-7.07,0-14.29,2.55-21.46,7.57-21.37,14.96-39.68,53.08-29.83,73.07,6,12.44,20.43,20.66,39.61,22.55.64.06,1.14.58,1.17,1.23.48,9.25,1.54,18.14,3.16,26.43.07.34,0,.69-.2.98-.2.29-.5.48-.84.55-.8.15-1.6.27-2.39.4-.89.14-1.78.29-2.64.45-3.52.64-5.91,4.01-5.32,7.51.51,3.1,3.17,5.35,6.32,5.35.43,0,.75,0,1.1-.06,18.91-3.23,37.35-6.16,54.8-8.69,1.73-.25,3.25-1.14,4.28-2.51s1.46-3.07,1.22-4.78c-.47-3.22-3.14-5.56-6.35-5.56-.31,0-.63.02-.95.07l-7.67,1.16c-.07,0-.13.01-.2.01-.61,0-1.15-.43-1.27-1.05l-4.89-25.06c-.12-.63.23-1.26.84-1.47,13.88-4.96,24.05-12.39,29.42-21.47,4.54-7.75,7.9-20.39-1.93-36.6-10.14-16.67-26.01-30.1-44.69-37.79-3.65-1.51-7.44-2.28-11.28-2.28Z"/>
              <path class="cls-3" d="M65.31,456.2c-.28,0-.55-.09-.78-.26-33.49-24.91-55.96-60.24-63.26-99.48-.06-.35.02-.71.22-1,.21-.29.52-.48.88-.53l35.06-4.81c.11-.02.29-.09.5-.18.19-.08.38-.16.59-.23.13-.04.27-.07.41-.07.23,0,.46.06.66.18.32.19.55.51.62.88,5.41,28.17,20.85,54.02,43.46,72.79.5.41.62,1.13.28,1.68-6.06,9.82-11.95,20.03-17.49,30.34-.18.33-.49.57-.86.65-.09.02-.19.03-.28.03Z"/>
              <path class="cls-3" d="M464.52,263.2c-.3,0-.59-.1-.83-.3l-30.8-25.52c-.51-.42-.62-1.16-.26-1.71,15.03-22.93,22.12-49.21,20.5-76.01-.04-.68.45-1.27,1.12-1.37l41.43-5.66c.06,0,.12-.01.18-.01.29,0,.58.1.82.29.28.22.45.55.48.91,2.99,38.65-7.94,76.29-31.58,108.85-.21.29-.53.48-.89.53-.05,0-.11.01-.16.01Z"/>
              <path class="cls-3" d="M353.04,335.03c-.25,0-.49-.07-.7-.21-.29-.19-.5-.48-.57-.82l-7.76-36.69c-.15-.69.29-1.38.98-1.53,31.3-7.22,58.39-23.7,78.34-47.66.26-.31.63-.47,1-.47.29,0,.58.1.83.3l30.25,25.06c.27.22.44.55.47.9s-.08.69-.32.96c-26.48,30.4-61.83,51.2-102.25,60.15-.09.02-.19.03-.28.03Z"/>
              <path class="cls-3" d="M322.48,422.61c-.27,0-.55-.09-.78-.26-9.35-7.09-19.62-13.55-30.53-19.2-.33-.17-.56-.47-.66-.82-.09-.35-.03-.73.16-1.04,8.92-13.85,14.34-29.84,16.09-47.52.07-.67.62-1.17,1.29-1.17.36,0,.73.02,1.1.04.34.02.7.04,1.07.04,9.72,0,19.15-.63,28.84-1.93,5.92-.83,11.76-2.05,16.19-3.01.09-.02.18-.03.28-.03.33,0,.66.13.9.37.31.3.45.74.38,1.17-4.79,26.23-16.31,51.42-33.31,72.87-.26.32-.64.49-1.02.49Z"/>
              <path class="cls-3" d="M206.19,489.41c-.28,0-.55-.09-.77-.25-.28-.21-.47-.52-.51-.87l-4.5-32.81c-.1-.7.38-1.34,1.07-1.46,33.79-5.61,61.4-19.55,79.84-40.31.25-.28.61-.44.97-.44.2,0,.4.04.58.14,10.44,5.22,20.58,11.47,30.14,18.58.3.22.49.56.52.93.03.37-.1.74-.35,1.01-27.75,29.1-65.67,48.8-106.78,55.46-.07.01-.14.02-.21.02Z"/>
              <path class="cls-3" d="M174.94,492c-34.76,0-68.48-9.41-97.5-27.22-.59-.36-.79-1.12-.46-1.72,5.62-10.45,11.43-20.52,17.26-29.93.18-.3.48-.51.83-.59.09-.02.19-.03.28-.03.25,0,.5.07.72.22,23.36,15.44,50.85,23.6,79.5,23.6,3.51,0,7.08-.15,10.59-.46.04,0,.08,0,.11,0,.64,0,1.2.48,1.29,1.12l4.5,32.89c.05.35-.05.71-.27.99-.22.28-.55.45-.91.48-5.28.44-10.64.66-15.92.66Z"/>
              <path class="cls-3" d="M68.57,240.93c-.14,0-.28-.02-.41-.07-.26-.09-.46-.22-.58-.33-.04-.01-.07-.03-.11-.05-9.13-4.39-18.43-9.82-28.41-16.62-.3-.21-.51-.54-.56-.9-.05-.37.06-.73.3-1.02,20.34-23.86,47-42.29,77.11-53.28.14-.05.29-.08.45-.08.27,0,.53.08.75.24.35.25.55.65.54,1.08-.15,8.43.37,17.19,1.54,26.03.27,1.73.63,3.51.98,5.24.25,1.23.5,2.46.72,3.7.11.61-.23,1.22-.81,1.44-20.08,7.74-37.09,19.24-50.55,34.18-.25.28-.6.43-.96.43Z"/>
              <path class="cls-3" d="M.54,342.17c-.29,0-.58-.1-.81-.29-.28-.22-.45-.55-.48-.91-3.11-37.04,7.47-74.87,29.79-106.52.25-.36.65-.55,1.06-.55.25,0,.51.07.73.23,8.86,6.08,18.49,11.71,28.62,16.74.34.17.59.48.68.84.09.37.02.75-.19,1.06-16.68,24-24.22,52.79-21.8,83.25.03.36-.09.72-.34.98-.25.27-.59.42-.95.42-.25,0-.48-.03-.71-.06-.12-.02-.24-.04-.38-.04-.04,0-.08,0-.12,0l-34.92,4.81c-.06,0-.12.01-.18.01Z"/>
            </g>
          </g>
        </g>
      </g>
    </g>
  </g>
</svg>