<?xml version="1.0" encoding="UTF-8"?>
<svg xmlns="http://www.w3.org/2000/svg" xmlns:xlink="http://www.w3.org/1999/xlink" viewBox="0 0 481.47 470.69">
  <defs>
    <style>
      .cls-1 {
        isolation: isolate;
      }

      .cls-2 {
        mix-blend-mode: overlay;
      }

      .cls-3 {
        stroke: #ffdbfc;
      }

      .cls-3, .cls-4 {
        fill: none;
        stroke-width: 1.82px;
      }

      .cls-4 {
        stroke: #c800ffff;
      }
    </style>
  </defs>
  <g class="cls-1">
    <g id="Capa_2" data-name="Capa 2">
      <g id="effects">
        <g>
          <g>
            <path d="M164.29,174.31c-5.28-2.48-10.86-3.65-16.37-3.65-14.27,0-28,7.91-34.68,21.41-4.58,9.23-5.28,19.63-1.94,29.4s10.24,17.61,19.47,22.19l30.72,15.2,10.94-85.49c-2.25,1.71-5.43,2.25-8.15.93h0Z"/>
            <path d="M385.77,221.79c-12.72-16.6-36.69-19.94-53.45-7.45-3.26,2.48-7.91,1.86-10.47-1.4-13.03-16.37-37.08-19.32-53.53-6.59-8.15,6.28-13.42,15.36-14.74,25.52-1.32,10.16,1.4,20.32,7.68,28.47l44.37,57.87c1.78,2.33,4.34,3.8,7.21,4.11,2.87.39,5.74-.39,7.99-2.17l57.95-44.45c16.68-12.88,19.86-37.08,6.98-53.92h0Z"/>
            <path d="M435.19,77.73l-178.89-22.81c-2.25-.31-4.5-.47-6.75-.47-26.22,0-49.11,19.55-52.52,46.24l-36.69,287.5c-3.72,28.94,16.83,55.54,45.85,59.27l178.89,22.81c14.04,1.78,27.93-2.02,39.1-10.63,11.17-8.69,18.31-21.18,20.17-35.22l36.69-287.5c1.78-14.04-2.02-27.93-10.63-39.1-8.69-11.17-21.18-18.31-35.22-20.09h0ZM223.95,106.9c-4.58-5.97-3.49-14.43,2.48-19.01,5.9-4.5,14.27-3.49,18.93,2.33,5.97-4.42,14.35-3.26,18.85,2.64,4.58,5.97,3.49,14.43-2.48,19.01l-17.07,13.11c-2.4,1.86-5.82,1.4-7.6-1.01l-13.11-17.07ZM314.17,337.69c-1.16,0-2.33-.08-3.49-.23-6.9-.93-13.03-4.42-17.3-10.01l-44.37-57.87c-8.77-11.4-12.57-25.52-10.71-39.72s9.15-26.84,20.56-35.61c21.18-16.29,51.28-14.12,70.05,4.03,22.88-12.8,52.52-7.14,68.81,14.2,18,23.51,13.58,57.25-9.93,75.25l-57.95,44.45c-4.42,3.65-9.93,5.51-15.67,5.51h0ZM414.86,437.29c-5.9,4.5-14.27,3.49-18.93-2.33-5.97,4.42-14.35,3.26-18.85-2.64-4.58-5.97-3.49-14.43,2.48-19.01l17.07-13.11c2.4-1.86,5.82-1.4,7.6,1.01l13.03,17.07c4.65,5.97,3.57,14.43-2.4,19.01h0Z"/>
            <path d="M145.21,386.33l14.27-111.55-35.37-17.53c-12.88-6.36-22.5-17.3-27.07-30.88s-3.65-28.16,2.72-41.04c11.79-23.97,39.8-35.3,64.7-27.31,3.26-4.65,7.14-8.61,11.56-11.95l6.05-47.24c2.33-18.08,11.48-34.13,25.91-45.3s32.27-15.98,50.35-13.73l17.61,2.25-2.09-6.21c-4.58-13.42-14.12-24.2-26.84-30.41-7.37-3.57-15.28-5.43-23.27-5.43-5.74,0-11.56.93-17.22,2.87L35.83,61.36C8.21,70.83-6.61,101,2.86,128.62l93.94,274.15c4.58,13.42,14.12,24.2,26.84,30.41,11.25,5.51,23.74,6.83,35.76,3.88-11.02-13.81-16.6-31.88-14.2-50.73h0ZM65.77,110l-9.54,19.24c-1.32,2.72-4.58,3.8-7.29,2.48l-19.24-9.54c-6.75-3.34-9.46-11.48-6.21-18.15s11.33-9.39,18-6.28c3.41-6.59,11.4-9.23,18.08-5.97,6.83,3.41,9.54,11.56,6.21,18.23Z"/>
          </g>
          <g>
            <g>
              <path class="cls-4" d="M161.5,259.74c-.13,0-.26-.03-.38-.09l-30.72-15.21c-9.44-4.68-16.51-12.74-19.91-22.68-3.4-9.96-2.69-20.63,1.98-30.07,6.57-13.3,20.49-21.89,35.45-21.89,5.85,0,11.48,1.25,16.74,3.73.89.43,1.85.65,2.86.65,1.56,0,3.12-.53,4.39-1.49.15-.12.34-.18.52-.18.15,0,.3.04.43.12.3.17.47.51.43.86l-10.94,85.49c-.04.28-.2.52-.45.65-.13.07-.27.1-.41.1Z"/>
              <path class="cls-4" d="M314.3,323.29c-.52,0-1.05-.04-1.56-.11-3.07-.33-5.84-1.91-7.79-4.44l-44.37-57.87c-6.42-8.32-9.21-18.66-7.85-29.11,1.35-10.37,6.7-19.64,15.07-26.1,6.84-5.29,15.07-8.08,23.81-8.08,12.15,0,23.42,5.4,30.93,14.82,1.29,1.65,3.22,2.59,5.29,2.59,1.45,0,2.83-.46,3.98-1.34,6.79-5.06,14.88-7.73,23.39-7.73,12.4,0,23.8,5.59,31.27,15.34,13.16,17.2,9.95,41.93-7.14,55.13l-57.95,44.45c-1.99,1.58-4.5,2.45-7.07,2.45h0Z"/>
              <path class="cls-4" d="M391.85,471.56c-2.29,0-4.61-.15-6.89-.44l-178.89-22.81c-14.26-1.83-26.96-9.11-35.78-20.51-8.81-11.39-12.65-25.5-10.82-39.73l36.69-287.5c3.43-26.79,26.37-46.99,53.38-46.99,2.28,0,4.59.16,6.87.47l178.88,22.81c14.25,1.81,26.96,9.06,35.79,20.42,8.78,11.39,12.61,25.5,10.8,39.74l-36.69,287.5c-1.89,14.27-9.17,26.99-20.5,35.79-9.54,7.35-20.9,11.24-32.85,11.24h0ZM395.93,434.1c.25,0,.51.11.68.33,2.44,3.06,6.08,4.81,9.98,4.81,2.82,0,5.5-.91,7.75-2.63,2.7-2.07,4.42-5.05,4.85-8.39.43-3.35-.5-6.69-2.61-9.4l-13.04-17.07c-.86-1.15-2.16-1.81-3.59-1.81-1.01,0-1.98.33-2.79.96l-17.07,13.11c-5.54,4.25-6.58,12.23-2.32,17.79,2.42,3.17,6.08,4.98,10.07,4.98,2.74,0,5.36-.87,7.58-2.51.16-.11.34-.17.51-.17ZM291.41,184.11c-11.74,0-22.82,3.74-32.02,10.82-11.21,8.62-18.39,21.06-20.23,35.03-1.83,13.98,1.91,27.86,10.53,39.08l44.37,57.87c4.08,5.34,10.02,8.77,16.73,9.68,1.12.15,2.25.23,3.38.23,5.68,0,10.91-1.84,15.12-5.31l57.97-44.47c23.1-17.69,27.48-50.9,9.77-74.04-10.01-13.11-25.32-20.63-42-20.63-9.01,0-17.9,2.31-25.7,6.67-.13.07-.28.11-.42.11-.22,0-.44-.08-.6-.24-9.87-9.54-22.97-14.79-36.9-14.79ZM234.71,85.95c-2.82,0-5.5.91-7.75,2.63-2.7,2.07-4.43,5.05-4.86,8.4-.43,3.35.47,6.68,2.54,9.39l13.11,17.07c.86,1.16,2.17,1.81,3.6,1.81,1.01,0,1.98-.33,2.79-.96l17.07-13.11c5.54-4.25,6.58-12.23,2.32-17.79-2.42-3.17-6.08-4.98-10.07-4.98-2.74,0-5.36.87-7.58,2.51-.16.11-.34.17-.51.17-.25,0-.51-.11-.68-.33-2.44-3.06-6.08-4.81-9.98-4.81Z"/>
              <path class="cls-4" d="M146.81,439.46c-8.17,0-16.1-1.85-23.55-5.5-12.95-6.32-22.64-17.29-27.28-30.91L2.04,128.9c-9.62-28.06,5.41-58.73,33.51-68.36L206.21,2.05c5.65-1.94,11.54-2.92,17.5-2.92,8.13,0,16.09,1.86,23.65,5.52,12.95,6.32,22.64,17.29,27.28,30.91l2.1,6.21c.1.28.04.59-.15.83-.17.2-.41.32-.67.32-.04,0-.07,0-.11,0l-17.61-2.25c-2.84-.35-5.73-.53-8.57-.53-15.01,0-29.23,4.87-41.14,14.09-14.2,10.99-23.28,26.88-25.58,44.73l-6.05,47.24c-.03.23-.15.44-.34.58-4.42,3.34-8.25,7.29-11.37,11.75-.17.24-.43.37-.71.37-.09,0-.18-.01-.26-.04-5.17-1.66-10.56-2.5-16.02-2.5-20.16,0-38.86,11.53-47.64,29.36-6.24,12.64-7.19,26.98-2.67,40.38,4.49,13.32,13.95,24.11,26.64,30.38l35.38,17.53c.33.16.52.52.47.89l-14.27,111.55c-2.31,18.08,2.67,35.87,14.01,50.08.18.23.24.54.14.82-.09.28-.33.49-.61.56-4.21,1.03-8.52,1.56-12.8,1.56h0ZM35.71,97.33c-4.93,0-9.31,2.71-11.44,7.08-3.06,6.27-.46,13.9,5.81,17l19.24,9.54c.64.31,1.33.47,2.03.47,1.76,0,3.33-.98,4.09-2.55l9.54-19.25c1.51-3.03,1.75-6.46.66-9.67-1.09-3.23-3.39-5.85-6.48-7.4-1.77-.86-3.66-1.3-5.61-1.3-4.77,0-9.11,2.64-11.31,6.9-.15.3-.46.47-.77.47-.12,0-.25-.03-.36-.08-1.71-.79-3.53-1.2-5.41-1.2Z"/>
            </g>
          </g>
          <g>
            <use transform="translate(-10.05 -10.13) scale(.24)" xlink:href="#image"/>
            <g>
              <path class="cls-3" d="M161.5,260.17c-.2,0-.39-.04-.58-.13l-30.72-15.21c-9.55-4.73-16.69-12.88-20.12-22.93-3.44-10.07-2.72-20.86,2-30.4,6.65-13.44,20.71-22.13,35.84-22.13,5.91,0,11.61,1.27,16.92,3.77.84.41,1.74.61,2.68.61,1.47,0,2.94-.5,4.13-1.4.23-.18.51-.26.79-.26.22,0,.45.06.65.17.45.26.71.77.64,1.29l-10.94,85.49c-.05.42-.3.78-.68.98-.19.1-.4.15-.61.15Z"/>
              <path class="cls-3" d="M314.3,323.72c-.54,0-1.08-.04-1.62-.11-3.18-.34-6.06-1.98-8.07-4.61l-44.37-57.87c-6.49-8.41-9.31-18.86-7.94-29.43,1.36-10.48,6.77-19.85,15.23-26.38,6.91-5.35,15.24-8.17,24.07-8.17,12.29,0,23.68,5.46,31.27,14.99,1.21,1.54,3.02,2.43,4.95,2.43,1.35,0,2.64-.43,3.72-1.26,6.87-5.12,15.04-7.82,23.65-7.82,12.54,0,24.06,5.65,31.62,15.51,13.3,17.39,10.06,42.39-7.22,55.73l-57.95,44.45c-2.06,1.63-4.67,2.54-7.33,2.54h0Z"/>
              <path class="cls-3" d="M391.85,471.99c-2.31,0-4.64-.15-6.95-.44l-178.89-22.81c-14.37-1.84-27.18-9.19-36.06-20.67-8.88-11.48-12.75-25.71-10.91-40.05l36.69-287.49c3.45-27.01,26.59-47.37,53.81-47.37,2.3,0,4.63.16,6.93.48l178.88,22.81c14.36,1.82,27.18,9.13,36.08,20.58,8.85,11.48,12.72,25.71,10.89,40.06l-36.69,287.5c-1.91,14.39-9.25,27.2-20.66,36.08-9.62,7.42-21.07,11.33-33.11,11.33h0ZM395.93,433.67c.38,0,.76.17,1.02.49,2.36,2.95,5.88,4.65,9.64,4.65,2.72,0,5.31-.88,7.49-2.54,2.61-2,4.27-4.87,4.69-8.1.42-3.24-.48-6.46-2.52-9.08l-13.04-17.08c-.78-1.05-1.96-1.64-3.25-1.64-.92,0-1.79.3-2.52.87l-17.07,13.11c-5.35,4.1-6.36,11.81-2.24,17.19,2.33,3.06,5.88,4.81,9.72,4.81,2.65,0,5.18-.84,7.32-2.43.23-.17.5-.25.77-.25ZM291.41,184.55c-11.65,0-22.63,3.71-31.76,10.73-11.12,8.55-18.24,20.89-20.06,34.75-1.82,13.86,1.89,27.63,10.45,38.76l44.37,57.87c4.01,5.24,9.84,8.62,16.44,9.51,1.1.15,2.22.22,3.32.22,5.58,0,10.71-1.8,14.84-5.21l57.98-44.48c22.91-17.54,27.26-50.48,9.69-73.43-9.93-13.01-25.12-20.46-41.66-20.46-8.94,0-17.75,2.29-25.48,6.61-.2.11-.42.17-.63.17-.33,0-.65-.12-.9-.37-9.79-9.46-22.78-14.67-36.6-14.67ZM234.71,86.39c-2.72,0-5.31.88-7.49,2.54-2.61,2-4.28,4.88-4.7,8.11-.42,3.23.45,6.45,2.46,9.07l13.11,17.07c.78,1.05,1.96,1.64,3.25,1.64.92,0,1.79-.3,2.52-.87l17.07-13.11c5.35-4.1,6.36-11.81,2.24-17.19-2.33-3.06-5.88-4.81-9.72-4.81-2.65,0-5.18.84-7.32,2.43-.23.17-.5.25-.77.25-.38,0-.76-.17-1.02-.49-2.36-2.95-5.88-4.65-9.64-4.65Z"/>
              <path class="cls-3" d="M146.81,439.89c-8.24,0-16.23-1.86-23.74-5.54-13.05-6.37-22.82-17.43-27.5-31.16L1.63,129.04c-9.69-28.29,5.46-59.2,33.78-68.91L206.07,1.64c5.7-1.95,11.63-2.94,17.64-2.94,8.2,0,16.22,1.87,23.84,5.56,13.06,6.37,22.82,17.44,27.5,31.16l2.1,6.21c.14.42.06.89-.23,1.24-.25.3-.62.48-1,.48-.05,0-.11,0-.17-.01l-17.61-2.25c-2.82-.35-5.69-.53-8.51-.53-14.91,0-29.04,4.84-40.87,14-14.11,10.92-23.13,26.71-25.42,44.44l-6.05,47.24c-.04.35-.23.66-.51.87-4.38,3.31-8.18,7.23-11.28,11.65-.25.35-.65.55-1.06.55-.13,0-.27-.02-.4-.06-5.13-1.65-10.47-2.48-15.89-2.48-20,0-38.55,11.43-47.25,29.12-6.19,12.53-7.13,26.76-2.65,40.05,4.45,13.21,13.83,23.91,26.42,30.12l35.38,17.53c.5.25.78.78.71,1.33l-14.27,111.55c-2.29,17.96,2.65,35.63,13.92,49.76.28.35.36.81.21,1.23-.14.42-.49.74-.92.84-4.24,1.04-8.59,1.57-12.91,1.57h0ZM35.71,97.77c-4.76,0-8.99,2.62-11.05,6.83-2.96,6.06-.44,13.42,5.61,16.42l19.24,9.54c.58.28,1.2.42,1.84.42,1.59,0,3.01-.89,3.71-2.31l9.55-19.25c1.46-2.93,1.69-6.24.64-9.34-1.05-3.12-3.28-5.65-6.26-7.15-1.7-.83-3.53-1.26-5.42-1.26-4.61,0-8.8,2.55-10.93,6.67-.23.44-.68.7-1.15.7-.18,0-.37-.04-.55-.12-1.65-.77-3.41-1.16-5.23-1.16Z"/>
            </g>
          </g>
          <g class="cls-2">
            <use transform="translate(-10.05 -10.13) scale(.24)" xlink:href="#image"/>
            <g>
              <path class="cls-3" d="M161.5,260.17c-.2,0-.39-.04-.58-.13l-30.72-15.21c-9.55-4.73-16.69-12.88-20.12-22.93-3.44-10.07-2.72-20.86,2-30.4,6.65-13.44,20.71-22.13,35.84-22.13,5.91,0,11.61,1.27,16.92,3.77.84.41,1.74.61,2.68.61,1.47,0,2.94-.5,4.13-1.4.23-.18.51-.26.79-.26.22,0,.45.06.65.17.45.26.71.77.64,1.29l-10.94,85.49c-.05.42-.3.78-.68.98-.19.1-.4.15-.61.15Z"/>
              <path class="cls-3" d="M314.3,323.72c-.54,0-1.08-.04-1.62-.11-3.18-.34-6.06-1.98-8.07-4.61l-44.37-57.87c-6.49-8.41-9.31-18.86-7.94-29.43,1.36-10.48,6.77-19.85,15.23-26.38,6.91-5.35,15.24-8.17,24.07-8.17,12.29,0,23.68,5.46,31.27,14.99,1.21,1.54,3.02,2.43,4.95,2.43,1.35,0,2.64-.43,3.72-1.26,6.87-5.12,15.04-7.82,23.65-7.82,12.54,0,24.06,5.65,31.62,15.51,13.3,17.39,10.06,42.39-7.22,55.73l-57.95,44.45c-2.06,1.63-4.67,2.54-7.33,2.54h0Z"/>
              <path class="cls-3" d="M391.85,471.99c-2.31,0-4.64-.15-6.95-.44l-178.89-22.81c-14.37-1.84-27.18-9.19-36.06-20.67-8.88-11.48-12.75-25.71-10.91-40.05l36.69-287.49c3.45-27.01,26.59-47.37,53.81-47.37,2.3,0,4.63.16,6.93.48l178.88,22.81c14.36,1.82,27.18,9.13,36.08,20.58,8.85,11.48,12.72,25.71,10.89,40.06l-36.69,287.5c-1.91,14.39-9.25,27.2-20.66,36.08-9.62,7.42-21.07,11.33-33.11,11.33h0ZM395.93,433.67c.38,0,.76.17,1.02.49,2.36,2.95,5.88,4.65,9.64,4.65,2.72,0,5.31-.88,7.49-2.54,2.61-2,4.27-4.87,4.69-8.1.42-3.24-.48-6.46-2.52-9.08l-13.04-17.08c-.78-1.05-1.96-1.64-3.25-1.64-.92,0-1.79.3-2.52.87l-17.07,13.11c-5.35,4.1-6.36,11.81-2.24,17.19,2.33,3.06,5.88,4.81,9.72,4.81,2.65,0,5.18-.84,7.32-2.43.23-.17.5-.25.77-.25ZM291.41,184.55c-11.65,0-22.63,3.71-31.76,10.73-11.12,8.55-18.24,20.89-20.06,34.75-1.82,13.86,1.89,27.63,10.45,38.76l44.37,57.87c4.01,5.24,9.84,8.62,16.44,9.51,1.1.15,2.22.22,3.32.22,5.58,0,10.71-1.8,14.84-5.21l57.98-44.48c22.91-17.54,27.26-50.48,9.69-73.43-9.93-13.01-25.12-20.46-41.66-20.46-8.94,0-17.75,2.29-25.48,6.61-.2.11-.42.17-.63.17-.33,0-.65-.12-.9-.37-9.79-9.46-22.78-14.67-36.6-14.67ZM234.71,86.39c-2.72,0-5.31.88-7.49,2.54-2.61,2-4.28,4.88-4.7,8.11-.42,3.23.45,6.45,2.46,9.07l13.11,17.07c.78,1.05,1.96,1.64,3.25,1.64.92,0,1.79-.3,2.52-.87l17.07-13.11c5.35-4.1,6.36-11.81,2.24-17.19-2.33-3.06-5.88-4.81-9.72-4.81-2.65,0-5.18.84-7.32,2.43-.23.17-.5.25-.77.25-.38,0-.76-.17-1.02-.49-2.36-2.95-5.88-4.65-9.64-4.65Z"/>
              <path class="cls-3" d="M146.81,439.89c-8.24,0-16.23-1.86-23.74-5.54-13.05-6.37-22.82-17.43-27.5-31.16L1.63,129.04c-9.69-28.29,5.46-59.2,33.78-68.91L206.07,1.64c5.7-1.95,11.63-2.94,17.64-2.94,8.2,0,16.22,1.87,23.84,5.56,13.06,6.37,22.82,17.44,27.5,31.16l2.1,6.21c.14.42.06.89-.23,1.24-.25.3-.62.48-1,.48-.05,0-.11,0-.17-.01l-17.61-2.25c-2.82-.35-5.69-.53-8.51-.53-14.91,0-29.04,4.84-40.87,14-14.11,10.92-23.13,26.71-25.42,44.44l-6.05,47.24c-.04.35-.23.66-.51.87-4.38,3.31-8.18,7.23-11.28,11.65-.25.35-.65.55-1.06.55-.13,0-.27-.02-.4-.06-5.13-1.65-10.47-2.48-15.89-2.48-20,0-38.55,11.43-47.25,29.12-6.19,12.53-7.13,26.76-2.65,40.05,4.45,13.21,13.83,23.91,26.42,30.12l35.38,17.53c.5.25.78.78.71,1.33l-14.27,111.55c-2.29,17.96,2.65,35.63,13.92,49.76.28.35.36.81.21,1.23-.14.42-.49.74-.92.84-4.24,1.04-8.59,1.57-12.91,1.57h0ZM35.71,97.77c-4.76,0-8.99,2.62-11.05,6.83-2.96,6.06-.44,13.42,5.61,16.42l19.24,9.54c.58.28,1.2.42,1.84.42,1.59,0,3.01-.89,3.71-2.31l9.55-19.25c1.46-2.93,1.69-6.24.64-9.34-1.05-3.12-3.28-5.65-6.26-7.15-1.7-.83-3.53-1.26-5.42-1.26-4.61,0-8.8,2.55-10.93,6.67-.23.44-.68.7-1.15.7-.18,0-.37-.04-.55-.12-1.65-.77-3.41-1.16-5.23-1.16Z"/>
            </g>
          </g>
        </g>
      </g>
    </g>
  </g>
</svg>