<?xml version="1.0" encoding="UTF-8"?>
<svg xmlns="http://www.w3.org/2000/svg" xmlns:xlink="http://www.w3.org/1999/xlink" viewBox="0 -5 480.97 501.29">
  <defs>
    <style>
      .cls-1 {
        isolation: isolate;
      }

      .cls-2 {
        mix-blend-mode: overlay;
      }

      .cls-3 {
        stroke: #ffdbfc;
      }

      .cls-3, .cls-4 {
        fill: none;
        stroke-width: 1.82px;
      }

      .cls-4 {
        stroke: #c800ffff;
      }
    </style>
  </defs>
  <g class="cls-1">
    <g id="Capa_2" data-name="Capa 2">
      <g id="effects">
        <g>
          <g>
            <circle cx="448.62" cy="32.35" r="32.35"/>
            <path d="M199.52,356.15c-37.31,0-67.57,30.25-67.57,67.57s30.25,67.57,67.57,67.57,67.57-30.25,67.57-67.57-30.25-67.57-67.57-67.57h0ZM199.52,415.88c13.65,0,24.67,11.09,24.67,24.67,0,10.86-7.14,20.09-16.91,23.35v5.04c0,4.27-3.49,7.76-7.76,7.76s-7.76-3.49-7.76-7.76v-5.04c-9.77-3.26-16.91-12.41-16.91-23.35,0-4.27,3.49-7.76,7.76-7.76s7.76,3.49,7.76,7.76c0,5.04,4.11,9.15,9.15,9.15s9.15-4.11,9.15-9.15-4.11-9.15-9.15-9.15c-13.65,0-24.67-11.09-24.67-24.67,0-10.86,7.14-20.09,16.91-23.35v-5.04c0-4.27,3.49-7.76,7.76-7.76s7.76,3.49,7.76,7.76v5.04c9.77,3.26,16.91,12.41,16.91,23.35,0,4.27-3.49,7.76-7.76,7.76s-7.76-3.49-7.76-7.76c0-5.04-4.11-9.15-9.15-9.15s-9.15,4.11-9.15,9.15,4.11,9.15,9.15,9.15Z"/>
            <path d="M453.35,218.22h-4.19v47.32h4.19c13.03,0,23.66-10.55,23.66-23.66s-10.63-23.66-23.66-23.66h0Z"/>
            <path d="M425.89,199.21h-20.09v85.41h20.09c4.27,0,7.76-3.49,7.76-7.76v-69.9c0-4.27-3.49-7.76-7.76-7.76h0Z"/>
            <path d="M242.5,170.82h-94.64v134.67h94.64v-134.67ZM226.6,196.89l-38.48,88.67c-1.24,2.95-4.11,4.65-7.14,4.65-1.01,0-2.09-.23-3.1-.62-3.96-1.71-5.74-6.28-4.03-10.24l33.82-77.81h-36.77c-4.27,0-7.76-3.49-7.76-7.76s3.49-7.76,7.76-7.76h48.56c2.64,0,5.04,1.32,6.52,3.49,1.4,2.25,1.63,5.04.62,7.37h0Z"/>
            <path d="M37.7,305.49h94.64v-134.67H37.7v134.67ZM60.74,186.1h48.56c2.64,0,5.04,1.32,6.52,3.49s1.71,4.96.62,7.37l-38.48,88.67c-1.24,2.95-4.11,4.65-7.14,4.65-1.01,0-2.09-.23-3.1-.62-3.96-1.71-5.74-6.28-4.03-10.24l33.82-77.81h-36.77c-4.27,0-7.76-3.49-7.76-7.76s3.41-7.76,7.76-7.76h0Z"/>
            <path d="M352.66,170.82h-94.64v134.67h94.64v-134.67ZM336.68,196.89l-38.48,88.67c-1.24,2.95-4.11,4.65-7.14,4.65-1.01,0-2.09-.23-3.1-.62-3.96-1.71-5.74-6.28-4.03-10.24l33.82-77.81h-36.77c-4.27,0-7.76-3.49-7.76-7.76s3.49-7.76,7.76-7.76h48.56c2.64,0,5.04,1.32,6.52,3.49,1.47,2.25,1.71,5.04.62,7.37h0Z"/>
            <path d="M0,133.12v217.6c41.81,15.05,84.95,24.98,128.54,30.1,14.58-24.05,40.88-40.18,70.98-40.18s55.78,15.75,70.44,39.25c40.8-5.35,81.14-15.05,120.32-29.17v-217.6c-126.14-45.46-264.15-45.46-390.28,0h0ZM360.42,155.31c4.27,0,7.76,3.49,7.76,7.76v150.19c0,4.27-3.49,7.76-7.76,7.76H29.94c-4.27,0-7.76-3.49-7.76-7.76v-150.19c0-4.27,3.49-7.76,7.76-7.76h330.47Z"/>
            <path d="M463.59,204.26v-126.53c-4.73,1.55-9.7,2.4-14.97,2.4s-10.24-.85-14.97-2.4v107.36c7.76,2.72,13.58,9.39,15.05,17.61h4.58c3.65,0,7.06.7,10.32,1.55h0Z"/>
          </g>
          <g>
            <g>
              <path class="cls-4" d="M448.62,65.56c-18.31,0-33.21-14.9-33.21-33.22S430.31-.87,448.62-.87s33.22,14.9,33.22,33.22-14.9,33.22-33.22,33.22Z"/>
              <path class="cls-4" d="M199.52,492.15c-37.74,0-68.43-30.7-68.43-68.43s30.7-68.43,68.43-68.43,68.43,30.7,68.43,68.43-30.7,68.43-68.43,68.43ZM182.61,433.66c-3.8,0-6.89,3.09-6.89,6.89,0,10.22,6.56,19.27,16.32,22.53.35.12.59.45.59.82v5.04c0,3.8,3.09,6.89,6.89,6.89s6.89-3.09,6.89-6.89v-5.04c0-.37.24-.7.59-.82,9.76-3.25,16.32-12.31,16.32-22.53,0-13.12-10.68-23.8-23.8-23.8-5.52,0-10.02-4.5-10.02-10.02s4.5-10.02,10.02-10.02,10.02,4.5,10.02,10.02c0,3.8,3.09,6.89,6.89,6.89s6.89-3.09,6.89-6.89c0-10.22-6.56-19.27-16.32-22.53-.35-.12-.59-.45-.59-.82v-5.04c0-3.8-3.09-6.89-6.89-6.89s-6.89,3.09-6.89,6.89v5.04c0,.37-.24.7-.59.82-9.76,3.25-16.32,12.31-16.32,22.53,0,13.12,10.68,23.8,23.8,23.8,5.53,0,10.02,4.5,10.02,10.02s-4.5,10.02-10.02,10.02-10.02-4.5-10.02-10.02c0-3.8-3.09-6.89-6.89-6.89Z"/>
              <path class="cls-4" d="M449.16,266.41c-.48,0-.87-.39-.87-.87v-47.32c0-.48.39-.87.87-.87h4.19c13.52,0,24.53,11,24.53,24.53s-11,24.53-24.53,24.53h-4.19Z"/>
              <path class="cls-4" d="M405.8,285.49c-.48,0-.87-.39-.87-.87v-85.41c0-.48.39-.87.87-.87h20.09c4.75,0,8.62,3.87,8.62,8.62v69.9c0,4.76-3.87,8.62-8.62,8.62h-20.09Z"/>
              <path class="cls-4" d="M147.86,306.36c-.48,0-.87-.39-.87-.87v-134.67c0-.48.39-.87.87-.87h94.64c.48,0,.87.39.87.87v134.67c0,.48-.39.87-.87.87h-94.64ZM170.9,186.89c-3.8,0-6.89,3.09-6.89,6.89s3.09,6.89,6.89,6.89h36.77c.29,0,.56.15.72.39s.19.55.07.82l-33.82,77.81c-1.51,3.51.09,7.59,3.58,9.1.93.36,1.89.55,2.76.55,2.8,0,5.28-1.62,6.34-4.12l38.48-88.68c.89-2.06.68-4.57-.56-6.57-1.3-1.92-3.47-3.08-5.78-3.08h-48.56Z"/>
              <path class="cls-4" d="M37.7,306.36c-.48,0-.87-.39-.87-.87v-134.67c0-.48.39-.87.87-.87h94.64c.48,0,.87.39.87.87v134.67c0,.48-.39.87-.87.87H37.7ZM60.74,186.97c-3.8,0-6.89,3.09-6.89,6.89s3.09,6.89,6.89,6.89h36.77c.29,0,.56.15.72.39s.19.55.07.82l-33.82,77.81c-.73,1.7-.77,3.59-.09,5.3.67,1.72,1.98,3.07,3.68,3.8.91.35,1.9.55,2.76.55,2.8,0,5.28-1.62,6.34-4.12l38.48-88.68c.96-2.13.75-4.63-.54-6.54-1.32-1.95-3.49-3.11-5.8-3.11h-48.56Z"/>
              <path class="cls-4" d="M258.02,306.36c-.48,0-.87-.39-.87-.87v-134.67c0-.48.39-.87.87-.87h94.64c.48,0,.87.39.87.87v134.67c0,.48-.39.87-.87.87h-94.64ZM280.98,186.89c-3.8,0-6.89,3.09-6.89,6.89s3.09,6.89,6.89,6.89h36.77c.29,0,.56.15.72.39s.19.55.07.82l-33.82,77.81c-1.51,3.51.09,7.59,3.58,9.1.93.36,1.89.55,2.76.55,2.8,0,5.28-1.62,6.34-4.12l38.48-88.68c.96-2.07.75-4.57-.55-6.55-1.31-1.94-3.48-3.1-5.79-3.1h-48.56Z"/>
              <path class="cls-4" d="M128.44,381.68c-44.3-5.2-87.62-15.35-128.74-30.15-.34-.12-.57-.45-.57-.81v-217.6c0-.37.23-.69.57-.81,62.87-22.66,128.62-34.15,195.44-34.15s132.57,11.49,195.44,34.15c.34.12.57.45.57.81v217.6c0,.37-.23.69-.57.81-38.81,13.99-79.35,23.81-120.5,29.21-.04,0-.08,0-.11,0-.3,0-.58-.15-.74-.41-15.17-24.32-41.23-38.85-69.7-38.85s-55.14,14.87-70.24,39.77c-.16.26-.44.42-.74.42-.03,0-.07,0-.1,0ZM29.94,156.17c-3.8,0-6.89,3.09-6.89,6.89v150.19c0,3.8,3.09,6.89,6.89,6.89h330.47c3.8,0,6.89-3.09,6.89-6.89v-150.19c0-3.8-3.09-6.89-6.89-6.89H29.94Z"/>
              <path class="cls-4" d="M463.59,205.12c-.07,0-.15,0-.22-.03-2.88-.75-6.33-1.52-10.1-1.52h-4.58c-.42,0-.78-.3-.85-.71-1.4-7.82-6.95-14.31-14.48-16.95-.35-.12-.58-.45-.58-.82v-107.36c0-.28.13-.54.36-.7.15-.11.33-.17.51-.17.09,0,.18.01.27.04,4.78,1.57,9.73,2.36,14.7,2.36s9.85-.77,14.7-2.36c.09-.03.18-.04.27-.04.18,0,.36.06.51.17.23.16.36.42.36.7v126.53c0,.27-.12.52-.34.69-.15.12-.34.18-.53.18Z"/>
            </g>
          </g>
          <g>
            <use transform="translate(-10.03 -10.2) scale(.24)" xlink:href="#image"/>
            <g>
              <path class="cls-3" d="M448.62,66c-18.55,0-33.65-15.09-33.65-33.65S430.07-1.3,448.62-1.3s33.65,15.09,33.65,33.65-15.09,33.65-33.65,33.65Z"/>
              <path class="cls-3" d="M199.52,492.59c-37.97,0-68.87-30.89-68.87-68.87s30.89-68.87,68.87-68.87,68.87,30.89,68.87,68.87-30.89,68.87-68.87,68.87ZM182.61,434.09c-3.56,0-6.46,2.9-6.46,6.46,0,10.04,6.44,18.92,16.02,22.12.53.18.89.67.89,1.23v5.04c0,3.56,2.9,6.46,6.46,6.46s6.46-2.9,6.46-6.46v-5.04c0-.56.36-1.06.89-1.23,9.58-3.19,16.02-12.08,16.02-22.12,0-12.89-10.48-23.37-23.37-23.37-5.76,0-10.45-4.69-10.45-10.45s4.69-10.45,10.45-10.45,10.45,4.69,10.45,10.45c0,3.56,2.9,6.46,6.46,6.46s6.46-2.9,6.46-6.46c0-10.03-6.44-18.92-16.02-22.12-.53-.18-.89-.67-.89-1.23v-5.04c0-3.56-2.9-6.46-6.46-6.46s-6.46,2.9-6.46,6.46v5.04c0,.56-.36,1.06-.89,1.23-9.58,3.19-16.02,12.08-16.02,22.12,0,12.89,10.48,23.37,23.37,23.37,5.76,0,10.45,4.69,10.45,10.45s-4.69,10.45-10.45,10.45-10.45-4.69-10.45-10.45c0-3.56-2.9-6.46-6.46-6.46Z"/>
              <path class="cls-3" d="M449.16,266.84c-.72,0-1.3-.58-1.3-1.3v-47.32c0-.72.58-1.3,1.3-1.3h4.19c13.76,0,24.96,11.2,24.96,24.96s-11.2,24.96-24.96,24.96h-4.19Z"/>
              <path class="cls-3" d="M405.8,285.92c-.72,0-1.3-.58-1.3-1.3v-85.41c0-.72.58-1.3,1.3-1.3h20.09c4.99,0,9.06,4.06,9.06,9.06v69.9c0,4.99-4.06,9.06-9.06,9.06h-20.09Z"/>
              <path class="cls-3" d="M147.86,306.79c-.72,0-1.3-.58-1.3-1.3v-134.67c0-.72.58-1.3,1.3-1.3h94.64c.72,0,1.3.58,1.3,1.3v134.67c0,.72-.58,1.3-1.3,1.3h-94.64ZM170.9,187.33c-3.56,0-6.46,2.9-6.46,6.46s2.9,6.46,6.46,6.46h36.77c.44,0,.85.22,1.09.59.24.37.28.83.1,1.23l-33.82,77.81c-1.42,3.29.09,7.12,3.36,8.53.85.32,1.78.51,2.59.51,2.62,0,4.95-1.52,5.94-3.86l38.48-88.68c.83-1.93.63-4.29-.53-6.17-1.21-1.78-3.25-2.88-5.41-2.88h-48.56Z"/>
              <path class="cls-3" d="M37.7,306.79c-.72,0-1.3-.58-1.3-1.3v-134.67c0-.72.58-1.3,1.3-1.3h94.64c.72,0,1.3.58,1.3,1.3v134.67c0,.72-.58,1.3-1.3,1.3H37.7ZM60.74,187.4c-3.56,0-6.46,2.9-6.46,6.46s2.9,6.46,6.46,6.46h36.77c.44,0,.85.22,1.09.59.24.37.28.83.1,1.23l-33.82,77.81c-.69,1.6-.72,3.36-.09,4.97s1.86,2.87,3.45,3.56c.85.32,1.78.51,2.59.51,2.62,0,4.95-1.52,5.94-3.86l38.48-88.68c.9-2,.71-4.34-.5-6.12-1.24-1.83-3.28-2.92-5.44-2.92h-48.56Z"/>
              <path class="cls-3" d="M258.02,306.79c-.72,0-1.3-.58-1.3-1.3v-134.67c0-.72.58-1.3,1.3-1.3h94.64c.72,0,1.3.58,1.3,1.3v134.67c0,.72-.58,1.3-1.3,1.3h-94.64ZM280.98,187.33c-3.56,0-6.46,2.9-6.46,6.46s2.9,6.46,6.46,6.46h36.77c.44,0,.85.22,1.09.59.24.37.28.83.1,1.23l-33.82,77.81c-1.42,3.29.09,7.12,3.36,8.53.85.32,1.78.51,2.59.51,2.62,0,4.95-1.52,5.94-3.86l38.48-88.68c.91-1.94.7-4.28-.52-6.14-1.23-1.81-3.26-2.9-5.43-2.9h-48.56Z"/>
              <path class="cls-3" d="M128.39,382.11c-44.34-5.21-87.68-15.36-128.83-30.17-.51-.19-.86-.67-.86-1.22v-217.6c0-.55.34-1.04.86-1.22,62.92-22.67,128.72-34.17,195.58-34.17s132.67,11.5,195.58,34.17c.52.19.86.67.86,1.22v217.6c0,.55-.34,1.04-.86,1.22-38.83,14-79.41,23.83-120.59,29.23-.06,0-.11.01-.17.01-.44,0-.86-.23-1.1-.61-15.09-24.2-41.01-38.64-69.34-38.64s-54.85,14.79-69.87,39.56c-.24.39-.66.63-1.11.63-.05,0-.1,0-.15,0ZM29.94,156.61c-3.56,0-6.46,2.9-6.46,6.46v150.19c0,3.56,2.9,6.46,6.46,6.46h330.47c3.56,0,6.46-2.9,6.46-6.46v-150.19c0-3.56-2.9-6.46-6.46-6.46H29.94Z"/>
              <path class="cls-3" d="M463.59,205.56c-.11,0-.22-.01-.33-.04-2.85-.75-6.27-1.51-9.99-1.51h-4.58c-.63,0-1.17-.45-1.28-1.07-1.38-7.66-6.82-14.03-14.2-16.61-.52-.18-.87-.67-.87-1.23v-107.36c0-.42.2-.81.54-1.05.22-.16.49-.25.76-.25.14,0,.27.02.4.06,4.74,1.55,9.64,2.34,14.57,2.34s9.76-.77,14.57-2.34c.13-.04.27-.06.4-.06.27,0,.54.08.76.25.34.24.54.64.54,1.05v126.53c0,.4-.19.78-.5,1.03-.23.18-.51.27-.79.27Z"/>
            </g>
          </g>
          <g class="cls-2">
            <use transform="translate(-10.03 -10.2) scale(.24)" xlink:href="#image"/>
            <g>
              <path class="cls-3" d="M448.62,66c-18.55,0-33.65-15.09-33.65-33.65S430.07-1.3,448.62-1.3s33.65,15.09,33.65,33.65-15.09,33.65-33.65,33.65Z"/>
              <path class="cls-3" d="M199.52,492.59c-37.97,0-68.87-30.89-68.87-68.87s30.89-68.87,68.87-68.87,68.87,30.89,68.87,68.87-30.89,68.87-68.87,68.87ZM182.61,434.09c-3.56,0-6.46,2.9-6.46,6.46,0,10.04,6.44,18.92,16.02,22.12.53.18.89.67.89,1.23v5.04c0,3.56,2.9,6.46,6.46,6.46s6.46-2.9,6.46-6.46v-5.04c0-.56.36-1.06.89-1.23,9.58-3.19,16.02-12.08,16.02-22.12,0-12.89-10.48-23.37-23.37-23.37-5.76,0-10.45-4.69-10.45-10.45s4.69-10.45,10.45-10.45,10.45,4.69,10.45,10.45c0,3.56,2.9,6.46,6.46,6.46s6.46-2.9,6.46-6.46c0-10.03-6.44-18.92-16.02-22.12-.53-.18-.89-.67-.89-1.23v-5.04c0-3.56-2.9-6.46-6.46-6.46s-6.46,2.9-6.46,6.46v5.04c0,.56-.36,1.06-.89,1.23-9.58,3.19-16.02,12.08-16.02,22.12,0,12.89,10.48,23.37,23.37,23.37,5.76,0,10.45,4.69,10.45,10.45s-4.69,10.45-10.45,10.45-10.45-4.69-10.45-10.45c0-3.56-2.9-6.46-6.46-6.46Z"/>
              <path class="cls-3" d="M449.16,266.84c-.72,0-1.3-.58-1.3-1.3v-47.32c0-.72.58-1.3,1.3-1.3h4.19c13.76,0,24.96,11.2,24.96,24.96s-11.2,24.96-24.96,24.96h-4.19Z"/>
              <path class="cls-3" d="M405.8,285.92c-.72,0-1.3-.58-1.3-1.3v-85.41c0-.72.58-1.3,1.3-1.3h20.09c4.99,0,9.06,4.06,9.06,9.06v69.9c0,4.99-4.06,9.06-9.06,9.06h-20.09Z"/>
              <path class="cls-3" d="M147.86,306.79c-.72,0-1.3-.58-1.3-1.3v-134.67c0-.72.58-1.3,1.3-1.3h94.64c.72,0,1.3.58,1.3,1.3v134.67c0,.72-.58,1.3-1.3,1.3h-94.64ZM170.9,187.33c-3.56,0-6.46,2.9-6.46,6.46s2.9,6.46,6.46,6.46h36.77c.44,0,.85.22,1.09.59.24.37.28.83.1,1.23l-33.82,77.81c-1.42,3.29.09,7.12,3.36,8.53.85.32,1.78.51,2.59.51,2.62,0,4.95-1.52,5.94-3.86l38.48-88.68c.83-1.93.63-4.29-.53-6.17-1.21-1.78-3.25-2.88-5.41-2.88h-48.56Z"/>
              <path class="cls-3" d="M37.7,306.79c-.72,0-1.3-.58-1.3-1.3v-134.67c0-.72.58-1.3,1.3-1.3h94.64c.72,0,1.3.58,1.3,1.3v134.67c0,.72-.58,1.3-1.3,1.3H37.7ZM60.74,187.4c-3.56,0-6.46,2.9-6.46,6.46s2.9,6.46,6.46,6.46h36.77c.44,0,.85.22,1.09.59.24.37.28.83.1,1.23l-33.82,77.81c-.69,1.6-.72,3.36-.09,4.97s1.86,2.87,3.45,3.56c.85.32,1.78.51,2.59.51,2.62,0,4.95-1.52,5.94-3.86l38.48-88.68c.9-2,.71-4.34-.5-6.12-1.24-1.83-3.28-2.92-5.44-2.92h-48.56Z"/>
              <path class="cls-3" d="M258.02,306.79c-.72,0-1.3-.58-1.3-1.3v-134.67c0-.72.58-1.3,1.3-1.3h94.64c.72,0,1.3.58,1.3,1.3v134.67c0,.72-.58,1.3-1.3,1.3h-94.64ZM280.98,187.33c-3.56,0-6.46,2.9-6.46,6.46s2.9,6.46,6.46,6.46h36.77c.44,0,.85.22,1.09.59.24.37.28.83.1,1.23l-33.82,77.81c-1.42,3.29.09,7.12,3.36,8.53.85.32,1.78.51,2.59.51,2.62,0,4.95-1.52,5.94-3.86l38.48-88.68c.91-1.94.7-4.28-.52-6.14-1.23-1.81-3.26-2.9-5.43-2.9h-48.56Z"/>
              <path class="cls-3" d="M128.39,382.11c-44.34-5.21-87.68-15.36-128.83-30.17-.51-.19-.86-.67-.86-1.22v-217.6c0-.55.34-1.04.86-1.22,62.92-22.67,128.72-34.17,195.58-34.17s132.67,11.5,195.58,34.17c.52.19.86.67.86,1.22v217.6c0,.55-.34,1.04-.86,1.22-38.83,14-79.41,23.83-120.59,29.23-.06,0-.11.01-.17.01-.44,0-.86-.23-1.1-.61-15.09-24.2-41.01-38.64-69.34-38.64s-54.85,14.79-69.87,39.56c-.24.39-.66.63-1.11.63-.05,0-.1,0-.15,0ZM29.94,156.61c-3.56,0-6.46,2.9-6.46,6.46v150.19c0,3.56,2.9,6.46,6.46,6.46h330.47c3.56,0,6.46-2.9,6.46-6.46v-150.19c0-3.56-2.9-6.46-6.46-6.46H29.94Z"/>
              <path class="cls-3" d="M463.59,205.56c-.11,0-.22-.01-.33-.04-2.85-.75-6.27-1.51-9.99-1.51h-4.58c-.63,0-1.17-.45-1.28-1.07-1.38-7.66-6.82-14.03-14.2-16.61-.52-.18-.87-.67-.87-1.23v-107.36c0-.42.2-.81.54-1.05.22-.16.49-.25.76-.25.14,0,.27.02.4.06,4.74,1.55,9.64,2.34,14.57,2.34s9.76-.77,14.57-2.34c.13-.04.27-.06.4-.06.27,0,.54.08.76.25.34.24.54.64.54,1.05v126.53c0,.4-.19.78-.5,1.03-.23.18-.51.27-.79.27Z"/>
            </g>
          </g>
        </g>
      </g>
    </g>
  </g>
</svg>