<?xml version="1.0" encoding="UTF-8"?>
<svg id="Warstwa_1" data-name="Warstwa 1" xmlns="http://www.w3.org/2000/svg" viewBox="0 0 1102.06 344.1">
  <defs>
    <style>
      .cls-1 {
        fill: #f7f8fd;
      }
    </style>
  </defs>
  <path class="cls-1" d="M501.62,232.29l17.97,1.4c11.22.87,20.62-7.76,20.7-18.89-12.5.63-25.38,2.22-36.31-2.7-14.46-6.5-19.37-21.82-18.94-36.43.55-19.04,14.51-33.91,34.62-33.81,13.57.07,26.58,1.4,40.64,2.81.47,26.09,1.08,50.66-.59,76.31-1.09,16.73-15.92,28.35-31.69,30.59-10.87,1.54-20.4-.8-30.99-3.78l4.61-15.5ZM540.64,196.39l-.07-36.42c-8.69-1.06-18.15-2.51-25.87.5-8.34,3.25-10.22,12.01-10.03,19.13.17,6.42,3.51,14.38,10.98,17.02,7.49,2.65,16.8,1.28,24.99-.23Z"/>
  <path class="cls-1" d="M757.53,214.55l-.95,33.39-19.79.11-.05-103.03c13.43-1.78,27.7-3.13,41.56-2.88,21.14.38,34.1,17.02,33.83,36.94-.19,13.87-4.63,27.14-18.11,33.25-10.99,4.99-22.8,4.76-36.49,2.22ZM780.63,198.11c10.18-2.32,12.28-12.41,12.14-19.99-.12-6.66-3.93-16.33-12.44-18.57-7.21-1.9-15.18-.62-23.63.52l.26,37.78c8.37.99,16.21,1.96,23.67.26Z"/>
  <path class="cls-1" d="M148.09,145.93c13.73,6.46,17.22,19.91,17.61,33.06.64,21.51-14.22,38.14-36.55,37.44-12.82-.41-25.33-1.66-38.58-3.05l-.06-94.59,19.54-.06.91,24.76c12.46-2.01,25.25-3.14,37.12,2.44ZM127.36,199.36c11.79,1.26,19.48-9.32,19.41-20.28-.06-10.05-5.72-19.51-16.8-20.25-6.05-.4-12.64.61-19.45,1.84l.1,36.91,16.74,1.78Z"/>
  <path class="cls-1" d="M229.87,196.34l5.6,16.68c-10.65,2.63-20.77,4.5-31.39,2.91-19.35-2.91-31.29-18.15-31.46-36.82-.21-22.9,17.8-39.54,41.21-37.25,10.17,1,20.34,6.22,25.41,13.2,6.51,8.96,7.57,21.53,3.66,31.29l-48.69.99c8.56,13.63,20.12,11.86,35.66,9.01ZM227.08,171.15c-3.21-11.07-10.75-13.34-18.23-12.85s-13.46,4.56-14.89,13.32l33.12-.47Z"/>
  <path class="cls-1" d="M863.52,198.09l15.86-.85,4.58,15.66c-12.36,3.72-23.82,5.4-35.5,2.28-17.34-4.63-27.3-18.73-27.33-36.13-.04-23.06,18.13-39.67,41.81-37.1,10.27,1.12,20.75,6.7,25.56,14.54,5.57,9.09,6.21,20.61,2.92,30.05l-49.08.47c3.85,8.14,12.1,11.59,21.19,11.1ZM874.94,171.07c-3.36-12.83-10.98-13.15-18.52-12.6-6.86.5-13.2,4.33-13.89,13.31l32.41-.71Z"/>
  <path class="cls-1" d="M453.64,175.99c-.03-10.87-8.13-17.42-17.98-15.85-4.28.68-9.23,1.6-13.28,2.48l-.16,50.79-20.63.43.24-68.86c15-1.51,29.9-3.04,45.01-2.92,16.8.14,27.53,13.85,27.48,28.96l-.13,42.67-20.45.07-.1-37.78Z"/>
  <path class="cls-1" d="M590.38,175.5c-.37,5.85,1.22,12.66,4.99,16.82,3.18,3.51,10.62,6.15,15.94,5.9l16.92-.78,5.01,15.44c-13.88,4.12-27.16,5.86-40.45.66-22.58-8.84-29.42-37.09-16-56.32,12.98-18.59,42.59-21.52,58.55-3.69,7.8,8.72,9.55,23.34,4.93,32.93l-40.5.66,4.7-15.01,19.87-1.29c-2.64-11.22-10.79-13.22-19.25-12.54-7.79.62-14.11,7.81-14.7,17.21Z"/>
  <path class="cls-1" d="M723.65,213.52l-22.8.65-16.13-21.17-15.26,20.68-23.47.24,25.5-34.81-25.49-34.59,22.89-1.01,15.81,20.97,15.06-19.68c6.17-.76,15.22-.7,23.97-.35l-25.46,34.41,25.38,34.67Z"/>
  <path class="cls-1" d="M303.13,215.35c-9.14,1.34-17.5,2.05-25.91-.07-11.02-2.78-16.27-13.96-16.55-24.38l-.75-28.1-8.01-.63-.33-17.55,8.71-1.39.36-20.21,19.79-3.61.62,23.86,13.2,1.18-.03,17.14-13,1.44c-.38,9.33-.67,18.76.64,28.37.92,6.75,9.6,6.85,16.94,6.87l4.32,17.11Z"/>
  <path class="cls-1" d="M350.85,198.87c4.29.89,5.62,11.68,5.7,17.15-7.15.42-12.68.71-19.53.38-11.28-.54-21.38-10.27-21.74-21.8l-.96-30.58-7.29-3.16c-1.89-.82-1.54-6.18-1.38-8.78l.41-6.48c.1-1.64,4.55-1.44,8.3-1.88l.79-20.16,18.9-4.5,1.11,24.35,13.18.93.17,17.42-13.41,1.03c-.29,9.12-.41,18.18.25,27.99.41,6.13,8.16,6.56,15.48,8.09Z"/>
  <path class="cls-1" d="M1006.16,197.83l5.37,16.63c-9.92,3.16-19.38,3.52-29.37-.52-6.05-2.45-12.26-11.16-12.46-17.91l-.99-33.42-8.21-1.48c-1.57-.28-1.03-5.45-.96-7.16l.3-8.16c.08-2.02,5.73-1.54,8.84-2.16l.95-20.35,18.64-4.08,1.06,23.9,13.15,1.21-.12,17.41-13.37,1.08.51,27.4c.12,6.64,8.06,8.28,16.67,7.59Z"/>
  <polygon class="cls-1" points="924.54 162.91 924.38 213.51 903.89 214.16 903.98 145.92 949.21 141.09 949.34 161.59 924.54 162.91"/>
  <polygon class="cls-1" points="388.44 214.08 367.43 214.17 367.4 144.3 388.07 143.99 388.44 214.08"/>
  <path class="cls-1" d="M376.76,110.15c6.4-1.01,12.54,5.59,12.92,10.2.6,7.21-3.92,13.53-10.64,14.35-5.74.7-11.85-4.15-13.38-9.85-1.56-5.83,2.61-13.36,11.09-14.69Z"/>
</svg>