<?xml version="1.0" encoding="UTF-8"?>
<svg id="Warstwa_1" data-name="Warstwa 1" xmlns="http://www.w3.org/2000/svg" viewBox="0 0 943.52 344.1">
  <defs>
    <style>
      .cls-1 {
        fill: #f7f8fd;
      }

      .cls-2 {
        fill: #4f4f4f;
      }

      .cls-3 {
        fill: #a5a5a5;
      }
    </style>
  </defs>
  <path class="cls-1" d="M286.51,107.69h20.88v67.3h22.89v-67.3h22.16l4.28-12.37h-74.48s4.28,12.37,4.28,12.37ZM224.85,107.71h34.26l6.33-12.38h-57.38c-5.84,0-7.44,4.3-7.44,7.74v71.91h64.82l-6.33-12.35h-34.25c-.46,0-.89.05-1.36.08v-22.82h28.87v-10.55h-28.88v-21.73c.45.03.86.08,1.36.08h0ZM160.37,95.33h-64.44v79.67h64.13c10.92,0,10.92-6.37,10.92-10.59v-20.42c0-9.4-8.1-9.56-8.1-9.56,4.76,0,8.43-3.61,8.43-8.75v-19.78c0-10.47-7.79-10.59-10.93-10.59v.02s-.02,0-.02,0ZM150.41,159.01c0,2.45-1.62,3.61-5.09,3.61h-26.26v-22.91s23.04.1,26.07.1,5.3,2.02,5.3,5.75v13.43l-.02.02h0ZM150.41,125.83c0,2.3-1.62,3.39-5.09,3.39h-26.26v-21.52s23.04.1,26.07.1,5.3,1.9,5.3,5.4v12.61l-.02.02h0ZM558.1,94.68h-57.16c-5.84,0-7.44,4.29-7.44,7.74v71.93h22.89v-35.15h42.68c7.41,0,9.95-4.46,9.95-9.43v-24.81c0-10.16-7.79-10.26-10.92-10.26,0,0,.02-.02.02-.02ZM547.71,125.19c0,2.31-1.63,3.4-5.09,3.4h-26.28v-21.53s23.04.1,26.07.1,5.31,1.9,5.31,5.4v12.63ZM773.13,95.31l4.28,12.37h20.87v67.3h22.89v-67.29h22.16l4.28-12.37h-74.48s.02-.02.02-.02ZM616.9,107.69h34.26l6.33-12.38h-57.36c-5.84,0-7.46,4.3-7.46,7.74v71.91h64.82l-6.33-12.35h-34.26c-.45,0-.89.05-1.34.08v-22.82h28.86v-10.53h-28.86v-21.73c.45.03.86.08,1.34.08h0ZM745.23,95.31h-57.16c-5.84,0-7.44,4.3-7.44,7.74v71.93h22.89v-35.15h15.89c2.77,6.45,14.12,32.85,15.1,35.15h21.31s-9.96-23.45-14.95-35.15h5.32c7.41,0,9.95-4.46,9.95-9.43v-24.83c0-10.16-7.79-10.26-10.92-10.26h.02ZM734.84,125.83c0,2.3-1.62,3.39-5.09,3.39h-26.28v-21.52s23.04.1,26.07.1,5.3,1.9,5.3,5.4v12.63h0Z"/>
  <path class="cls-2" d="M378.19,175.94v-23.03c0-10.81,8.35-16.94,25.06-18.37-16.71-1.43-25.06-7.56-25.06-18.36v-23.01h25.01v27.56c0,2.51,1.24,4.68,3.72,6.49,2.48,1.81,5.44,2.72,8.9,2.72s6.41-.9,8.89-2.72c2.48-1.8,3.72-3.97,3.72-6.49v-27.56h25v23.01c0,10.83-8.34,16.94-25.06,18.37,16.71,1.51,25.06,7.66,25.06,18.43v22.97h-25.01v-27.56c0-2.51-1.25-4.66-3.72-6.47-2.48-1.81-5.44-2.72-8.89-2.72s-6.41.91-8.9,2.72c-2.48,1.81-3.72,3.97-3.72,6.47v27.56h-25.01Z"/>
  <path class="cls-3" d="M199.19,250.44l-8.94-34.32h4.12l7.8,30.79h2.73l7.8-30.79h4.12l-8.89,34.32h-8.74ZM221.19,250.44v-34.32h3.97v34.32h-3.97ZM232.51,250.44v-34.32h12.27c2.52,0,4.6.41,6.26,1.24,1.66.79,2.96,1.94,3.92,3.43.96,1.46,1.64,3.21,2.04,5.26.4,2.02.6,4.25.6,6.7s-.2,4.8-.6,6.95c-.31,1.98-.99,3.88-1.99,5.61-.93,1.6-2.29,2.9-3.92,3.77-1.66.89-3.76,1.34-6.31,1.34,0,0-12.27,0-12.27,0ZM236.48,246.91h8.29c1.79,0,3.24-.38,4.37-1.14,1.13-.76,2-1.8,2.63-3.13s1.06-2.83,1.29-4.52c.26-1.69.4-3.48.4-5.36s-.13-3.58-.4-5.17c-.19-1.45-.63-2.86-1.29-4.17-.6-1.16-1.51-2.12-2.63-2.78-1.13-.66-2.58-.99-4.37-.99h-8.29v27.27ZM263.48,250.44v-34.32h21.01v3.53h-17.03v11.62h14.06v3.48h-14.06v12.17h17.03v3.53h-21.01ZM289.94,250.44v-34.32h7.4l12.91,30.79h.99v-30.79h3.97v34.32h-7.25l-13.11-30.79h-.94v30.79h-3.97ZM344.69,250.94c-3.58,0-6.36-.66-8.34-1.99-1.95-1.32-3.33-3.28-4.12-5.86-.76-2.62-1.14-5.83-1.14-9.63s.4-7.04,1.19-9.68c.79-2.65,2.17-4.67,4.12-6.06,1.99-1.42,4.75-2.14,8.29-2.14s6.29.7,8.24,2.09c1.99,1.39,3.38,3.43,4.17,6.11.79,2.65,1.19,5.88,1.19,9.68s-.4,7.17-1.19,9.78c-.76,2.58-2.14,4.52-4.12,5.81-1.95,1.26-4.72,1.89-8.29,1.89ZM344.69,247.41c2.62,0,4.6-.5,5.96-1.49s2.28-2.52,2.78-4.57c.5-2.09.74-4.72.74-7.9s-.26-5.68-.79-7.8c-.5-2.15-1.42-3.77-2.78-4.87-1.36-1.13-3.33-1.69-5.91-1.69s-4.55.56-5.91,1.69c-1.36,1.09-2.3,2.7-2.83,4.82-.5,2.12-.74,4.73-.74,7.85s.25,5.66.74,7.75c.5,2.05,1.42,3.61,2.78,4.67,1.36,1.03,3.34,1.54,5.96,1.54ZM364.27,250.44v-34.32h7.2l9.48,28.81,9.54-28.81h7.2v34.32h-3.97v-30.1h-.74l-9.78,28.86h-4.43l-9.78-28.86h-.74v30.1h-3.97,0ZM424.34,250.89c-.99,0-2.15-.07-3.48-.2-1.32-.1-2.65-.23-3.97-.4-1.14-.18-2.28-.34-3.43-.5l.4-3.28,3.33.35c1.29.13,2.55.25,3.77.35,1.26.1,2.32.15,3.18.15,1.62,0,2.96-.23,4.02-.7,1.06-.5,1.85-1.24,2.38-2.23s.79-2.27.79-3.82c0-1.26-.25-2.25-.74-2.98-.46-.76-1.26-1.36-2.38-1.79-1.43-.56-2.91-.98-4.42-1.24-1.58-.31-3.14-.72-4.67-1.24-1.2-.4-2.32-.98-3.33-1.74-.89-.72-1.57-1.66-1.99-2.73-.43-1.09-.65-2.45-.65-4.07,0-2.22.45-4.01,1.34-5.36.93-1.36,2.22-2.35,3.87-2.98,1.69-.63,3.64-.94,5.86-.94.99,0,2.12.07,3.38.2,1.29.1,2.55.23,3.77.4,1.26.13,2.33.28,3.23.45l-.35,3.33c-.96-.13-2.07-.25-3.33-.35-1.26-.13-2.47-.25-3.63-.35-.92-.09-1.85-.14-2.78-.15-1.59,0-2.93.2-4.02.6-1,.33-1.87.97-2.48,1.84-.56.79-.84,1.82-.84,3.08,0,1.46.26,2.57.79,3.33.56.76,1.46,1.36,2.68,1.79,1.23.43,2.83.88,4.82,1.34,1.72.4,3.2.83,4.42,1.29,1.26.46,2.28,1.04,3.08,1.74.83.66,1.42,1.51,1.79,2.53.4.99.6,2.23.6,3.72,0,2.52-.45,4.55-1.34,6.11-.87,1.53-2.21,2.73-3.82,3.43-1.66.7-3.61,1.04-5.86,1.04ZM440.88,250.44v-34.32h12.57c2.52,0,4.59.41,6.21,1.24,1.62.79,2.83,2.02,3.63,3.68.79,1.62,1.19,3.69,1.19,6.21s-.4,4.6-1.19,6.36c-.75,1.68-2.02,3.07-3.63,3.97-1.62.89-3.69,1.34-6.21,1.34h-8.59v11.52h-3.97ZM444.85,235.44h8.59c2.45,0,4.22-.71,5.31-2.14,1.09-1.42,1.64-3.44,1.64-6.06s-.55-4.59-1.64-5.81-2.86-1.84-5.31-1.84h-8.59v15.84ZM469.27,250.44v-34.32h3.97v34.32h-3.97ZM480.6,250.44v-34.32h3.97v30.74h15v3.58h-18.97ZM522.63,250.89c-.99,0-2.15-.07-3.48-.2-1.32-.1-2.65-.23-3.97-.4-1.14-.18-2.28-.34-3.43-.5l.4-3.28,3.33.35c1.29.13,2.55.25,3.77.35,1.26.1,2.32.15,3.18.15,1.62,0,2.96-.23,4.02-.7,1.06-.5,1.85-1.24,2.38-2.23s.79-2.27.79-3.82c0-1.26-.25-2.25-.74-2.98-.46-.76-1.26-1.36-2.38-1.79-1.43-.56-2.91-.98-4.42-1.24-1.58-.31-3.14-.72-4.67-1.24-1.2-.4-2.32-.98-3.33-1.74-.89-.72-1.57-1.66-1.99-2.73-.43-1.09-.65-2.45-.65-4.07,0-2.22.45-4.01,1.34-5.36.93-1.36,2.22-2.35,3.87-2.98,1.69-.63,3.64-.94,5.86-.94.99,0,2.12.07,3.38.2,1.29.1,2.55.23,3.77.4,1.26.13,2.33.28,3.23.45l-.35,3.33c-.96-.13-2.07-.25-3.33-.35-1.26-.13-2.47-.25-3.63-.35-.92-.09-1.85-.14-2.78-.15-1.59,0-2.93.2-4.02.6-1,.33-1.87.97-2.48,1.84-.56.79-.84,1.82-.84,3.08,0,1.46.26,2.57.79,3.33.56.76,1.46,1.36,2.68,1.79,1.23.43,2.83.88,4.82,1.34,1.72.4,3.2.83,4.42,1.29,1.26.46,2.28,1.04,3.08,1.74.83.66,1.42,1.51,1.79,2.53.4.99.6,2.23.6,3.72,0,2.52-.45,4.55-1.34,6.11-.87,1.53-2.21,2.73-3.82,3.43-1.66.7-3.61,1.04-5.86,1.04ZM539.17,250.44v-34.32h3.97v34.32h-3.97ZM550.5,250.44v-34.32h12.27c2.52,0,4.6.41,6.26,1.24,1.66.79,2.96,1.94,3.92,3.43.96,1.46,1.64,3.21,2.04,5.26.4,2.02.6,4.25.6,6.7s-.2,4.8-.6,6.95c-.31,1.98-.99,3.88-1.99,5.61-.93,1.6-2.29,2.9-3.92,3.77-1.66.89-3.76,1.34-6.31,1.34,0,0-12.27,0-12.27,0ZM554.47,246.91h8.29c1.79,0,3.24-.38,4.37-1.14,1.13-.76,2-1.8,2.63-3.13s1.06-2.83,1.29-4.52c.26-1.69.4-3.48.4-5.36s-.13-3.58-.4-5.17c-.19-1.45-.63-2.86-1.29-4.17-.6-1.16-1.51-2.12-2.63-2.78-1.13-.66-2.58-.99-4.37-.99h-8.29v27.27ZM581.46,250.44v-34.32h21.01v3.53h-17.03v11.62h14.06v3.48h-14.06v12.17h17.03v3.53s-21.01,0-21.01,0ZM607.92,250.44v-34.32h7.4l12.91,30.79h.99v-30.79h3.97v34.32h-7.25l-13.11-30.79h-.94v30.79h-3.97ZM649.71,250.44v-3.38l9.44-9.88c1.36-1.42,2.53-2.7,3.53-3.82.99-1.16,1.75-2.28,2.28-3.38.53-1.13.79-2.32.79-3.58,0-2.15-.6-3.63-1.79-4.42-1.16-.83-2.91-1.24-5.26-1.24-.86,0-1.82.07-2.88.2-1.06.1-2.09.23-3.08.4-.83.11-1.66.26-2.48.45l-.3-3.28c.85-.24,1.71-.43,2.58-.6,1.03-.2,2.14-.36,3.33-.5,1.23-.17,2.42-.25,3.58-.25,3.48,0,6.08.7,7.8,2.09,1.75,1.39,2.63,3.63,2.63,6.7,0,1.62-.26,3.08-.79,4.37-.5,1.29-1.26,2.57-2.28,3.82-.99,1.23-2.27,2.6-3.82,4.12l-8.59,8.69h16.29v3.48h-20.96,0ZM686.99,250.94c-1.72.03-3.44-.24-5.07-.79-1.47-.54-2.77-1.44-3.77-2.63-1.03-1.26-1.82-2.95-2.38-5.07-.53-2.12-.79-4.75-.79-7.9,0-3.34.26-6.14.79-8.39s1.31-4.04,2.33-5.36c1.06-1.32,2.32-2.27,3.77-2.83,1.49-.56,3.18-.84,5.07-.84s3.68.28,5.17.84,2.73,1.51,3.72,2.83c1.03,1.32,1.8,3.11,2.33,5.36.53,2.22.79,5.02.79,8.39,0,4.17-.48,7.45-1.44,9.83-.96,2.38-2.33,4.07-4.12,5.07-1.75.99-3.89,1.49-6.41,1.49h0ZM686.99,247.41c1.29,0,2.42-.2,3.38-.6.99-.4,1.82-1.08,2.48-2.04.66-.96,1.16-2.27,1.49-3.92.33-1.69.5-3.79.5-6.31,0-2.75-.17-5.02-.5-6.8-.3-1.79-.78-3.2-1.44-4.22-.55-.99-1.4-1.77-2.43-2.23-1.1-.46-2.29-.68-3.48-.65-1.32,0-2.48.22-3.48.65-.99.43-1.82,1.16-2.48,2.19-.63,1.03-1.11,2.45-1.44,4.27-.33,1.79-.5,4.07-.5,6.85,0,2.52.17,4.62.5,6.31.36,1.66.88,2.96,1.54,3.92.7.93,1.52,1.59,2.48,1.99.99.4,2.12.6,3.38.6h0ZM713.79,250.94c-1.72.03-3.44-.24-5.07-.79-1.47-.54-2.77-1.44-3.77-2.63-1.03-1.26-1.82-2.95-2.38-5.07-.53-2.12-.79-4.75-.79-7.9,0-3.34.26-6.14.79-8.39s1.31-4.04,2.33-5.36c1.06-1.32,2.32-2.27,3.77-2.83,1.49-.56,3.18-.84,5.07-.84s3.68.28,5.17.84,2.73,1.51,3.72,2.83c1.03,1.32,1.8,3.11,2.33,5.36.53,2.22.79,5.02.79,8.39,0,4.17-.48,7.45-1.44,9.83-.96,2.38-2.33,4.07-4.12,5.07-1.75.99-3.89,1.49-6.41,1.49h0ZM713.79,247.41c1.29,0,2.42-.2,3.38-.6.99-.4,1.82-1.08,2.48-2.04.66-.96,1.16-2.27,1.49-3.92.33-1.69.5-3.79.5-6.31,0-2.75-.17-5.02-.5-6.8-.3-1.79-.78-3.2-1.44-4.22-.55-.99-1.4-1.77-2.43-2.23-1.1-.46-2.29-.68-3.48-.65-1.32,0-2.48.22-3.48.65-.99.43-1.82,1.16-2.48,2.19-.63,1.03-1.11,2.45-1.44,4.27-.33,1.79-.5,4.07-.5,6.85,0,2.52.17,4.62.5,6.31.36,1.66.88,2.96,1.54,3.92.7.93,1.52,1.59,2.48,1.99.99.4,2.12.6,3.38.6h0ZM742.08,250.44v-28.36l-8.34,5.56-1.84-3.03,10.43-6.95h3.72v32.78h-3.97,0Z"/>
</svg>