<?xml version="1.0" encoding="UTF-8"?>
<svg id="Warstwa_1" data-name="Warstwa 1" xmlns="http://www.w3.org/2000/svg" viewBox="0 0 717.61 344.1">
  <defs>
    <style>
      .cls-1 {
        fill: #4f4f4f;
      }

      .cls-2 {
        fill: #a5a5a5;
      }
    </style>
  </defs>
  <g>
    <path class="cls-1" d="M191.7,188.57c-5.22,16.19-17.47,29.02-33.23,35.11-8.68,3.35-17.12,4.1-26.47,3.2-2.97-.29-9.05-1.9-12.13-2.96-1.4-.48-2.88-1.27-4.2-1.98-4.23-2.29-8.21-4.72-11.76-8-1.06-.98-2-2.02-3.6-2.32,1.98,3.28,4.71,5.72,7.77,7.82.74.51,1.22,1.36.87,2.27-.33.83-1.47.41-2.33.4l-21.63-.14c-2.27-.01-4.2-2.11-5.46-3.81V87.64c1.13-1.11,1.85-1.85,2.97-3.13l29.58-.03c1.24,1.26,2.56,2.77,3.19,4.32v29.35c-.01,1.2-1.8,2-2.58,2.56-4.64,3.31-9.2,6.44-12.36,11.35,1.46-.26,2.43-1.16,3.47-2.09,5.66-5.11,12.25-8.79,19.68-10.92,8.09-2.31,13.37-2.45,22-1.92,1.95.12,4.11.78,6.08,1.23,18.72,4.25,34.25,18.71,40.1,37.06.71,2.23,1.12,4.28,1.61,6.51,1.51,6.82,1.46,13.35,0,20.18-.46,2.16-.78,4.03-1.56,6.46ZM146.93,196.65c10.34-3.47,17.35-12.7,17.87-23.35s-5.62-20.78-15.67-24.97c-.77-.32-2.06-.98-2.76-1.12-4.83-1-10.21-1.33-14.85.04-10.32,3.04-17.26,11.79-18.41,21.83-1.23,10.74,4.22,20.77,13.63,25.83,5.99,3.22,14.04,3.8,20.19,1.74Z"/>
    <path class="cls-1" d="M530.9,221.95c-7.76.09-14.87.3-22.07-.14-3.6-.22-5.43-4.27-4.62-7.12.11-.37-.1-1.21-.32-1.42-.27-.26-1.15.04-1.41.32-3.88,4.16-9.72,7.29-15.04,8.55-4.03.96-10.1,1.82-14.11,1.33-5.71-.71-11.72-1.35-16.71-4.17l-5.04-2.85c-6.4-4.83-11.05-11.46-13.13-19.4-.82-3.11-1.99-6.57-2-9.92l-.07-55.01c0-1.56,2.55-3.87,3.98-4.22l25.11.04c3.14,0,4.72,3.8,4.73,6.5l.15,44.74c.02,4.97,1.88,9.91,5.61,12.93.84.68,2.26,1.32,3.27,1.75,1.93.83,4.31.54,6.42.64,7.23.35,13.15-4.27,15.13-10.8.63-2.1,1.5-4.74,1.51-7.06l.13-43.27c0-2.32,2.15-5.46,4.59-5.45l24.8.02c1.69,0,4.24,2.87,4.24,4.65v84.27c0,2.37-2.8,5.06-5.13,5.09Z"/>
    <path class="cls-1" d="M382.39,155.98c-8.49-3.48-19.61.17-22.82,9.8-.74,2.21-1.75,4.97-1.76,7.46l-.25,44.43c-.01,2.01-3.16,4.31-4.9,4.31l-21.85.1c-2.5.01-6.49-1.45-6.49-4.77l-.02-85.1c0-1.73,2.68-4.3,4.23-4.31l23.52-.11c7.32,3.94,2.11,8.48,4.7,9.17,11.01-10.76,29.15-13.22,43.35-8.58,10.55,3.44,18.37,11.26,21.8,21.78,1.02,3.12,2.48,8.93,2.47,12.2l-.02,55.27c0,2.02-2.89,4.29-4.71,4.3l-23.62.03c-1.95,0-4.96-2.55-4.97-4.69l-.1-47.15c0-1.71-.73-3.44-1.1-5.08-.9-4.05-3.73-7.53-7.47-9.06Z"/>
    <path class="cls-1" d="M609.46,219c-8.41,3.52-22.27,5.22-31.25,4.4l-9.17-.84c-4.22-.38-13.63-2.64-17.61-4.14l-3.97-1.49c-1.66-.63-3.22-1.62-4.02-2.99-.92-1.6-1.04-3.6-.28-5.32l5.71-12.88c.64-1.45,2.39-2.63,3.57-3.03,1.69-.57,3.69.38,5.17,1.06,4.77,2.19,15.12,4.92,20.12,5.2,4.09.23,8.07.2,12.18.03,3.29-.14,8.79-2.08,8.22-6.17-.71-5.15-13.61-5.54-18.11-6.27l-9.97-1.63c-2.58-.42-7.65-1.97-10.22-2.98-6.36-2.5-12.06-6.87-14.87-13.37-2.22-5.14-2.48-12.14-1.2-17.44,2.59-10.68,11.89-17.84,21.85-21.32,9.78-3.42,19.79-4.03,30.23-3.41,4.8.28,14.21,1.84,18.75,3.24l4.47,1.38c1.04.32,2.71,1.16,3.49,1.76,2.88,2.17,2.34,5.33,1.09,8.14l-3.21,7.23c-1.9,4.3-2.22,6.21-7.08,7.57l-4.17-1.67c-8.22-3.29-19.72-4.75-28.47-2.87-2.85.61-6.42,2.55-6.17,5.5.3,3.54,5.63,4.88,8.78,5.37l10.82,1.68,6.87,1.14c4.75.79,9.49,2.4,13.89,4.26,6.87,2.91,12.37,8.59,13.95,16.02,3.46,16.3-4.83,27.76-19.4,33.85Z"/>
    <path class="cls-1" d="M629.93,257.87l-.14-11.31c-.02-1.54-1.92-2.97-3.08-2.89-1.29.09-3.17,1.22-3.21,2.87l-.21,9.57c-.01.54-.08,1.11-.17,1.68-.16,1.02-1.03,1.78-2.06,1.77h-4.19c-1.14-.02-2.06-.93-2.07-2.07l-.12-10.61c-.01-1.31-1.23-2.65-2.18-3-1.2-.44-3.31.01-3.77,1.35-1.47,4.33-.57,8.15-.91,12.38-.09,1.08-.98,1.93-2.06,1.93l-4.25.02c-1.02,0-1.89-.73-2.06-1.73-.14-.82-.23-1.66-.22-2.53l.13-16.92c.02-2.57,6.65-3.15,8.54-.4,3.26-1.25,3.79-2.5,8.82-1.53,1.63.31,3.93,2.63,4.52,2.65,1.64.07,2.17-3.75,10.26-2.74,1.72.21,3.7,1.65,4.68,2.94h0c1.22,1.61,1.88,3.58,1.88,5.6v12.57c0,1.15-.92,2.08-2.07,2.08h-4.05c-.92,0-1.76-.6-1.99-1.5-.02-.08-.03-.15-.03-.2Z"/>
    <path class="cls-1" d="M591.89,257.44l-.05.04c-1.73,1.32-3.85,2.03-6.02,2.02h-4.81c-1.96,0-3.87-.59-5.5-1.68h0c-4.04-2.7-5.67-7.28-4.91-11.88.72-4.36,4.05-7.75,8.61-9.28,1.41-.47,3.26-.41,4.97-.46,5.46-.14,11.29,4.25,12.18,9.65.74,4.47-.66,8.69-4.47,11.59ZM583.94,253.17c2.72-.33,4.01-3.23,3.82-5.39-.18-2.02-1.52-4.47-4.04-4.71-2.05-.2-4.11,1.87-4.48,3.7-.64,3.11,1.13,6.85,4.7,6.41Z"/>
    <path class="cls-1" d="M563.89,250.33c.3-.05,5.4,2.43,5.45,3.73.07,2.08-4.64,5.57-6.03,5.55l-7.13-.07c-1.96-.02-3.86-.65-5.44-1.81h0c-1.6-1.17-3.06-2.45-3.91-4.36-2.61-5.84-.67-12.33,5.05-15.54,5.57-3.13,14.56-1.92,17.28,3.69.81,1.67-1.61,2.59-2.58,3.15-1.06.61-2.25,1.71-3.34.99-1.28-.84-2.44-2.31-3.99-2.62-1.75-.35-3.71,1.42-4.33,2.67-.87,1.75-.83,4.31.45,5.75.98,1.1,2.11,1.77,3.45,1.82,2.55.11,3.4-2.67,5.08-2.96Z"/>
    <path class="cls-1" d="M537.95,259.57c-1.24-.03-2.4-.66-3.05-1.71s-.94-2.03-.89-3.13c.07-1.47,1.17-2.95,2.61-4,2.37-1.73,5.34-.58,6.88,1.69,1.05,1.55.97,3.88-.15,5.54-.68,1.01-1.84,1.6-3.06,1.62-.74.01-1.56,0-2.33,0Z"/>
  </g>
  <path class="cls-2" d="M310.9,143.03c-2.85,28.53-27.72,43.91-54.52,43.72-29.52-.21-53.28-20.8-52.89-49.76.41-30.44,25.75-48.85,55.76-48.22,30.15.64,54.91,21.67,51.66,54.26ZM249.18,111.48c-15.54,4.75-22.51,20.82-18.34,34.21,4.65,14.95,20.31,22.5,34.37,18.33,14.71-4.37,22.93-19.49,18.84-33.67-4.21-14.57-19.27-23.65-34.86-18.88Z"/>
</svg>