<?xml version="1.0" encoding="UTF-8"?>
<svg id="Warstwa_1" data-name="Warstwa 1" xmlns="http://www.w3.org/2000/svg" viewBox="0 0 943.52 344.1">
  <defs>
    <style>
      .cls-1 {
        fill: #4f4f4f;
      }

      .cls-2 {
        fill: #a5a5a5;
      }

      .cls-3 {
        fill: #f7f4f1;
      }
    </style>
  </defs>
  <path class="cls-1" d="M191.33,262.85c-50.01,0-90.8-40.79-90.8-90.99s40.79-90.6,90.8-90.6,90.8,40.79,90.8,90.8-40.59,90.8-90.8,90.8ZM346.06,178.72v-25.89h12.16v-39.61h-63.93v39.42h10.59v39.22h-10.59v39.42h92.56v-6.86c7.65,5.1,17.06,7.84,27.65,7.84,11.37,0,21.38-2.55,29.61-7.26l5.49-3.33c8.04,6.86,18.63,10.79,30.4,10.79,17.85,0,32.75-9.02,40.2-23.14l9.41,21.96h26.28l8.82-20.98c7.65,13.53,22.55,21.77,40.79,21.77,9.41,0,17.65-1.57,24.91-4.9-.2,1.18-.2,2.35-.2,3.53,0,6.28,2.55,12.16,7.06,16.87,7.06,7.06,19.61,11.37,33.14,11.37s25.49-4.9,32.95-14.32c3.92-4.9,6.47-10.59,7.65-17.06,5.29,3.14,11.57,4.9,18.63,4.9,2.94,0,6.08-.39,9.22-.98h47.46v-2.16c5.69,1.96,11.96,2.94,18.04,2.94,22.36,0,38.63-13.73,38.63-32.55,0-6.47-1.76-11.96-5.49-16.47,2.55-3.53,3.92-7.84,3.92-12.55,0-6.28-2.55-12.16-7.06-16.87-7.45-7.45-20.2-10.79-29.61-10.79-15.88,0-27.06,6.67-32.95,15.69-.59-.98-1.18-1.76-1.96-2.55-4.9-6.08-14.32-13.14-31.77-13.14-7.06,0-12.75,1.18-17.26,2.94v-1.96h-44.52c-2.94-.78-6.08-.98-9.02-.98-12.16,0-23.14,5.29-30.98,14.32-7.65-9.22-19.41-14.32-33.14-14.32h-1.37v-29.81h-118.06v29.81c-1.18,0-2.16-.2-3.33-.2-13.73,0-26.28,5.69-34.51,15.1-7.65-9.61-19.61-15.1-33.73-15.1-21.57,0-39.03,14.9-42.95,35.5h-22.55s-.59.39-.59.39Z"/>
  <path class="cls-2" d="M191.33,88.31c-46.08,0-83.74,37.65-83.74,83.74s37.65,83.93,83.93,83.93,83.93-37.65,83.93-83.93-37.85-83.74-84.13-83.74Z"/>
  <path class="cls-3" d="M193.29,201.66c-.98-.78-2.35-.59-3.33.2-3.53,3.14-8.63,6.28-13.73,7.45-.98.2-1.37,1.57-.78,2.75.98,2.16,3.33,5.1,5.49,7.06s3.92,2.55,5.49,3.73,3.92,4.31,4.9,5.69c.2.39.78.39.98,0,.78-1.37,2.55-4.31,4.51-5.88,2.16-1.76,7.84-4.9,9.22-8.63.59-1.57,1.57-3.73,2.35-5.1.98-1.96.39-3.14-.98-3.14-5.29-.2-10.59-1.76-14.12-4.12Z"/>
  <path class="cls-3" d="M191.33,93.8c-43.14,0-78.25,35.1-78.25,78.25,0,43.34,35.1,78.25,78.25,78.25s78.25-35.1,78.25-78.25c.2-43.14-34.91-78.25-78.25-78.25ZM243.49,123.42l-9.61,9.61v-.59c0-3.53-2.16-5.69-4.9-8.04l-.2-.2,8.04-6.86c2.35,1.76,4.51,3.92,6.67,6.08ZM154.27,111.26l5.1-2.94c.39-.2.98-.59,1.37-.78l10.2,13.34-1.76-16.47c2.75-.98,5.69-1.76,8.82-2.35l6.86,19.81,1.96-20.98c1.57,0,2.94-.2,4.51-.2s2.94,0,4.51.2l1.96,20.2,6.86-19.02c2.94.59,5.88,1.37,8.82,2.16l-1.76,17.26,10-13.92c2.75,1.37,5.29,2.75,7.84,4.31l-4.9,9.41c-2.75-1.37-5.69-1.96-6.86,0-1.96,3.14-3.92,5.29-4.51,5.29-2.16-.2-6.08-2.16-10.39-2.16-8.43,0-10.98,5.88-10.98,5.88,0,0-4.31-5.88-11.96-5.88s-10,2.35-10,2.35c0,0-1.96-4.71-3.33-6.08-.98-.98-4.71-.39-8.24,1.57l-.2-.59-5.1-9.61c.2-.2.78-.39,1.18-.78ZM210.55,140.09c-5.69,1.18-9.02,3.92-10.2,4.71-1.37.78-1.96-1.57-1.37-2.75s1.96-1.18,3.33-2.55c3.33-3.14,4.9-3.53,8.24-3.73,2.35-.2,4.51.2,5.88.59,1.37.39,2.35,1.96,3.33,3.92.39.98,1.37,3.73,1.18,6.08,0,.78-.59.98-.78.59s-1.96-8.43-9.61-6.86ZM219.18,150.28c-.78.59-2.35,0-2.35,0,0,0-2.35,3.33-3.33,3.92-.78.59-9.81,2.75-9.81,2.75,0,0-.98,1.76-1.96,1.37-1.37-.39,0-7.84.78-9.81.59-1.96,5.69-2.94,8.82-3.14,3.14,0,6.28,2.16,8.04,3.53.39.2.39.78-.2,1.37ZM180.74,147.54c-2.35-.39-3.53-2.94-6.08-5.69-3.92-3.92-8.24-.78-10.79,0-1.76.39-2.75-2.55-.59-5.1,2.35-2.75,9.02-2.75,11.57-1.18,1.18.78,4.51,6.47,7.26,7.45,5.69,2.16,2.75,5.1-1.37,4.51ZM181.52,158.91c-.98.39-1.18-.78-1.76-1.18-.2-.2-1.37.2-2.16-.39-.98-.59-1.18-1.76-2.35-2.55-3.14-1.96-5.1-1.37-5.88-1.76s-1.96-1.57-1.96-1.57c0,0-1.57.59-2.16,0s-.59-.98-.2-1.37c1.76-1.37,4.71-3.53,7.65-3.33,2.94,0,7.65,1.18,8.24,2.94.39,1.18.98,4.51.98,6.86,0,1.18.59,1.96-.39,2.35ZM145.64,117.53l7.84,7.26.59.59c-2.35,2.35-4.51,5.1-5.1,7.26l-9.81-9.02s6.47-6.08,6.47-6.08ZM262.12,181.07c-.39,2.94-.98,5.88-1.57,8.82l-35.1-6.67,32.36,15.1c-1.18,2.75-2.35,5.49-3.73,8.04l-32.16-15.1,27.45,22.55c-1.76,2.35-3.73,4.71-5.69,6.86l-25.49-20,18.83,26.28c-2.35,1.96-4.71,3.73-7.26,5.29l-18.43-24.32,10.79,28.63c-2.75,1.37-5.49,2.35-8.43,3.33l-9.81-19.41,1.37,21.57c-2.94.59-6.08.98-9.22,1.18l-4.31-12.16-4.31,12.16c-3.14-.2-6.08-.59-9.22-1.18l.59-20.4-9.02,18.24c-2.94-.98-5.69-1.96-8.43-3.33l9.22-26.08-16.87,21.96c-2.55-1.57-4.9-3.33-7.26-5.29l20.98-29.02-27.45,22.94c-2.16-2.16-3.92-4.51-5.69-6.86l27.45-22.94-32.36,15.3c-1.37-2.55-2.75-5.29-3.92-8.04l32.55-15.3-35.3,6.86c-.78-2.94-1.37-5.88-1.76-8.82l35.3-6.86-36.08-1.96v-3.53l.2-1.57c0-1.18.2-2.55.39-3.73l33.93,1.76-32.36-10.59c.78-2.94,1.57-5.69,2.75-8.63l26.67,6.08-22.94-14.32,4.71-7.65,23.73,10.79c-.39,1.18-1.18,3.53-.98,7.84.2,6.28-.59,10.39,1.96,12.94,2.75,2.75,6.28,4.9,8.24,7.45.39.59.78.98.98,1.57.59.59.78.98.98,1.37l.59,1.18c1.37-2.35,4.31-3.73,4.9-3.33.39.39-1.76,2.35-3.92,7.65-.39,1.18-1.18,3.14-1.76,4.71-.78,2.35-1.18,4.71-.78,7.84.59,5.1,4.12,11.57,5.49,13.34.98,1.18,4.12.59,6.47,0s6.47-2.94,8.04-4.9c1.76-1.96,2.94-3.33,2.35-6.47-.39-2.16-2.55-5.1-4.31-6.28-1.76-.98-4.71-3.14-5.49-4.31-.39-.59-.98-1.57-1.57-2.35-.39-.78-.78-1.37-.59-1.76.59-.39.78-.2,1.37.39s.98,1.37,1.18,1.18c.2-.2,0-.2,0-.78.2-.39.59-.98,1.57-1.57,1.96-.98,5.69,1.37,9.61,1.37s9.02-3.53,10.59-2.16c.98.78,1.18,1.57,1.18,2.16,0,0,0,.2.2.2.59,0,1.18-.78,1.76-1.37.39-.39.78-.59,1.18-.39.39.2.2.98,0,1.76s-.59,1.57-.98,1.76c-1.18.98-3.53.98-7.06,4.12-3.33,2.94-5.1,5.69-5.29,7.65-.2,1.37.59,4.31,1.96,5.88s3.14,2.75,6.47,3.33c2.94.39,8.63-.78,10.2-2.16,2.16-1.96,3.33-4.12,4.12-7.45.78-3.53.2-8.82-.39-10.79-1.76-5.49-4.51-8.63-3.73-9.22.59-.59,2.35,1.18,3.53,2.16.2-.78.39-2.94.78-4.12.59-2.55,1.76-3.92,4.31-5.29,2.94-1.76,7.45-4.31,7.84-7.26s.78-8.63.2-10.59c-.39-1.18-.78-3.14-1.18-4.51l21.77-11.77c1.76,2.35,3.33,4.9,4.9,7.65l-22.16,13.92,26.08-5.88c1.18,2.75,2.16,5.69,2.75,8.63l-34.12,10.98,35.69-2.35c.39,2.94.59,5.88.59,8.82v.2l-35.69,2.55,35.1,6.47Z"/>
  <path class="cls-2" d="M827.3,183.23c4.51-2.16,7.26-6.86,7.26-12.35,0-4.51-1.76-8.43-5.1-11.96-6.08-6.08-17.06-8.82-24.71-8.82-15.3,0-30.79,8.63-30.79,25.3,0,7.26,2.75,12.16,7.06,15.69-4.71,1.57-8.24,5.69-9.02,10.79h-1.57v-22.36c0-7.65-2.16-14.51-6.08-18.83-3.92-4.9-11.57-10.59-26.47-10.59-11.57,0-19.61,3.53-24.32,8.43v-7.26h-34.51v1.37c-3.53-1.37-7.45-2.35-12.16-2.35-13.92,0-25.49,8.43-30.98,20.79-5.1-12.75-17.06-20.79-32.95-20.79-9.22,0-17.26,3.14-23.53,8.24l5.29-12.55h9.81v-25.49h-47.85v25.49h7.84l-11.77,30.2-11.77-30.2h7.26v-25.49h-47.85v25.49h10.39l6.08,14.32c-6.86-6.28-16.08-10-26.87-10-16.08,0-29.22,8.63-35.1,21.77-4.71-13.34-17.06-21.77-33.34-21.77-20.4,0-35.69,15.1-36.87,35.5h-21.77v13.14h-14.32v-53.14h12.16v-25.49h-49.81v25.49h10.59v53.14h-10.59v25.49h78.64v-17.45c6.47,11.18,19.02,18.24,34.51,18.24,10.2,0,19.02-2.16,26.08-6.28l3.92-2.35-1.57-4.31c-.39-.98-3.14-9.02-4.31-11.57l-.98-2.35h5.29c4.31,16.08,18.63,27.06,37.06,27.06,21.96,0,38.44-16.28,38.44-37.65v-.2l15.69,36.87h17.06l14.9-34.91c.78,21.18,16.87,35.69,39.42,35.69,10.2,0,19.02-2.16,26.08-6.28l3.92-2.35-1.57-4.31c-.39-.98-3.14-9.02-4.31-11.57l-.98-2.35h5.1c2.35,8.04,7.06,14.51,13.34,18.83-5.88,1.57-10.2,7.06-10.2,13.53,0,4.51,1.76,8.43,5.1,11.96,5.69,5.69,16.67,9.41,28.04,9.41,11.96,0,21.38-4.12,27.45-11.77,4.71-6.08,7.06-13.34,7.06-21.96v-10.2c2.35,10.39,11.96,17.45,24.91,17.45,5.1,0,10.2-1.18,15.1-3.53v2.35h34.51v-6.08c5.88,4.12,15.88,6.86,24.91,6.86,18.63,0,31.57-10.39,31.57-25.49.98-8.04-2.75-12.94-7.84-16.47h0ZM411.56,173.62c3.33,0,5.88.98,7.45,2.94h-14.51c2.35-2.35,5.1-2.94,7.06-2.94h0ZM416.66,201.07c-5.1,0-8.43-1.18-10.59-2.75h23.92c-4.71,1.76-9.22,2.75-13.34,2.75ZM602.76,173.62c3.33,0,5.88.98,7.45,2.94h-14.51c2.35-2.35,5.29-2.94,7.06-2.94ZM607.86,201.07c-5.1,0-8.43-1.18-10.59-2.75h23.92c-4.71,1.76-9.02,2.75-13.34,2.75ZM659.24,186.76c0-8.04,3.73-12.16,10.98-12.16,2.94,0,5.69.78,8.24,2.16v19.02c-2.75,2.16-5.49,3.14-8.24,3.14-7.06-.2-10.98-4.51-10.98-12.16ZM676.89,225.2c-1.96,2.55-5.49,3.14-8.04,3.14-1.37,0-2.55-.2-3.53-.39-.2-2.16-.98-4.12-2.16-5.69,1.18.2,2.16.2,3.33.2,4.9,0,8.82-.98,12.16-2.55-.39,2.55-.78,4.51-1.76,5.29h0ZM705.13,197.15v-23.14h3.33c.59,4.31,3.14,7.65,6.47,9.61-5.1,3.14-8.43,7.84-9.81,13.53ZM744.55,200.09c-3.33,1.96-6.67,2.94-9.81,2.94-3.73,0-3.73-1.37-3.73-2.16,0-2.94,3.92-3.53,6.47-3.53,2.35,0,4.9.2,7.26.39v2.35h-.2ZM734.74,178.52h-.59c.98-1.57,1.57-3.33,1.76-5.29,5.1,0,7.06,1.37,8.04,2.55.39.39.78,1.57.98,3.33-3.33-.39-6.86-.59-10.2-.59ZM804.55,172.64c.98,0,1.96,0,2.94.2.2,1.18.39,2.16.59,3.14-3.73-.98-6.28-1.96-7.84-2.55.98-.39,2.35-.78,4.31-.78ZM804.95,202.84c-1.76,0-3.73-.2-5.49-.59-.2-1.37-.39-2.55-.78-3.73,1.18.39,2.55.78,3.73.98,3.92,1.18,6.08,1.96,7.26,2.35-.98.59-2.55.98-4.71.98h0Z"/>
  <path class="cls-3" d="M587.66,182.25c1.57-10,8.43-14.12,15.1-14.12,9.02,0,14.51,5.49,14.9,14.12h-30ZM603.15,155.58c-19.02,0-31.38,14.51-31.38,32.16,0,19.02,14.12,31.77,33.93,31.77,9.02,0,17.06-1.76,23.34-5.49,0,0-2.94-8.63-4.12-11.18-5.69,2.35-11.37,3.73-17.26,3.73-10.39,0-18.04-4.31-20.2-13.73h44.52c.59-2.16.78-5.29.78-7.65.39-16.28-10-29.61-29.61-29.61h0ZM480.19,155.58c-20.2,0-32.95,15.1-32.95,32.16s12.55,32.16,32.95,32.16,32.95-15.1,32.95-32.16-12.35-32.16-32.95-32.16ZM474.31,172.25c.59-2.55,2.55-5.49,4.71-7.26.59-.39,1.37,0,1.37.59,0,2.75,2.35,5.1,2.16,8.43-.2,2.55-1.57,5.1-4.12,5.1-3.73-.39-4.9-3.73-4.12-6.86h0ZM462.54,169.3c.2-.78,1.37-.78,1.57,0,1.57,3.14,5.1,3.73,6.08,6.28.78,2.16.98,5.1-2.16,6.86s-5.29-1.37-6.08-4.31c-.59-2.55-.2-6.08.59-8.82ZM486.86,209.9c-3.33-.39-7.45-3.92-11.37-3.92-2.94,0-7.84,1.37-10.59.78-2.75-.59-3.73-5.1-3.73-8.82,0-3.92,4.12-7.45,7.65-10.59,2.94-2.55,8.24-5.69,10.59-5.69,3.14,0,6.47,2.55,8.24,10.2,1.37,6.28,5.69,5.88,5.69,9.02,0,5.1-3.14,9.61-6.47,9.02h0ZM489.41,182.05c-2.55-.78-3.33-3.33-2.55-5.88s3.53-4.12,4.9-7.06c.39-.78,1.37-.78,1.57,0,.98,2.35,2.16,5.49,1.96,7.84-.2,2.94-2.16,6.28-5.88,5.1ZM501.57,193.03c-1.37,2.94-4.51,3.33-6.47,2.35-2.75-1.57-2.94-5.1-.78-7.65,1.57-1.96,5.1-2.35,6.28-5.1.39-.78,1.37-.78,1.57,0,1.37,3.33.59,8.04-.59,10.39ZM359,204.41h-25.49v-64.13h12.16v-14.51h-38.83v14.51h10.79v64.13h-10.79v14.32h67.46v-27.45h-15.3v13.14ZM411.95,155.58c-19.02,0-31.38,14.51-31.38,32.16,0,19.02,14.12,31.77,33.93,31.77,9.02,0,17.06-1.76,23.34-5.49,0,0-2.94-8.63-4.12-11.18-5.69,2.35-11.37,3.73-17.26,3.73-10.39,0-18.04-4.31-20.2-13.73h44.52c.59-2.16.78-5.29.78-7.65.39-16.28-10-29.61-29.61-29.61ZM396.46,182.25c1.57-10,8.43-14.12,15.1-14.12,9.02,0,14.51,5.49,14.9,14.12h-30ZM684.93,162.25h-.2c-3.92-3.53-9.81-6.67-17.45-6.67-16.28,0-29.02,13.73-29.02,31.38s12.55,30.2,28.24,30.2c8.24,0,12.94-3.14,17.85-8.04v9.02c0,4.71-.98,8.24-2.94,10.59-2.75,3.73-7.26,5.29-12.55,5.29-3.73,0-6.67-.78-9.22-1.57.2-.59.2-1.57.2-2.35,0-4.71-3.73-8.04-8.43-8.04-5.1,0-8.24,4.31-8.24,8.43,0,2.94.98,5.49,3.53,8.04,4.31,4.31,13.53,7.65,24.12,7.65,10,0,18.04-3.14,23.14-9.61,3.73-4.71,5.88-10.98,5.88-18.63v-49.61h8.82v-11.77h-23.73v5.69h0ZM683.95,198.13c-3.92,3.73-8.43,6.08-13.73,6.08-9.61,0-16.47-6.08-16.47-17.45s6.86-17.85,16.47-17.85c5.49,0,10,1.76,13.73,4.71v24.51ZM807.3,181.27c-9.61-2.75-12.94-4.31-12.94-8.04,0-3.14,3.53-6.28,10.39-6.28,3.14,0,6.08.59,8.82,1.57-.2.78-.2,1.57-.2,2.75,0,4.71,3.53,7.65,8.24,7.65s7.65-3.53,7.65-8.24c0-2.94-.98-5.49-3.53-8.04-4.31-4.31-13.34-7.26-20.79-7.26-17.26,0-25.3,10-25.3,19.61,0,10.59,7.26,14.51,24.12,19.02,9.61,2.75,12.16,4.31,12.16,7.45,0,4.51-5.1,6.67-11.18,6.67-4.31,0-8.24-.78-11.18-1.76.2-.78.2-1.57.2-2.75,0-5.29-3.92-8.24-8.24-8.24-4.71,0-8.24,3.73-8.24,8.24,0,3.14.98,5.88,3.53,8.24,3.92,3.92,14.32,7.45,23.73,7.45,14.12,0,26.08-6.86,26.08-20,0-10.2-8.43-13.92-23.34-18.04h0ZM765.14,179.5c0-6.08-1.57-11.77-4.71-15.49-4.31-5.29-11.77-8.43-21.96-8.43-16.67,0-24.51,8.24-24.51,15.88,0,5.1,3.53,8.24,8.24,8.24s8.24-3.53,8.24-8.04c0-.78-.2-2.16-.59-3.14,1.37-.59,3.53-.98,6.08-.98,5.49,0,9.61,1.37,12.16,4.51,1.57,1.76,2.35,4.71,2.35,8.43v5.1c-3.53-.78-9.22-1.57-15.69-1.57-14.51,0-24.71,7.26-24.71,18.63s9.61,17.26,20,17.26c8.24,0,15.69-3.73,20.79-8.04v6.86h23.34v-11.57h-9.02v-27.65h0ZM750.23,203.23c-4.71,3.53-10,5.49-15.49,5.49s-9.22-2.75-9.22-7.65c0-5.49,4.51-9.02,11.96-9.02,4.71,0,9.22.59,12.75,1.37v9.81ZM552.56,140.28h10.2l-19.81,50.99-20-50.99h9.81v-14.51h-36.48v14.51h8.43l33.34,78.44h9.81l33.34-78.44h8.04v-14.51h-36.67v14.51Z"/>
</svg>