<?xml version="1.0" encoding="UTF-8"?>
<svg id="Warstwa_1" data-name="Warstwa 1" xmlns="http://www.w3.org/2000/svg" viewBox="0 0 1002.97 344.1">
  <defs>
    <style>
      .cls-1, .cls-2 {
        fill: #f7f8fd;
      }

      .cls-3, .cls-4 {
        fill: #4f4f4f;
      }

      .cls-4, .cls-2 {
        fill-rule: evenodd;
      }
    </style>
  </defs>
  <g>
    <path class="cls-1" d="M293.78,154.11c2.26-2.2,5.59-3.3,10-3.3h39.09v20.92h-28.53v58.36h-23.95v-66.38c0-4.19,1.13-7.39,3.39-9.6Z"/>
    <path class="cls-1" d="M573.4,150.81l12.6,56.47,3.31,16.83h-2.92l12.29-73.3h40.3l12.45,73.3h-3.08l3.15-16.67,12.6-56.63h22.85l-17.33,79.28h-40.41l-12.29-73.3h3.66l-11.97,73.3h-41.35l-16.7-79.28h22.85Z"/>
    <path class="cls-1" d="M687.51,209.17h22.06v-37.44h-18.75v-20.92h28.36c3.99,0,7.07,1.02,9.22,3.07,2.15,2.04,3.23,5.11,3.23,9.2v46.09h22.53v20.92h-66.65v-20.92Z"/>
    <path class="cls-1" d="M732.75,131.7c0,8.3-6.72,15.02-15.01,15.02s-15.01-6.73-15.01-15.02,6.72-15.02,15.01-15.02,15.01,6.73,15.01,15.02Z"/>
    <path class="cls-1" d="M763.07,154.11c2.26-2.2,5.59-3.3,10-3.3h39.09v20.92h-28.53v58.36h-23.95v-66.38c0-4.19,1.13-7.39,3.39-9.6Z"/>
    <path class="cls-1" d="M884.77,182.58l-11.5,9.91v-7.86c0-5.56-1.63-9.91-4.88-13.06-3.26-3.15-7.72-4.72-13.39-4.72-3.78,0-7.01.71-9.69,2.12-2.67,1.42-4.78,3.48-6.3,6.21-1.52,2.73-2.28,5.98-2.28,9.75l.16,8.34c.1,6.29,1.76,11.25,4.96,14.86,3.21,3.62,7.69,5.43,13.47,5.43,4.73,0,8.63-1,11.74-2.99,3.1-1.99,5.07-4.82,5.91-8.49h23.79c-1.26,9.02-5.46,16.2-12.61,21.55-7.14,5.35-16.7,8.02-28.67,8.02-8.72,0-16.28-1.75-22.69-5.27-6.41-3.51-11.32-8.42-14.73-14.71-3.41-6.29-5.12-13.53-5.12-21.71s1.76-15.52,5.28-21.71c3.52-6.19,8.41-10.91,14.65-14.16,6.25-3.25,13.41-4.88,21.5-4.88,8.72,0,16.26,1.57,22.61,4.72,6.35,3.15,11.21,7.68,14.57,13.61,3.36,5.92,5.04,13.03,5.04,21.31v6.61h-63.03v-12.9h51.21Z"/>
    <path class="cls-2" d="M340.76,190.45c0-22.76,18.48-41.21,41.28-41.21s41.28,18.45,41.28,41.21-18.48,41.21-41.28,41.21-41.28-18.45-41.28-41.21ZM382.04,172.01c-10.17,0-18.42,8.25-18.42,18.44s8.25,18.44,18.42,18.44,18.42-8.25,18.42-18.44-8.25-18.44-18.42-18.44Z"/>
    <path class="cls-2" d="M471.42,190.45c0-22.76,18.48-41.21,41.28-41.21s41.28,18.45,41.28,41.21-18.48,41.21-41.28,41.21-41.28-18.45-41.28-41.21ZM512.46,172.01c-10.17,0-18.42,8.25-18.42,18.44s8.25,18.44,18.42,18.44,18.42-8.25,18.42-18.44-8.25-18.44-18.42-18.44Z"/>
    <path class="cls-1" d="M449.24,209.41h18.75v20.92h-28.36c-3.99,0-7.07-1.02-9.22-3.07-2.15-2.04-3.23-5.11-3.23-9.2v-89.75h22.06v22.74h22.06v20.92h-22.06v37.44Z"/>
  </g>
  <path class="cls-4" d="M187.24,112.44c21.43.49,38.65,18.1,38.65,39.76s-16.29,38.3-36.89,39.68c-.76.05-1.17.95-.69,1.54l28,34.87c.48.6.06,1.5-.71,1.5h-38.72c-.28,0-.54-.13-.71-.34l-28.75-35.8c-.54-.67-1.63-.29-1.63.58v34.8c0,.51-.41.92-.92.91-21.43-.49-38.65-18.1-38.65-39.76s16.31-38.33,36.94-39.68c.76-.05,1.17-.95.69-1.54l-28-34.87c-.48-.6-.06-1.5.71-1.5h38.72c.28,0,.54.13.71.34l28.69,35.73c.54.67,1.63.29,1.63-.58v-34.73c0-.51.41-.92.92-.91ZM186.32,191.55s0,0,0,0,0,0,0,0h0s-40.53,0-40.53,0h0s0,0,0,0c0,0,0,0,0,0,0,0,0,0,0,0v-39.82s0-.03,0-.05v-.87h.9s.01,0,.02,0h38.71s.01,0,.02,0h.89v.8s0,.08,0,.12v39.81Z"/>
  <path class="cls-3" d="M234.65,193.75c-10.01,0-18.13,8.16-18.13,18.22s8.12,18.22,18.13,18.22,18.13-8.16,18.13-18.22-8.12-18.22-18.13-18.22Z"/>
</svg>