<?xml version="1.0" encoding="UTF-8"?>
<svg id="Warstwa_1" data-name="Warstwa 1" xmlns="http://www.w3.org/2000/svg" viewBox="0 0 1181.32 344.1">
  <defs>
    <style>
      .cls-1 {
        fill: #4f4f4f;
      }

      .cls-2 {
        fill: #f7f8fd;
        fill-rule: evenodd;
      }

      .cls-3 {
        fill: #a5a5a5;
      }
    </style>
  </defs>
  <path class="cls-2" d="M1026.39,140.34v42.65c0,10.3,3.47,17.29,14.09,17.29s15.39-7.97,15.39-20.27v-39.67h25.31v77.5c0,12.95-4.66,22.76-11.44,28.89-7.1,6.12-15.88,9.32-29.32,9.32s-22.82-2.82-29.48-8.29c-6.18-5.26-9.76-12.95-9.92-21.08h25.47c.49,6.83,4.28,10.79,13.93,10.79s15.39-5.47,15.39-17.94v-12.47c-4.44,8.46-13.22,13.28-25.31,13.28-20.38,0-29.48-13.6-29.48-33.55v-46.5h25.31l.05.05ZM806.62,138.18c21.84,0,36.75,16.91,36.75,42.17s-15.39,42.17-37.4,42.17c-11.76,0-21.35-5.96-25.47-13.44v44.5h-25.15v-113.22h25.15v11.44c4.28-7.64,14.25-13.6,26.18-13.6h-.05ZM602.45,138.18c24.82,0,41.73,15.45,41.73,37.99,0,4.12-.16,6.61-.65,11.11h-58.91c.49,10.46,7.43,16.1,18.7,16.1,7.75,0,12.74-2.17,14.9-7.15h24.82c-2.49,15.77-18.54,26.23-39.73,26.23-27.15,0-43.85-15.45-43.85-42.17s17.07-42.17,43.03-42.17l-.05.05ZM933.55,138.18c11.6,0,20.7,5.47,24.99,13.6v-11.44h25.15v80h-25.15v-11.27c-4.28,7.97-14.25,13.44-25.31,13.44-23.85,0-37.56-18.1-37.56-42.17s14.74-42.17,37.89-42.17h0ZM348.26,116.61v23.74h18.05v20.11h-18.05v26.56c0,11.76,4.77,13.6,11.11,13.6,2.82,0,6.45-.16,8.78-.49v20.27c-3.63.65-9.59,1.35-16.91,1.35-11.92,0-28.29-2.66-28.29-29.38v-31.87h-12.57v-20.11h12.57v-23.74h25.31v-.05ZM405.6,140.34v80h-25.15v-80h25.15ZM518.49,138.18c22.82,0,28.29,15.77,28.29,32.52v49.65h-25.47v-44.99c0-11.11-4.12-15.77-11.92-15.77s-13.39,4.5-13.39,19.57v41.14h-25.47v-45.15c0-11.11-3.96-15.61-11.76-15.61s-13.6,4.5-13.6,19.57v41.14h-25.31v-80h25.31v11.6c3.47-7.97,11.76-13.77,22.82-13.77,14.25,0,21.52,6.34,24.99,14.8,4.28-8.62,13.77-14.8,25.47-14.8h0l.05.11ZM701.36,104.95c25.8,0,41.19,12.63,41.19,33.39,0,14.58-7.8,26.72-22.33,34.36l-16.69,8.94c-9.59,5.31-12.9,8.94-15.07,16.75h53.11v21.9h-86.07c0-27.21,8.46-42.82,29.1-53.6l18.05-9.48c8.29-4.34,12.41-10.3,12.41-17.94,0-8.13-5.47-13.6-13.55-13.6-10.41,0-16.21,6.99-16.21,19.57h-27.32c0-24.39,17.24-40.32,43.36-40.32v.05ZM882.39,104.14v116.2h-25.31v-116.15h25.31v-.05ZM798.7,159.42c-11.44,0-19.19,8.46-19.19,20.92s7.97,21.08,19.19,21.08,18.86-8.62,18.86-21.08-7.75-20.92-18.86-20.92ZM940.54,159.42c-11.76,0-19.02,8.78-19.02,20.92s7.26,21.08,19.02,21.08c12.57,0,19.02-9.43,19.02-21.08s-6.45-20.92-19.02-20.92ZM602.34,155.25c-10.95,0-17.56,6.45-17.72,16.26h34.58c-.16-10.62-6.12-16.26-16.91-16.26h.05Z"/>
  <g>
    <path class="cls-1" d="M148.26,92.87h0c-4.88-3.04-10.57-4.82-16.69-4.82-17.34,0-31.44,14.09-31.44,31.49,0,4.39.98,8.67,2.66,12.57h108.34l-62.87-39.24Z"/>
    <path class="cls-3" d="M192.87,219.53c0-2.44-1.35-4.55-3.36-5.69h0l-37.88-23.85c-16.26-9.48-37.07-3.96-46.56,12.36-3.14,5.42-4.61,11.38-4.61,17.24h92.35v-.11l.05.05Z"/>
    <path class="cls-3" d="M115.15,146.31h0l84.82,52.79c5.37,4.01,11.92,6.18,18.59,6.18,17.34,0,31.38-14.09,31.38-31.49,0-10.68-5.42-20.6-14.31-26.39h0l-24.44-15.28h-108.34c2.55,5.8,6.77,10.84,12.3,14.2Z"/>
    <path class="cls-1" d="M117.42,249.07c10.51,6.12,23.47,6.18,34.04.11l38.05-23.9h0c1.95-1.14,3.31-3.25,3.31-5.64h-92.3c0,11.71,6.07,23.09,16.91,29.43Z"/>
  </g>
</svg>