<?xml version="1.0" encoding="UTF-8"?>
<svg id="Warstwa_1" data-name="Warstwa 1" xmlns="http://www.w3.org/2000/svg" xmlns:xlink="http://www.w3.org/1999/xlink" viewBox="0 0 1185.28 344.1">
  <defs>
    <style>
      .cls-1 {
        fill: #f7f8fd;
      }

      .cls-2 {
        fill: url(#Degradado_sin_nombre_29);
        fill-rule: evenodd;
      }

      .cls-3 {
        fill: url(#Degradado_sin_nombre_29-2);
      }
    </style>
    <linearGradient id="Degradado_sin_nombre_29" data-name="Degradado sin nombre 29" x1="570.82" y1="174.81" x2="606.16" y2="58.35" gradientTransform="translate(0 284.93) scale(1 -1)" gradientUnits="userSpaceOnUse">
      <stop offset="0" stop-color="#4f4f4f"/>
      <stop offset=".15" stop-color="#a5a5a5"/>
      <stop offset=".42" stop-color="#fff"/>
      <stop offset=".75" stop-color="#a5a5a5"/>
      <stop offset="1" stop-color="#4f4f4f"/>
    </linearGradient>
    <linearGradient id="Degradado_sin_nombre_29-2" data-name="Degradado sin nombre 29" x1="534.16" y1="179.26" x2="547.79" y2="102.07" xlink:href="#Degradado_sin_nombre_29"/>
  </defs>
  <path class="cls-1" d="M112.95,131.99l20.37,51.38,20.48-51.38h23.84l-35.59,84.39h-17.46l-35.48-84.39h23.84ZM231.15,150.57h-26.08v14.1h24.62v18.58h-24.62v14.55h26.08v18.58h-48.02v-84.39h48.02v18.58ZM284.68,169.15h43.54c0,4.48-.19,8.54-.56,12.2-.37,3.66-1.12,7.05-2.24,10.19-1.57,4.4-3.69,8.32-6.38,11.75-2.69,3.36-5.86,6.19-9.51,8.51-3.58,2.24-7.54,3.95-11.86,5.15-4.33,1.19-8.88,1.79-13.66,1.79-6.57,0-12.57-1.08-18.02-3.25-5.37-2.16-10-5.19-13.88-9.07-3.88-3.95-6.9-8.66-9.07-14.1-2.16-5.52-3.25-11.6-3.25-18.24s1.04-12.57,3.13-18.02c2.16-5.52,5.19-10.22,9.07-14.1,3.95-3.88,8.69-6.9,14.21-9.07,5.52-2.16,11.68-3.25,18.47-3.25,8.81,0,16.53,1.9,23.17,5.71,6.64,3.81,11.9,9.7,15.78,17.68l-20.82,8.62c-1.94-4.63-4.48-7.95-7.61-9.96-3.06-2.01-6.57-3.02-10.52-3.02-3.28,0-6.27.63-8.95,1.9-2.69,1.19-5,2.95-6.94,5.26-1.87,2.24-3.36,4.96-4.48,8.17-1.04,3.21-1.57,6.79-1.57,10.75,0,3.58.45,6.9,1.34,9.96.97,3.06,2.39,5.71,4.25,7.95,1.87,2.24,4.18,3.99,6.94,5.26,2.76,1.19,5.97,1.79,9.63,1.79,2.16,0,4.25-.22,6.27-.67,2.02-.52,3.81-1.31,5.37-2.35,1.64-1.12,2.99-2.54,4.03-4.25,1.04-1.72,1.75-3.81,2.13-6.27h-18.02v-17.01ZM381.45,185.05l-9.85-28.09-9.85,28.09h19.7ZM387.27,201.72h-31.34l-5.04,14.66h-23.39l32.12-84.39h23.95l32.12,84.39h-23.39l-5.04-14.66ZM468.28,153.59c-2.39-1.94-4.78-3.36-7.16-4.25-2.39-.97-4.7-1.46-6.94-1.46-2.83,0-5.15.67-6.94,2.01-1.79,1.34-2.69,3.1-2.69,5.26,0,1.49.45,2.72,1.34,3.69.9.97,2.05,1.83,3.47,2.57,1.49.67,3.13,1.27,4.92,1.79,1.87.52,3.69,1.08,5.48,1.68,7.16,2.39,12.39,5.6,15.67,9.63,3.36,3.95,5.04,9.14,5.04,15.56,0,4.33-.75,8.25-2.24,11.75-1.42,3.51-3.55,6.53-6.38,9.07-2.76,2.46-6.19,4.37-10.3,5.71-4.03,1.42-8.62,2.13-13.77,2.13-10.67,0-20.56-3.17-29.66-9.51l9.4-17.68c3.28,2.91,6.53,5.07,9.74,6.49,3.21,1.42,6.38,2.13,9.52,2.13,3.58,0,6.23-.82,7.95-2.46,1.79-1.64,2.69-3.51,2.69-5.6,0-1.27-.22-2.35-.67-3.25-.45-.97-1.19-1.83-2.24-2.57-1.05-.82-2.43-1.57-4.14-2.24-1.64-.67-3.66-1.42-6.04-2.24-2.83-.9-5.63-1.87-8.4-2.91-2.69-1.12-5.11-2.57-7.28-4.37-2.09-1.79-3.8-4.03-5.15-6.72-1.27-2.76-1.9-6.23-1.9-10.41s.67-7.95,2.01-11.3c1.42-3.43,3.36-6.34,5.82-8.73,2.54-2.46,5.6-4.37,9.18-5.71,3.66-1.34,7.72-2.01,12.2-2.01,4.18,0,8.54.6,13.09,1.79,4.55,1.12,8.92,2.8,13.09,5.04l-8.73,17.12ZM662.78,131.99v84.39h-21.94v-84.39h21.94ZM677.05,216.39v-84.39h21.94l40.52,51.6v-51.6h21.83v84.39h-21.83l-40.52-51.6v51.6h-21.94ZM822.01,153.59c-2.39-1.94-4.77-3.36-7.16-4.25-2.39-.97-4.7-1.46-6.94-1.46-2.83,0-5.15.67-6.94,2.01-1.79,1.34-2.69,3.1-2.69,5.26,0,1.49.45,2.72,1.34,3.69.9.97,2.05,1.83,3.47,2.57,1.49.67,3.13,1.27,4.92,1.79,1.86.52,3.69,1.08,5.48,1.68,7.16,2.39,12.39,5.6,15.67,9.63,3.36,3.95,5.04,9.14,5.04,15.56,0,4.33-.75,8.25-2.24,11.75-1.42,3.51-3.55,6.53-6.38,9.07-2.76,2.46-6.19,4.37-10.3,5.71-4.03,1.42-8.62,2.13-13.77,2.13-10.67,0-20.56-3.17-29.66-9.51l9.4-17.68c3.28,2.91,6.53,5.07,9.74,6.49,3.21,1.42,6.38,2.13,9.51,2.13,3.58,0,6.23-.82,7.95-2.46,1.79-1.64,2.69-3.51,2.69-5.6,0-1.27-.22-2.35-.67-3.25-.45-.97-1.19-1.83-2.24-2.57-1.05-.82-2.43-1.57-4.14-2.24-1.64-.67-3.66-1.42-6.04-2.24-2.84-.9-5.63-1.87-8.4-2.91-2.69-1.12-5.11-2.57-7.28-4.37-2.09-1.79-3.81-4.03-5.15-6.72-1.27-2.76-1.9-6.23-1.9-10.41s.67-7.95,2.01-11.3c1.42-3.43,3.36-6.34,5.82-8.73,2.54-2.46,5.6-4.37,9.18-5.71,3.66-1.34,7.72-2.01,12.2-2.01,4.18,0,8.54.6,13.09,1.79,4.55,1.12,8.92,2.8,13.09,5.04l-8.73,17.12ZM866.62,131.99v84.39h-21.94v-84.39h21.94ZM902.83,197.81h5.04c3.8,0,7.2-.6,10.18-1.79,2.99-1.19,5.48-2.84,7.5-4.92,2.09-2.09,3.66-4.55,4.7-7.39,1.12-2.91,1.68-6.08,1.68-9.51s-.56-6.49-1.68-9.4c-1.12-2.91-2.72-5.41-4.81-7.5-2.01-2.09-4.51-3.73-7.5-4.92-2.99-1.19-6.34-1.79-10.07-1.79h-5.04v47.23ZM880.89,131.99h32.46c5.75,0,11.12,1.16,16.12,3.47,5.07,2.31,9.48,5.41,13.21,9.29,3.81,3.81,6.79,8.28,8.96,13.43,2.16,5.07,3.25,10.41,3.25,16.01s-1.08,10.86-3.25,16.01c-2.09,5.07-5.04,9.55-8.84,13.43-3.73,3.88-8.13,6.98-13.21,9.29-5,2.31-10.41,3.47-16.23,3.47h-32.46v-84.39ZM1013.54,150.57h-26.08v14.1h24.62v18.58h-24.62v14.55h26.08v18.58h-48.02v-84.39h48.02v18.58ZM1047.94,169.71h4.14c4.33,0,7.65-.9,9.96-2.69,2.31-1.79,3.47-4.37,3.47-7.72s-1.16-5.93-3.47-7.72c-2.31-1.79-5.63-2.69-9.96-2.69h-4.14v20.82ZM1096.18,216.39h-27.31l-20.93-32.46v32.46h-21.94v-84.39h34.14c4.7,0,8.8.71,12.31,2.13,3.51,1.34,6.38,3.21,8.62,5.6,2.31,2.39,4.03,5.15,5.15,8.28,1.19,3.13,1.79,6.49,1.79,10.07,0,6.42-1.57,11.64-4.7,15.67-3.06,3.95-7.61,6.64-13.66,8.06l26.53,34.59Z"/>
  <path class="cls-2" d="M594.1,110.79l3.57-6.18h36.78l-4.25,7.35-10.08,17.45h-36.77l5.03-8.72c.2-.34.41-.67.62-1,.06-.09.12-.19.18-.28v-.1l3.14-5.44,1.78-3.08ZM566.21,159.1l4.24-7.35,8.18-14.16h36.77l-17.23,29.85-41.61,72.08-22.62-39.19h0s-2.2-3.82-2.2-3.82c.72.08,1.45.13,2.2.13s1.48-.04,2.2-.12c4.88-.55,9.26-2.95,12.35-6.71l3.59-6.22h0s4.24-7.34,4.24-7.34l.09-.16,9.8-16.99Z"/>
  <path class="cls-3" d="M543.72,183.37l4.12-7.13,11.01-19.07,13.63-23.61,11.37-19.7.49-.83,4.86-8.43h0v-.03s-17.76,0-17.76,0h-12.46c-.25,0-.5,0-.75.03h-5.79l-4.23,7.32-5.43,9.4-11.04,19.12-4.84,8.39-7.1,12.3h0s-2.48-4.31-2.48-4.31l-7.13-12.35-8.86-15.34,14.17-24.55h-28.35s-3.04,0-3.04,0h0s-5.37,0-5.37,0l1.35,2.32-.05.03,20.17,34.93,1.48,2.56,13.88,24.04,1.03,1.79,3.2,5.55v.03s2.6,4.48,2.6,4.48l1.82,3.15c4.39,7.44,15.19,7.4,19.51-.1Z"/>
</svg>